<?xml version="1.0" encoding="UTF-8" standalone="no"?>
<!DOCTYPE svg PUBLIC "-//W3C//DTD SVG 1.1//EN"
 "http://www.w3.org/Graphics/SVG/1.1/DTD/svg11.dtd">
<!-- Generated by graphviz version 2.40.1 (0)
 -->
<!-- Title: snakemake_dag Pages: 1 -->
<svg width="323pt" height="692pt"
 viewBox="0.00 0.00 323.00 692.00" xmlns="http://www.w3.org/2000/svg" xmlns:xlink="http://www.w3.org/1999/xlink">
<g id="graph0" class="graph" transform="scale(1 1) rotate(0) translate(4 688)">
<title>snakemake_dag</title>
<polygon fill="#ffffff" stroke="transparent" points="-4,4 -4,-688 319,-688 319,4 -4,4"/>
<!-- 0 -->
<g id="node1" class="node">
<title>0</title>
<path fill="none" stroke="#d89c56" stroke-width="2" d="M127,-36C127,-36 97,-36 97,-36 91,-36 85,-30 85,-24 85,-24 85,-12 85,-12 85,-6 91,0 97,0 97,0 127,0 127,0 133,0 139,-6 139,-12 139,-12 139,-24 139,-24 139,-30 133,-36 127,-36"/>
<text text-anchor="middle" x="112" y="-15.5" font-family="sans" font-size="10.00" fill="#000000">all</text>
</g>
<!-- 1 -->
<g id="node2" class="node">
<title>1</title>
<path fill="none" stroke="#d85656" stroke-width="2" d="M42,-252C42,-252 12,-252 12,-252 6,-252 0,-246 0,-240 0,-240 0,-228 0,-228 0,-222 6,-216 12,-216 12,-216 42,-216 42,-216 48,-216 54,-222 54,-228 54,-228 54,-240 54,-240 54,-246 48,-252 42,-252"/>
<text text-anchor="middle" x="27" y="-231.5" font-family="sans" font-size="10.00" fill="#000000">LibQC</text>
</g>
<!-- 1&#45;&gt;0 -->
<g id="edge2" class="edge">
<title>1&#45;&gt;0</title>
<path fill="none" stroke="#c0c0c0" stroke-width="2" d="M22.6076,-215.9319C18.9256,-197.4096 15.3786,-168 23,-144 35.4533,-104.7843 65.0131,-67.2581 86.6622,-43.5173"/>
<polygon fill="#c0c0c0" stroke="#c0c0c0" stroke-width="2" points="89.4018,-45.7115 93.6646,-36.012 84.2836,-40.9361 89.4018,-45.7115"/>
</g>
<!-- 2 -->
<g id="node3" class="node">
<title>2</title>
<path fill="none" stroke="#569ad8" stroke-width="2" d="M120.5,-468C120.5,-468 75.5,-468 75.5,-468 69.5,-468 63.5,-462 63.5,-456 63.5,-456 63.5,-444 63.5,-444 63.5,-438 69.5,-432 75.5,-432 75.5,-432 120.5,-432 120.5,-432 126.5,-432 132.5,-438 132.5,-444 132.5,-444 132.5,-456 132.5,-456 132.5,-462 126.5,-468 120.5,-468"/>
<text text-anchor="middle" x="98" y="-447.5" font-family="sans" font-size="10.00" fill="#000000">rmPCRDup</text>
</g>
<!-- 2&#45;&gt;1 -->
<g id="edge5" class="edge">
<title>2&#45;&gt;1</title>
<path fill="none" stroke="#c0c0c0" stroke-width="2" d="M88.7085,-431.8091C83.653,-421.4769 77.5261,-408.2048 73,-396 55.938,-349.9919 41.4761,-294.6791 33.5387,-262.0374"/>
<polygon fill="#c0c0c0" stroke="#c0c0c0" stroke-width="2" points="36.9332,-261.1835 31.1958,-252.2766 30.1266,-262.8174 36.9332,-261.1835"/>
</g>
<!-- 7 -->
<g id="node8" class="node">
<title>7</title>
<path fill="none" stroke="#56d88a" stroke-width="2" d="M167.5,-396C167.5,-396 94.5,-396 94.5,-396 88.5,-396 82.5,-390 82.5,-384 82.5,-384 82.5,-372 82.5,-372 82.5,-366 88.5,-360 94.5,-360 94.5,-360 167.5,-360 167.5,-360 173.5,-360 179.5,-366 179.5,-372 179.5,-372 179.5,-384 179.5,-384 179.5,-390 173.5,-396 167.5,-396"/>
<text text-anchor="middle" x="131" y="-375.5" font-family="sans" font-size="10.00" fill="#000000">makePairsNSam</text>
</g>
<!-- 2&#45;&gt;7 -->
<g id="edge10" class="edge">
<title>2&#45;&gt;7</title>
<path fill="none" stroke="#c0c0c0" stroke-width="2" d="M106.3273,-431.8314C109.973,-423.8771 114.3309,-414.369 118.3627,-405.5723"/>
<polygon fill="#c0c0c0" stroke="#c0c0c0" stroke-width="2" points="121.5757,-406.9622 122.5606,-396.4133 115.2123,-404.0456 121.5757,-406.9622"/>
</g>
<!-- 3 -->
<g id="node4" class="node">
<title>3</title>
<path fill="none" stroke="#567bd8" stroke-width="2" d="M123,-540C123,-540 73,-540 73,-540 67,-540 61,-534 61,-528 61,-528 61,-516 61,-516 61,-510 67,-504 73,-504 73,-504 123,-504 123,-504 129,-504 135,-510 135,-516 135,-516 135,-528 135,-528 135,-534 129,-540 123,-540"/>
<text text-anchor="middle" x="98" y="-519.5" font-family="sans" font-size="10.00" fill="#000000">sortParisam</text>
</g>
<!-- 3&#45;&gt;2 -->
<g id="edge6" class="edge">
<title>3&#45;&gt;2</title>
<path fill="none" stroke="#c0c0c0" stroke-width="2" d="M98,-503.8314C98,-496.131 98,-486.9743 98,-478.4166"/>
<polygon fill="#c0c0c0" stroke="#c0c0c0" stroke-width="2" points="101.5001,-478.4132 98,-468.4133 94.5001,-478.4133 101.5001,-478.4132"/>
</g>
<!-- 4 -->
<g id="node5" class="node">
<title>4</title>
<path fill="none" stroke="#d87556" stroke-width="2" d="M142.5,-612C142.5,-612 53.5,-612 53.5,-612 47.5,-612 41.5,-606 41.5,-600 41.5,-600 41.5,-588 41.5,-588 41.5,-582 47.5,-576 53.5,-576 53.5,-576 142.5,-576 142.5,-576 148.5,-576 154.5,-582 154.5,-588 154.5,-588 154.5,-600 154.5,-600 154.5,-606 148.5,-612 142.5,-612"/>
<text text-anchor="middle" x="98" y="-591.5" font-family="sans" font-size="10.00" fill="#000000">RecordValidLigation</text>
</g>
<!-- 4&#45;&gt;3 -->
<g id="edge7" class="edge">
<title>4&#45;&gt;3</title>
<path fill="none" stroke="#c0c0c0" stroke-width="2" d="M98,-575.8314C98,-568.131 98,-558.9743 98,-550.4166"/>
<polygon fill="#c0c0c0" stroke="#c0c0c0" stroke-width="2" points="101.5001,-550.4132 98,-540.4133 94.5001,-550.4133 101.5001,-550.4132"/>
</g>
<!-- 5 -->
<g id="node6" class="node">
<title>5</title>
<path fill="none" stroke="#ced856" stroke-width="2" d="M113,-684C113,-684 83,-684 83,-684 77,-684 71,-678 71,-672 71,-672 71,-660 71,-660 71,-654 77,-648 83,-648 83,-648 113,-648 113,-648 119,-648 125,-654 125,-660 125,-660 125,-672 125,-672 125,-678 119,-684 113,-684"/>
<text text-anchor="middle" x="98" y="-663.5" font-family="sans" font-size="10.00" fill="#000000">bwa</text>
</g>
<!-- 5&#45;&gt;4 -->
<g id="edge8" class="edge">
<title>5&#45;&gt;4</title>
<path fill="none" stroke="#c0c0c0" stroke-width="2" d="M98,-647.8314C98,-640.131 98,-630.9743 98,-622.4166"/>
<polygon fill="#c0c0c0" stroke="#c0c0c0" stroke-width="2" points="101.5001,-622.4132 98,-612.4133 94.5001,-622.4133 101.5001,-622.4132"/>
</g>
<!-- 6 -->
<g id="node7" class="node">
<title>6</title>
<path fill="none" stroke="#68d856" stroke-width="2" d="M115.5,-180C115.5,-180 44.5,-180 44.5,-180 38.5,-180 32.5,-174 32.5,-168 32.5,-168 32.5,-156 32.5,-156 32.5,-150 38.5,-144 44.5,-144 44.5,-144 115.5,-144 115.5,-144 121.5,-144 127.5,-150 127.5,-156 127.5,-156 127.5,-168 127.5,-168 127.5,-174 121.5,-180 115.5,-180"/>
<text text-anchor="middle" x="80" y="-159.5" font-family="sans" font-size="10.00" fill="#000000">hicContacMatrix</text>
</g>
<!-- 6&#45;&gt;0 -->
<g id="edge1" class="edge">
<title>6&#45;&gt;0</title>
<path fill="none" stroke="#c0c0c0" stroke-width="2" d="M80.2134,-143.7904C80.8012,-125.4085 82.7558,-96.3364 89,-72 91.2935,-63.0613 94.8427,-53.689 98.4721,-45.3085"/>
<polygon fill="#c0c0c0" stroke="#c0c0c0" stroke-width="2" points="101.7462,-46.5635 102.6991,-36.0116 95.3739,-43.6662 101.7462,-46.5635"/>
</g>
<!-- 7&#45;&gt;6 -->
<g id="edge9" class="edge">
<title>7&#45;&gt;6</title>
<path fill="none" stroke="#c0c0c0" stroke-width="2" d="M126.7395,-359.9555C117.852,-322.3144 97.2802,-235.1867 86.6405,-190.1246"/>
<polygon fill="#c0c0c0" stroke="#c0c0c0" stroke-width="2" points="89.9886,-189.0732 84.2843,-180.1451 83.1759,-190.6818 89.9886,-189.0732"/>
</g>
<!-- 8 -->
<g id="node9" class="node">
<title>8</title>
<path fill="none" stroke="#56d8a9" stroke-width="2" d="M197.5,-108C197.5,-108 110.5,-108 110.5,-108 104.5,-108 98.5,-102 98.5,-96 98.5,-96 98.5,-84 98.5,-84 98.5,-78 104.5,-72 110.5,-72 110.5,-72 197.5,-72 197.5,-72 203.5,-72 209.5,-78 209.5,-84 209.5,-84 209.5,-96 209.5,-96 209.5,-102 203.5,-108 197.5,-108"/>
<text text-anchor="middle" x="154" y="-87.5" font-family="sans" font-size="10.00" fill="#000000">mcoolContacMatrix</text>
</g>
<!-- 7&#45;&gt;8 -->
<g id="edge11" class="edge">
<title>7&#45;&gt;8</title>
<path fill="none" stroke="#c0c0c0" stroke-width="2" d="M132.4388,-359.9843C136.3272,-311.2939 147.0684,-176.7961 151.7593,-118.0573"/>
<polygon fill="#c0c0c0" stroke="#c0c0c0" stroke-width="2" points="155.2545,-118.2558 152.5618,-108.0089 148.2767,-117.6985 155.2545,-118.2558"/>
</g>
<!-- 12 -->
<g id="node13" class="node">
<title>12</title>
<path fill="none" stroke="#56d8d0" stroke-width="2" d="M258,-324C258,-324 212,-324 212,-324 206,-324 200,-318 200,-312 200,-312 200,-300 200,-300 200,-294 206,-288 212,-288 212,-288 258,-288 258,-288 264,-288 270,-294 270,-300 270,-300 270,-312 270,-312 270,-318 264,-324 258,-324"/>
<text text-anchor="middle" x="235" y="-303.5" font-family="sans" font-size="10.00" fill="#000000">parisDump</text>
</g>
<!-- 7&#45;&gt;12 -->
<g id="edge15" class="edge">
<title>7&#45;&gt;12</title>
<path fill="none" stroke="#c0c0c0" stroke-width="2" d="M157.2436,-359.8314C170.2995,-350.7927 186.2535,-339.7476 200.3047,-330.0198"/>
<polygon fill="#c0c0c0" stroke="#c0c0c0" stroke-width="2" points="202.5351,-332.7326 208.7648,-324.1628 198.5506,-326.9773 202.5351,-332.7326"/>
</g>
<!-- 8&#45;&gt;0 -->
<g id="edge4" class="edge">
<title>8&#45;&gt;0</title>
<path fill="none" stroke="#c0c0c0" stroke-width="2" d="M143.4016,-71.8314C138.7123,-63.7925 133.0972,-54.1666 127.9202,-45.2918"/>
<polygon fill="#c0c0c0" stroke="#c0c0c0" stroke-width="2" points="130.8031,-43.2875 122.7411,-36.4133 124.7566,-46.8146 130.8031,-43.2875"/>
</g>
<!-- 9 -->
<g id="node10" class="node">
<title>9</title>
<path fill="none" stroke="#56c1d8" stroke-width="2" d="M280.5,-108C280.5,-108 239.5,-108 239.5,-108 233.5,-108 227.5,-102 227.5,-96 227.5,-96 227.5,-84 227.5,-84 227.5,-78 233.5,-72 239.5,-72 239.5,-72 280.5,-72 280.5,-72 286.5,-72 292.5,-78 292.5,-84 292.5,-84 292.5,-96 292.5,-96 292.5,-102 286.5,-108 280.5,-108"/>
<text text-anchor="middle" x="260" y="-87.5" font-family="sans" font-size="10.00" fill="#000000">plotCircos</text>
</g>
<!-- 9&#45;&gt;0 -->
<g id="edge3" class="edge">
<title>9&#45;&gt;0</title>
<path fill="none" stroke="#c0c0c0" stroke-width="2" d="M227.154,-74.0209C203.8481,-62.6828 172.5566,-47.46 148.4751,-35.7446"/>
<polygon fill="#c0c0c0" stroke="#c0c0c0" stroke-width="2" points="149.8253,-32.5093 139.3018,-31.2819 146.763,-38.804 149.8253,-32.5093"/>
</g>
<!-- 10 -->
<g id="node11" class="node">
<title>10</title>
<path fill="none" stroke="#afd856" stroke-width="2" d="M276.5,-180C276.5,-180 229.5,-180 229.5,-180 223.5,-180 217.5,-174 217.5,-168 217.5,-168 217.5,-156 217.5,-156 217.5,-150 223.5,-144 229.5,-144 229.5,-144 276.5,-144 276.5,-144 282.5,-144 288.5,-150 288.5,-156 288.5,-156 288.5,-168 288.5,-168 288.5,-174 282.5,-180 276.5,-180"/>
<text text-anchor="middle" x="253" y="-159.5" font-family="sans" font-size="10.00" fill="#000000">circoConfig</text>
</g>
<!-- 10&#45;&gt;9 -->
<g id="edge12" class="edge">
<title>10&#45;&gt;9</title>
<path fill="none" stroke="#c0c0c0" stroke-width="2" d="M254.7664,-143.8314C255.515,-136.131 256.4053,-126.9743 257.2373,-118.4166"/>
<polygon fill="#c0c0c0" stroke="#c0c0c0" stroke-width="2" points="260.7256,-118.7051 258.2098,-108.4133 253.7585,-118.0276 260.7256,-118.7051"/>
</g>
<!-- 11 -->
<g id="node12" class="node">
<title>11</title>
<path fill="none" stroke="#56d86b" stroke-width="2" d="M303,-252C303,-252 199,-252 199,-252 193,-252 187,-246 187,-240 187,-240 187,-228 187,-228 187,-222 193,-216 199,-216 199,-216 303,-216 303,-216 309,-216 315,-222 315,-228 315,-228 315,-240 315,-240 315,-246 309,-252 303,-252"/>
<text text-anchor="middle" x="251" y="-231.5" font-family="sans" font-size="10.00" fill="#000000">keepMultipleAlignPair2</text>
</g>
<!-- 11&#45;&gt;10 -->
<g id="edge13" class="edge">
<title>11&#45;&gt;10</title>
<path fill="none" stroke="#c0c0c0" stroke-width="2" d="M251.5047,-215.8314C251.7186,-208.131 251.9729,-198.9743 252.2106,-190.4166"/>
<polygon fill="#c0c0c0" stroke="#c0c0c0" stroke-width="2" points="255.7094,-190.5066 252.4885,-180.4133 248.7121,-190.3122 255.7094,-190.5066"/>
</g>
<!-- 12&#45;&gt;11 -->
<g id="edge14" class="edge">
<title>12&#45;&gt;11</title>
<path fill="none" stroke="#c0c0c0" stroke-width="2" d="M239.0375,-287.8314C240.7487,-280.131 242.7835,-270.9743 244.6852,-262.4166"/>
<polygon fill="#c0c0c0" stroke="#c0c0c0" stroke-width="2" points="248.1554,-262.9344 246.9082,-252.4133 241.3221,-261.4159 248.1554,-262.9344"/>
</g>
</g>
</svg>
