<?xml version="1.0" encoding="UTF-8" standalone="no"?>
<!DOCTYPE svg PUBLIC "-//W3C//DTD SVG 1.1//EN"
 "http://www.w3.org/Graphics/SVG/1.1/DTD/svg11.dtd">
<!-- Generated by graphviz version 2.40.1 (0)
 -->
<!-- Title: snakemake_dag Pages: 1 -->
<svg width="443pt" height="836pt"
 viewBox="0.00 0.00 443.08 836.00" xmlns="http://www.w3.org/2000/svg" xmlns:xlink="http://www.w3.org/1999/xlink">
<g id="graph0" class="graph" transform="scale(1 1) rotate(0) translate(4 832)">
<title>snakemake_dag</title>
<polygon fill="#ffffff" stroke="transparent" points="-4,4 -4,-832 439.0822,-832 439.0822,4 -4,4"/>
<!-- 0 -->
<g id="node1" class="node">
<title>0</title>
<path fill="none" stroke="#c6d856" stroke-width="2" d="M217.0822,-36C217.0822,-36 187.0822,-36 187.0822,-36 181.0822,-36 175.0822,-30 175.0822,-24 175.0822,-24 175.0822,-12 175.0822,-12 175.0822,-6 181.0822,0 187.0822,0 187.0822,0 217.0822,0 217.0822,0 223.0822,0 229.0822,-6 229.0822,-12 229.0822,-12 229.0822,-24 229.0822,-24 229.0822,-30 223.0822,-36 217.0822,-36"/>
<text text-anchor="middle" x="202.0822" y="-15.5" font-family="sans" font-size="10.00" fill="#000000">all</text>
</g>
<!-- 1 -->
<g id="node2" class="node">
<title>1</title>
<path fill="none" stroke="#78d856" stroke-width="2" d="M73.0822,-180C73.0822,-180 31.0822,-180 31.0822,-180 25.0822,-180 19.0822,-174 19.0822,-168 19.0822,-168 19.0822,-156 19.0822,-156 19.0822,-150 25.0822,-144 31.0822,-144 31.0822,-144 73.0822,-144 73.0822,-144 79.0822,-144 85.0822,-150 85.0822,-156 85.0822,-156 85.0822,-168 85.0822,-168 85.0822,-174 79.0822,-180 73.0822,-180"/>
<text text-anchor="middle" x="52.0822" y="-159.5" font-family="sans" font-size="10.00" fill="#000000">finalBam2</text>
</g>
<!-- 1&#45;&gt;0 -->
<g id="edge4" class="edge">
<title>1&#45;&gt;0</title>
<path fill="none" stroke="#c0c0c0" stroke-width="2" d="M31.0632,-143.6547C11.8527,-124.6475 -11.1437,-94.6135 6.0822,-72 25.2412,-46.8487 113.5781,-30.4534 164.8836,-22.8769"/>
<polygon fill="#c0c0c0" stroke="#c0c0c0" stroke-width="2" points="165.5237,-26.321 174.9254,-21.4366 164.5298,-19.392 165.5237,-26.321"/>
</g>
<!-- 18 -->
<g id="node19" class="node">
<title>18</title>
<path fill="none" stroke="#afd856" stroke-width="2" d="M82.5822,-108C82.5822,-108 27.5822,-108 27.5822,-108 21.5822,-108 15.5822,-102 15.5822,-96 15.5822,-96 15.5822,-84 15.5822,-84 15.5822,-78 21.5822,-72 27.5822,-72 27.5822,-72 82.5822,-72 82.5822,-72 88.5822,-72 94.5822,-78 94.5822,-84 94.5822,-84 94.5822,-96 94.5822,-96 94.5822,-102 88.5822,-108 82.5822,-108"/>
<text text-anchor="middle" x="55.0822" y="-87.5" font-family="sans" font-size="10.00" fill="#000000">bamCoverge</text>
</g>
<!-- 1&#45;&gt;18 -->
<g id="edge24" class="edge">
<title>1&#45;&gt;18</title>
<path fill="none" stroke="#c0c0c0" stroke-width="2" d="M52.8392,-143.8314C53.1601,-136.131 53.5416,-126.9743 53.8982,-118.4166"/>
<polygon fill="#c0c0c0" stroke="#c0c0c0" stroke-width="2" points="57.3955,-118.5503 54.315,-108.4133 50.4016,-118.2589 57.3955,-118.5503"/>
</g>
<!-- 2 -->
<g id="node3" class="node">
<title>2</title>
<path fill="none" stroke="#56d87b" stroke-width="2" d="M239.5822,-252C239.5822,-252 160.5822,-252 160.5822,-252 154.5822,-252 148.5822,-246 148.5822,-240 148.5822,-240 148.5822,-228 148.5822,-228 148.5822,-222 154.5822,-216 160.5822,-216 160.5822,-216 239.5822,-216 239.5822,-216 245.5822,-216 251.5822,-222 251.5822,-228 251.5822,-228 251.5822,-240 251.5822,-240 251.5822,-246 245.5822,-252 239.5822,-252"/>
<text text-anchor="middle" x="200.0822" y="-231.5" font-family="sans" font-size="10.00" fill="#000000">makePairsNSam2</text>
</g>
<!-- 2&#45;&gt;1 -->
<g id="edge7" class="edge">
<title>2&#45;&gt;1</title>
<path fill="none" stroke="#c0c0c0" stroke-width="2" d="M162.7355,-215.8314C141.9984,-205.743 116.1238,-193.1554 94.6104,-182.6894"/>
<polygon fill="#c0c0c0" stroke="#c0c0c0" stroke-width="2" points="95.9005,-179.4248 85.377,-178.1975 92.8382,-185.7195 95.9005,-179.4248"/>
</g>
<!-- 16 -->
<g id="node17" class="node">
<title>16</title>
<path fill="none" stroke="#56d863" stroke-width="2" d="M201.5822,-108C201.5822,-108 124.5822,-108 124.5822,-108 118.5822,-108 112.5822,-102 112.5822,-96 112.5822,-96 112.5822,-84 112.5822,-84 112.5822,-78 118.5822,-72 124.5822,-72 124.5822,-72 201.5822,-72 201.5822,-72 207.5822,-72 213.5822,-78 213.5822,-84 213.5822,-84 213.5822,-96 213.5822,-96 213.5822,-102 207.5822,-108 201.5822,-108"/>
<text text-anchor="middle" x="163.0822" y="-87.5" font-family="sans" font-size="10.00" fill="#000000">hicContacMatrix2</text>
</g>
<!-- 2&#45;&gt;16 -->
<g id="edge22" class="edge">
<title>2&#45;&gt;16</title>
<path fill="none" stroke="#c0c0c0" stroke-width="2" d="M165.9932,-215.9135C152.8614,-207.0032 139.2925,-194.9331 132.0822,-180 122.1402,-159.4094 132.0001,-134.7865 143.1614,-116.5046"/>
<polygon fill="#c0c0c0" stroke="#c0c0c0" stroke-width="2" points="146.1232,-118.3703 148.6641,-108.0846 140.2636,-114.5408 146.1232,-118.3703"/>
</g>
<!-- 17 -->
<g id="node18" class="node">
<title>17</title>
<path fill="none" stroke="#56d892" stroke-width="2" d="M246.5822,-180C246.5822,-180 153.5822,-180 153.5822,-180 147.5822,-180 141.5822,-174 141.5822,-168 141.5822,-168 141.5822,-156 141.5822,-156 141.5822,-150 147.5822,-144 153.5822,-144 153.5822,-144 246.5822,-144 246.5822,-144 252.5822,-144 258.5822,-150 258.5822,-156 258.5822,-156 258.5822,-168 258.5822,-168 258.5822,-174 252.5822,-180 246.5822,-180"/>
<text text-anchor="middle" x="200.0822" y="-159.5" font-family="sans" font-size="10.00" fill="#000000">mcoolContacMatrix2</text>
</g>
<!-- 2&#45;&gt;17 -->
<g id="edge23" class="edge">
<title>2&#45;&gt;17</title>
<path fill="none" stroke="#c0c0c0" stroke-width="2" d="M200.0822,-215.8314C200.0822,-208.131 200.0822,-198.9743 200.0822,-190.4166"/>
<polygon fill="#c0c0c0" stroke="#c0c0c0" stroke-width="2" points="203.5823,-190.4132 200.0822,-180.4133 196.5823,-190.4133 203.5823,-190.4132"/>
</g>
<!-- 20 -->
<g id="node21" class="node">
<title>20</title>
<path fill="none" stroke="#56d8a9" stroke-width="2" d="M335.0822,-180C335.0822,-180 289.0822,-180 289.0822,-180 283.0822,-180 277.0822,-174 277.0822,-168 277.0822,-168 277.0822,-156 277.0822,-156 277.0822,-150 283.0822,-144 289.0822,-144 289.0822,-144 335.0822,-144 335.0822,-144 341.0822,-144 347.0822,-150 347.0822,-156 347.0822,-156 347.0822,-168 347.0822,-168 347.0822,-174 341.0822,-180 335.0822,-180"/>
<text text-anchor="middle" x="312.0822" y="-159.5" font-family="sans" font-size="10.00" fill="#000000">parisDump</text>
</g>
<!-- 2&#45;&gt;20 -->
<g id="edge26" class="edge">
<title>2&#45;&gt;20</title>
<path fill="none" stroke="#c0c0c0" stroke-width="2" d="M228.3445,-215.8314C242.5374,-206.7074 259.9104,-195.539 275.1457,-185.7449"/>
<polygon fill="#c0c0c0" stroke="#c0c0c0" stroke-width="2" points="277.3098,-188.5146 283.8289,-180.1628 273.5244,-182.6263 277.3098,-188.5146"/>
</g>
<!-- 3 -->
<g id="node4" class="node">
<title>3</title>
<path fill="none" stroke="#56d0d8" stroke-width="2" d="M273.5822,-324C273.5822,-324 222.5822,-324 222.5822,-324 216.5822,-324 210.5822,-318 210.5822,-312 210.5822,-312 210.5822,-300 210.5822,-300 210.5822,-294 216.5822,-288 222.5822,-288 222.5822,-288 273.5822,-288 273.5822,-288 279.5822,-288 285.5822,-294 285.5822,-300 285.5822,-300 285.5822,-312 285.5822,-312 285.5822,-318 279.5822,-324 273.5822,-324"/>
<text text-anchor="middle" x="248.0822" y="-303.5" font-family="sans" font-size="10.00" fill="#000000">rmPCRDup2</text>
</g>
<!-- 3&#45;&gt;2 -->
<g id="edge8" class="edge">
<title>3&#45;&gt;2</title>
<path fill="none" stroke="#c0c0c0" stroke-width="2" d="M235.9698,-287.8314C230.5541,-279.7079 224.058,-269.9637 218.09,-261.0118"/>
<polygon fill="#c0c0c0" stroke="#c0c0c0" stroke-width="2" points="220.8169,-258.7923 212.3577,-252.4133 214.9926,-262.6753 220.8169,-258.7923"/>
</g>
<!-- 15 -->
<g id="node16" class="node">
<title>15</title>
<path fill="none" stroke="#d8bc56" stroke-width="2" d="M351.0822,-252C351.0822,-252 321.0822,-252 321.0822,-252 315.0822,-252 309.0822,-246 309.0822,-240 309.0822,-240 309.0822,-228 309.0822,-228 309.0822,-222 315.0822,-216 321.0822,-216 321.0822,-216 351.0822,-216 351.0822,-216 357.0822,-216 363.0822,-222 363.0822,-228 363.0822,-228 363.0822,-240 363.0822,-240 363.0822,-246 357.0822,-252 351.0822,-252"/>
<text text-anchor="middle" x="336.0822" y="-231.5" font-family="sans" font-size="10.00" fill="#000000">LibQC2</text>
</g>
<!-- 3&#45;&gt;15 -->
<g id="edge21" class="edge">
<title>3&#45;&gt;15</title>
<path fill="none" stroke="#c0c0c0" stroke-width="2" d="M270.2883,-287.8314C281.1272,-278.9632 294.3266,-268.1637 306.0499,-258.5718"/>
<polygon fill="#c0c0c0" stroke="#c0c0c0" stroke-width="2" points="308.3599,-261.2041 313.8832,-252.1628 303.9272,-255.7864 308.3599,-261.2041"/>
</g>
<!-- 4 -->
<g id="node5" class="node">
<title>4</title>
<path fill="none" stroke="#56b9d8" stroke-width="2" d="M276.0822,-396C276.0822,-396 220.0822,-396 220.0822,-396 214.0822,-396 208.0822,-390 208.0822,-384 208.0822,-384 208.0822,-372 208.0822,-372 208.0822,-366 214.0822,-360 220.0822,-360 220.0822,-360 276.0822,-360 276.0822,-360 282.0822,-360 288.0822,-366 288.0822,-372 288.0822,-372 288.0822,-384 288.0822,-384 288.0822,-390 282.0822,-396 276.0822,-396"/>
<text text-anchor="middle" x="248.0822" y="-375.5" font-family="sans" font-size="10.00" fill="#000000">sortParisam2</text>
</g>
<!-- 4&#45;&gt;3 -->
<g id="edge9" class="edge">
<title>4&#45;&gt;3</title>
<path fill="none" stroke="#c0c0c0" stroke-width="2" d="M248.0822,-359.8314C248.0822,-352.131 248.0822,-342.9743 248.0822,-334.4166"/>
<polygon fill="#c0c0c0" stroke="#c0c0c0" stroke-width="2" points="251.5823,-334.4132 248.0822,-324.4133 244.5823,-334.4133 251.5823,-334.4132"/>
</g>
<!-- 5 -->
<g id="node6" class="node">
<title>5</title>
<path fill="none" stroke="#d8d356" stroke-width="2" d="M295.5822,-468C295.5822,-468 200.5822,-468 200.5822,-468 194.5822,-468 188.5822,-462 188.5822,-456 188.5822,-456 188.5822,-444 188.5822,-444 188.5822,-438 194.5822,-432 200.5822,-432 200.5822,-432 295.5822,-432 295.5822,-432 301.5822,-432 307.5822,-438 307.5822,-444 307.5822,-444 307.5822,-456 307.5822,-456 307.5822,-462 301.5822,-468 295.5822,-468"/>
<text text-anchor="middle" x="248.0822" y="-447.5" font-family="sans" font-size="10.00" fill="#000000">RecordValidLigation2</text>
</g>
<!-- 5&#45;&gt;4 -->
<g id="edge10" class="edge">
<title>5&#45;&gt;4</title>
<path fill="none" stroke="#c0c0c0" stroke-width="2" d="M248.0822,-431.8314C248.0822,-424.131 248.0822,-414.9743 248.0822,-406.4166"/>
<polygon fill="#c0c0c0" stroke="#c0c0c0" stroke-width="2" points="251.5823,-406.4132 248.0822,-396.4133 244.5823,-406.4133 251.5823,-406.4132"/>
</g>
<!-- 6 -->
<g id="node7" class="node">
<title>6</title>
<path fill="none" stroke="#97d856" stroke-width="2" d="M263.0822,-540C263.0822,-540 233.0822,-540 233.0822,-540 227.0822,-540 221.0822,-534 221.0822,-528 221.0822,-528 221.0822,-516 221.0822,-516 221.0822,-510 227.0822,-504 233.0822,-504 233.0822,-504 263.0822,-504 263.0822,-504 269.0822,-504 275.0822,-510 275.0822,-516 275.0822,-516 275.0822,-528 275.0822,-528 275.0822,-534 269.0822,-540 263.0822,-540"/>
<text text-anchor="middle" x="248.0822" y="-519.5" font-family="sans" font-size="10.00" fill="#000000">bwa2</text>
</g>
<!-- 6&#45;&gt;5 -->
<g id="edge11" class="edge">
<title>6&#45;&gt;5</title>
<path fill="none" stroke="#c0c0c0" stroke-width="2" d="M248.0822,-503.8314C248.0822,-496.131 248.0822,-486.9743 248.0822,-478.4166"/>
<polygon fill="#c0c0c0" stroke="#c0c0c0" stroke-width="2" points="251.5823,-478.4132 248.0822,-468.4133 244.5823,-478.4133 251.5823,-478.4132"/>
</g>
<!-- 7 -->
<g id="node8" class="node">
<title>7</title>
<path fill="none" stroke="#56a2d8" stroke-width="2" d="M227.0822,-612C227.0822,-612 187.0822,-612 187.0822,-612 181.0822,-612 175.0822,-606 175.0822,-600 175.0822,-600 175.0822,-588 175.0822,-588 175.0822,-582 181.0822,-576 187.0822,-576 187.0822,-576 227.0822,-576 227.0822,-576 233.0822,-576 239.0822,-582 239.0822,-588 239.0822,-588 239.0822,-600 239.0822,-600 239.0822,-606 233.0822,-612 227.0822,-612"/>
<text text-anchor="middle" x="207.0822" y="-591.5" font-family="sans" font-size="10.00" fill="#000000">subseqR1</text>
</g>
<!-- 7&#45;&gt;6 -->
<g id="edge13" class="edge">
<title>7&#45;&gt;6</title>
<path fill="none" stroke="#c0c0c0" stroke-width="2" d="M217.4282,-575.8314C222.0059,-567.7925 227.4873,-558.1666 232.541,-549.2918"/>
<polygon fill="#c0c0c0" stroke="#c0c0c0" stroke-width="2" points="235.6899,-550.8351 237.5968,-540.4133 229.607,-547.3712 235.6899,-550.8351"/>
</g>
<!-- 8 -->
<g id="node9" class="node">
<title>8</title>
<path fill="none" stroke="#5673d8" stroke-width="2" d="M287.0822,-684C287.0822,-684 209.0822,-684 209.0822,-684 203.0822,-684 197.0822,-678 197.0822,-672 197.0822,-672 197.0822,-660 197.0822,-660 197.0822,-654 203.0822,-648 209.0822,-648 209.0822,-648 287.0822,-648 287.0822,-648 293.0822,-648 299.0822,-654 299.0822,-660 299.0822,-660 299.0822,-672 299.0822,-672 299.0822,-678 293.0822,-684 287.0822,-684"/>
<text text-anchor="middle" x="248.0822" y="-663.5" font-family="sans" font-size="10.00" fill="#000000">unionReadNames</text>
</g>
<!-- 8&#45;&gt;7 -->
<g id="edge14" class="edge">
<title>8&#45;&gt;7</title>
<path fill="none" stroke="#c0c0c0" stroke-width="2" d="M237.7362,-647.8314C233.1585,-639.7925 227.677,-630.1666 222.6233,-621.2918"/>
<polygon fill="#c0c0c0" stroke="#c0c0c0" stroke-width="2" points="225.5574,-619.3712 217.5675,-612.4133 219.4745,-622.8351 225.5574,-619.3712"/>
</g>
<!-- 14 -->
<g id="node15" class="node">
<title>14</title>
<path fill="none" stroke="#568ad8" stroke-width="2" d="M309.0822,-612C309.0822,-612 269.0822,-612 269.0822,-612 263.0822,-612 257.0822,-606 257.0822,-600 257.0822,-600 257.0822,-588 257.0822,-588 257.0822,-582 263.0822,-576 269.0822,-576 269.0822,-576 309.0822,-576 309.0822,-576 315.0822,-576 321.0822,-582 321.0822,-588 321.0822,-588 321.0822,-600 321.0822,-600 321.0822,-606 315.0822,-612 309.0822,-612"/>
<text text-anchor="middle" x="289.0822" y="-591.5" font-family="sans" font-size="10.00" fill="#000000">subseqR2</text>
</g>
<!-- 8&#45;&gt;14 -->
<g id="edge20" class="edge">
<title>8&#45;&gt;14</title>
<path fill="none" stroke="#c0c0c0" stroke-width="2" d="M258.4282,-647.8314C263.0059,-639.7925 268.4873,-630.1666 273.541,-621.2918"/>
<polygon fill="#c0c0c0" stroke="#c0c0c0" stroke-width="2" points="276.6899,-622.8351 278.5968,-612.4133 270.607,-619.3712 276.6899,-622.8351"/>
</g>
<!-- 9 -->
<g id="node10" class="node">
<title>9</title>
<path fill="none" stroke="#61d856" stroke-width="2" d="M281.5822,-756C281.5822,-756 214.5822,-756 214.5822,-756 208.5822,-756 202.5822,-750 202.5822,-744 202.5822,-744 202.5822,-732 202.5822,-732 202.5822,-726 208.5822,-720 214.5822,-720 214.5822,-720 281.5822,-720 281.5822,-720 287.5822,-720 293.5822,-726 293.5822,-732 293.5822,-732 293.5822,-744 293.5822,-744 293.5822,-750 287.5822,-756 281.5822,-756"/>
<text text-anchor="middle" x="248.0822" y="-735.5" font-family="sans" font-size="10.00" fill="#000000">getReadNames</text>
</g>
<!-- 9&#45;&gt;8 -->
<g id="edge15" class="edge">
<title>9&#45;&gt;8</title>
<path fill="none" stroke="#c0c0c0" stroke-width="2" d="M248.0822,-719.8314C248.0822,-712.131 248.0822,-702.9743 248.0822,-694.4166"/>
<polygon fill="#c0c0c0" stroke="#c0c0c0" stroke-width="2" points="251.5823,-694.4132 248.0822,-684.4133 244.5823,-694.4133 251.5823,-694.4132"/>
</g>
<!-- 10 -->
<g id="node11" class="node">
<title>10</title>
<path fill="none" stroke="#d86e56" stroke-width="2" d="M129.0822,-828C129.0822,-828 73.0822,-828 73.0822,-828 67.0822,-828 61.0822,-822 61.0822,-816 61.0822,-816 61.0822,-804 61.0822,-804 61.0822,-798 67.0822,-792 73.0822,-792 73.0822,-792 129.0822,-792 129.0822,-792 135.0822,-792 141.0822,-798 141.0822,-804 141.0822,-804 141.0822,-816 141.0822,-816 141.0822,-822 135.0822,-828 129.0822,-828"/>
<text text-anchor="middle" x="101.0822" y="-807.5" font-family="sans" font-size="10.00" fill="#000000">KMCfilterR1T</text>
</g>
<!-- 10&#45;&gt;9 -->
<g id="edge16" class="edge">
<title>10&#45;&gt;9</title>
<path fill="none" stroke="#c0c0c0" stroke-width="2" d="M138.1765,-791.8314C157.5747,-782.3302 181.4992,-770.6121 202.0683,-760.5374"/>
<polygon fill="#c0c0c0" stroke="#c0c0c0" stroke-width="2" points="203.8135,-763.5799 211.2546,-756.038 200.7344,-757.2935 203.8135,-763.5799"/>
</g>
<!-- 11 -->
<g id="node12" class="node">
<title>11</title>
<path fill="none" stroke="#d85656" stroke-width="2" d="M227.0822,-828C227.0822,-828 171.0822,-828 171.0822,-828 165.0822,-828 159.0822,-822 159.0822,-816 159.0822,-816 159.0822,-804 159.0822,-804 159.0822,-798 165.0822,-792 171.0822,-792 171.0822,-792 227.0822,-792 227.0822,-792 233.0822,-792 239.0822,-798 239.0822,-804 239.0822,-804 239.0822,-816 239.0822,-816 239.0822,-822 233.0822,-828 227.0822,-828"/>
<text text-anchor="middle" x="199.0822" y="-807.5" font-family="sans" font-size="10.00" fill="#000000">KMCfilterR1C</text>
</g>
<!-- 11&#45;&gt;9 -->
<g id="edge17" class="edge">
<title>11&#45;&gt;9</title>
<path fill="none" stroke="#c0c0c0" stroke-width="2" d="M211.447,-791.8314C217.033,-783.6232 223.7451,-773.7606 229.8894,-764.7323"/>
<polygon fill="#c0c0c0" stroke="#c0c0c0" stroke-width="2" points="232.8181,-766.6496 235.5509,-756.4133 227.0311,-762.7112 232.8181,-766.6496"/>
</g>
<!-- 12 -->
<g id="node13" class="node">
<title>12</title>
<path fill="none" stroke="#d8a456" stroke-width="2" d="M325.0822,-828C325.0822,-828 269.0822,-828 269.0822,-828 263.0822,-828 257.0822,-822 257.0822,-816 257.0822,-816 257.0822,-804 257.0822,-804 257.0822,-798 263.0822,-792 269.0822,-792 269.0822,-792 325.0822,-792 325.0822,-792 331.0822,-792 337.0822,-798 337.0822,-804 337.0822,-804 337.0822,-816 337.0822,-816 337.0822,-822 331.0822,-828 325.0822,-828"/>
<text text-anchor="middle" x="297.0822" y="-807.5" font-family="sans" font-size="10.00" fill="#000000">KMCfilterR2T</text>
</g>
<!-- 12&#45;&gt;9 -->
<g id="edge19" class="edge">
<title>12&#45;&gt;9</title>
<path fill="none" stroke="#c0c0c0" stroke-width="2" d="M284.7174,-791.8314C279.1313,-783.6232 272.4192,-773.7606 266.275,-764.7323"/>
<polygon fill="#c0c0c0" stroke="#c0c0c0" stroke-width="2" points="269.1332,-762.7112 260.6134,-756.4133 263.3462,-766.6496 269.1332,-762.7112"/>
</g>
<!-- 13 -->
<g id="node14" class="node">
<title>13</title>
<path fill="none" stroke="#d88556" stroke-width="2" d="M423.0822,-828C423.0822,-828 367.0822,-828 367.0822,-828 361.0822,-828 355.0822,-822 355.0822,-816 355.0822,-816 355.0822,-804 355.0822,-804 355.0822,-798 361.0822,-792 367.0822,-792 367.0822,-792 423.0822,-792 423.0822,-792 429.0822,-792 435.0822,-798 435.0822,-804 435.0822,-804 435.0822,-816 435.0822,-816 435.0822,-822 429.0822,-828 423.0822,-828"/>
<text text-anchor="middle" x="395.0822" y="-807.5" font-family="sans" font-size="10.00" fill="#000000">KMCfilterR2C</text>
</g>
<!-- 13&#45;&gt;9 -->
<g id="edge18" class="edge">
<title>13&#45;&gt;9</title>
<path fill="none" stroke="#c0c0c0" stroke-width="2" d="M357.9879,-791.8314C338.5896,-782.3302 314.6652,-770.6121 294.096,-760.5374"/>
<polygon fill="#c0c0c0" stroke="#c0c0c0" stroke-width="2" points="295.4299,-757.2935 284.9097,-756.038 292.3508,-763.5799 295.4299,-757.2935"/>
</g>
<!-- 14&#45;&gt;6 -->
<g id="edge12" class="edge">
<title>14&#45;&gt;6</title>
<path fill="none" stroke="#c0c0c0" stroke-width="2" d="M278.7362,-575.8314C274.1585,-567.7925 268.677,-558.1666 263.6233,-549.2918"/>
<polygon fill="#c0c0c0" stroke="#c0c0c0" stroke-width="2" points="266.5574,-547.3712 258.5675,-540.4133 260.4745,-550.8351 266.5574,-547.3712"/>
</g>
<!-- 15&#45;&gt;0 -->
<g id="edge5" class="edge">
<title>15&#45;&gt;0</title>
<path fill="none" stroke="#c0c0c0" stroke-width="2" d="M344.884,-215.7501C359.1526,-183.2191 382.6294,-114.6329 350.0822,-72 336.3028,-53.9507 278.1344,-36.5976 238.9569,-26.6309"/>
<polygon fill="#c0c0c0" stroke="#c0c0c0" stroke-width="2" points="239.7488,-23.2213 229.1993,-24.2005 238.0569,-30.0138 239.7488,-23.2213"/>
</g>
<!-- 16&#45;&gt;0 -->
<g id="edge3" class="edge">
<title>16&#45;&gt;0</title>
<path fill="none" stroke="#c0c0c0" stroke-width="2" d="M172.9235,-71.8314C177.2779,-63.7925 182.492,-54.1666 187.2991,-45.2918"/>
<polygon fill="#c0c0c0" stroke="#c0c0c0" stroke-width="2" points="190.423,-46.8732 192.1083,-36.4133 184.2679,-43.5392 190.423,-46.8732"/>
</g>
<!-- 17&#45;&gt;0 -->
<g id="edge1" class="edge">
<title>17&#45;&gt;0</title>
<path fill="none" stroke="#c0c0c0" stroke-width="2" d="M209.673,-143.5602C214.4321,-133.373 219.6691,-120.3186 222.0822,-108 225.1579,-92.2984 224.905,-87.749 222.0822,-72 220.4849,-63.0882 217.5148,-53.7238 214.343,-45.3422"/>
<polygon fill="#c0c0c0" stroke="#c0c0c0" stroke-width="2" points="217.5795,-44.0093 210.5973,-36.0406 211.0862,-46.6241 217.5795,-44.0093"/>
</g>
<!-- 18&#45;&gt;0 -->
<g id="edge6" class="edge">
<title>18&#45;&gt;0</title>
<path fill="none" stroke="#c0c0c0" stroke-width="2" d="M92.1765,-71.8314C114.652,-60.823 143.2035,-46.8385 165.5725,-35.8823"/>
<polygon fill="#c0c0c0" stroke="#c0c0c0" stroke-width="2" points="167.3038,-38.9316 174.7449,-31.3897 164.2247,-32.6452 167.3038,-38.9316"/>
</g>
<!-- 19 -->
<g id="node20" class="node">
<title>19</title>
<path fill="none" stroke="#56d8c9" stroke-width="2" d="M329.5822,-108C329.5822,-108 288.5822,-108 288.5822,-108 282.5822,-108 276.5822,-102 276.5822,-96 276.5822,-96 276.5822,-84 276.5822,-84 276.5822,-78 282.5822,-72 288.5822,-72 288.5822,-72 329.5822,-72 329.5822,-72 335.5822,-72 341.5822,-78 341.5822,-84 341.5822,-84 341.5822,-96 341.5822,-96 341.5822,-102 335.5822,-108 329.5822,-108"/>
<text text-anchor="middle" x="309.0822" y="-87.5" font-family="sans" font-size="10.00" fill="#000000">plotCircos</text>
</g>
<!-- 19&#45;&gt;0 -->
<g id="edge2" class="edge">
<title>19&#45;&gt;0</title>
<path fill="none" stroke="#c0c0c0" stroke-width="2" d="M282.0816,-71.8314C268.6491,-62.7927 252.2349,-51.7476 237.7783,-42.0198"/>
<polygon fill="#c0c0c0" stroke="#c0c0c0" stroke-width="2" points="239.3247,-38.8418 229.0742,-36.1628 235.4168,-44.6494 239.3247,-38.8418"/>
</g>
<!-- 20&#45;&gt;19 -->
<g id="edge25" class="edge">
<title>20&#45;&gt;19</title>
<path fill="none" stroke="#c0c0c0" stroke-width="2" d="M311.3252,-143.8314C311.0043,-136.131 310.6228,-126.9743 310.2662,-118.4166"/>
<polygon fill="#c0c0c0" stroke="#c0c0c0" stroke-width="2" points="313.7628,-118.2589 309.8494,-108.4133 306.7688,-118.5503 313.7628,-118.2589"/>
</g>
</g>
</svg>
