<?xml version="1.0" encoding="UTF-8" standalone="no"?>
<!DOCTYPE svg PUBLIC "-//W3C//DTD SVG 1.1//EN"
 "http://www.w3.org/Graphics/SVG/1.1/DTD/svg11.dtd">
<!-- Generated by graphviz version 2.40.1 (0)
 -->
<!-- Title: snakemake_dag Pages: 1 -->
<svg width="415pt" height="836pt"
 viewBox="0.00 0.00 414.71 836.00" xmlns="http://www.w3.org/2000/svg" xmlns:xlink="http://www.w3.org/1999/xlink">
<g id="graph0" class="graph" transform="scale(1 1) rotate(0) translate(4 832)">
<title>snakemake_dag</title>
<polygon fill="#ffffff" stroke="transparent" points="-4,4 -4,-832 410.711,-832 410.711,4 -4,4"/>
<!-- 0 -->
<g id="node1" class="node">
<title>0</title>
<path fill="none" stroke="#b6d856" stroke-width="2" d="M176.711,-36C176.711,-36 146.711,-36 146.711,-36 140.711,-36 134.711,-30 134.711,-24 134.711,-24 134.711,-12 134.711,-12 134.711,-6 140.711,0 146.711,0 146.711,0 176.711,0 176.711,0 182.711,0 188.711,-6 188.711,-12 188.711,-12 188.711,-24 188.711,-24 188.711,-30 182.711,-36 176.711,-36"/>
<text text-anchor="middle" x="161.711" y="-15.5" font-family="sans" font-size="10.00" fill="#000000">all</text>
</g>
<!-- 1 -->
<g id="node2" class="node">
<title>1</title>
<path fill="none" stroke="#80d856" stroke-width="2" d="M74.711,-180C74.711,-180 32.711,-180 32.711,-180 26.711,-180 20.711,-174 20.711,-168 20.711,-168 20.711,-156 20.711,-156 20.711,-150 26.711,-144 32.711,-144 32.711,-144 74.711,-144 74.711,-144 80.711,-144 86.711,-150 86.711,-156 86.711,-156 86.711,-168 86.711,-168 86.711,-174 80.711,-180 74.711,-180"/>
<text text-anchor="middle" x="53.711" y="-159.5" font-family="sans" font-size="10.00" fill="#000000">finalBam2</text>
</g>
<!-- 1&#45;&gt;0 -->
<g id="edge5" class="edge">
<title>1&#45;&gt;0</title>
<path fill="none" stroke="#c0c0c0" stroke-width="2" d="M32.3181,-143.9601C12.7127,-125.2019 -10.9289,-95.3685 5.711,-72 19.7632,-52.2654 83.2899,-35.0456 124.8175,-25.6257"/>
<polygon fill="#c0c0c0" stroke="#c0c0c0" stroke-width="2" points="125.5951,-29.0384 134.601,-23.4576 124.0805,-22.2042 125.5951,-29.0384"/>
</g>
<!-- 16 -->
<g id="node17" class="node">
<title>16</title>
<path fill="none" stroke="#56d882" stroke-width="2" d="M80.711,-108C80.711,-108 26.711,-108 26.711,-108 20.711,-108 14.711,-102 14.711,-96 14.711,-96 14.711,-84 14.711,-84 14.711,-78 20.711,-72 26.711,-72 26.711,-72 80.711,-72 80.711,-72 86.711,-72 92.711,-78 92.711,-84 92.711,-84 92.711,-96 92.711,-96 92.711,-102 86.711,-108 80.711,-108"/>
<text text-anchor="middle" x="53.711" y="-87.5" font-family="sans" font-size="10.00" fill="#000000">libComXQC2</text>
</g>
<!-- 1&#45;&gt;16 -->
<g id="edge21" class="edge">
<title>1&#45;&gt;16</title>
<path fill="none" stroke="#c0c0c0" stroke-width="2" d="M53.711,-143.8314C53.711,-136.131 53.711,-126.9743 53.711,-118.4166"/>
<polygon fill="#c0c0c0" stroke="#c0c0c0" stroke-width="2" points="57.2111,-118.4132 53.711,-108.4133 50.2111,-118.4133 57.2111,-118.4132"/>
</g>
<!-- 2 -->
<g id="node3" class="node">
<title>2</title>
<path fill="none" stroke="#56d89a" stroke-width="2" d="M211.211,-252C211.211,-252 132.211,-252 132.211,-252 126.211,-252 120.211,-246 120.211,-240 120.211,-240 120.211,-228 120.211,-228 120.211,-222 126.211,-216 132.211,-216 132.211,-216 211.211,-216 211.211,-216 217.211,-216 223.211,-222 223.211,-228 223.211,-228 223.211,-240 223.211,-240 223.211,-246 217.211,-252 211.211,-252"/>
<text text-anchor="middle" x="171.711" y="-231.5" font-family="sans" font-size="10.00" fill="#000000">makePairsNSam2</text>
</g>
<!-- 2&#45;&gt;1 -->
<g id="edge6" class="edge">
<title>2&#45;&gt;1</title>
<path fill="none" stroke="#c0c0c0" stroke-width="2" d="M141.9346,-215.8314C126.8416,-206.6221 108.3353,-195.3301 92.1767,-185.4706"/>
<polygon fill="#c0c0c0" stroke="#c0c0c0" stroke-width="2" points="93.8373,-182.3838 83.4778,-180.1628 90.1912,-188.3593 93.8373,-182.3838"/>
</g>
<!-- 17 -->
<g id="node18" class="node">
<title>17</title>
<path fill="none" stroke="#56d863" stroke-width="2" d="M200.211,-108C200.211,-108 123.211,-108 123.211,-108 117.211,-108 111.211,-102 111.211,-96 111.211,-96 111.211,-84 111.211,-84 111.211,-78 117.211,-72 123.211,-72 123.211,-72 200.211,-72 200.211,-72 206.211,-72 212.211,-78 212.211,-84 212.211,-84 212.211,-96 212.211,-96 212.211,-102 206.211,-108 200.211,-108"/>
<text text-anchor="middle" x="161.711" y="-87.5" font-family="sans" font-size="10.00" fill="#000000">hicContacMatrix2</text>
</g>
<!-- 2&#45;&gt;17 -->
<g id="edge22" class="edge">
<title>2&#45;&gt;17</title>
<path fill="none" stroke="#c0c0c0" stroke-width="2" d="M163.6193,-215.9165C159.4548,-205.6179 154.8192,-192.3436 152.711,-180 149.1915,-159.3939 151.7662,-135.8811 155.0487,-118.057"/>
<polygon fill="#c0c0c0" stroke="#c0c0c0" stroke-width="2" points="158.525,-118.524 157.0788,-108.0284 151.6642,-117.1351 158.525,-118.524"/>
</g>
<!-- 18 -->
<g id="node19" class="node">
<title>18</title>
<path fill="none" stroke="#56d8b9" stroke-width="2" d="M267.211,-180C267.211,-180 174.211,-180 174.211,-180 168.211,-180 162.211,-174 162.211,-168 162.211,-168 162.211,-156 162.211,-156 162.211,-150 168.211,-144 174.211,-144 174.211,-144 267.211,-144 267.211,-144 273.211,-144 279.211,-150 279.211,-156 279.211,-156 279.211,-168 279.211,-168 279.211,-174 273.211,-180 267.211,-180"/>
<text text-anchor="middle" x="220.711" y="-159.5" font-family="sans" font-size="10.00" fill="#000000">mcoolContacMatrix2</text>
</g>
<!-- 2&#45;&gt;18 -->
<g id="edge23" class="edge">
<title>2&#45;&gt;18</title>
<path fill="none" stroke="#c0c0c0" stroke-width="2" d="M184.0757,-215.8314C189.6618,-207.6232 196.3739,-197.7606 202.5181,-188.7323"/>
<polygon fill="#c0c0c0" stroke="#c0c0c0" stroke-width="2" points="205.4469,-190.6496 208.1797,-180.4133 199.6599,-186.7112 205.4469,-190.6496"/>
</g>
<!-- 3 -->
<g id="node4" class="node">
<title>3</title>
<path fill="none" stroke="#56d8d0" stroke-width="2" d="M245.211,-324C245.211,-324 194.211,-324 194.211,-324 188.211,-324 182.211,-318 182.211,-312 182.211,-312 182.211,-300 182.211,-300 182.211,-294 188.211,-288 194.211,-288 194.211,-288 245.211,-288 245.211,-288 251.211,-288 257.211,-294 257.211,-300 257.211,-300 257.211,-312 257.211,-312 257.211,-318 251.211,-324 245.211,-324"/>
<text text-anchor="middle" x="219.711" y="-303.5" font-family="sans" font-size="10.00" fill="#000000">rmPCRDup2</text>
</g>
<!-- 3&#45;&gt;2 -->
<g id="edge7" class="edge">
<title>3&#45;&gt;2</title>
<path fill="none" stroke="#c0c0c0" stroke-width="2" d="M207.5985,-287.8314C202.1829,-279.7079 195.6868,-269.9637 189.7188,-261.0118"/>
<polygon fill="#c0c0c0" stroke="#c0c0c0" stroke-width="2" points="192.4457,-258.7923 183.9865,-252.4133 186.6213,-262.6753 192.4457,-258.7923"/>
</g>
<!-- 15 -->
<g id="node16" class="node">
<title>15</title>
<path fill="none" stroke="#d8c356" stroke-width="2" d="M302.711,-252C302.711,-252 272.711,-252 272.711,-252 266.711,-252 260.711,-246 260.711,-240 260.711,-240 260.711,-228 260.711,-228 260.711,-222 266.711,-216 272.711,-216 272.711,-216 302.711,-216 302.711,-216 308.711,-216 314.711,-222 314.711,-228 314.711,-228 314.711,-240 314.711,-240 314.711,-246 308.711,-252 302.711,-252"/>
<text text-anchor="middle" x="287.711" y="-231.5" font-family="sans" font-size="10.00" fill="#000000">LibQC2</text>
</g>
<!-- 3&#45;&gt;15 -->
<g id="edge20" class="edge">
<title>3&#45;&gt;15</title>
<path fill="none" stroke="#c0c0c0" stroke-width="2" d="M236.8702,-287.8314C244.8621,-279.3694 254.5148,-269.1489 263.2526,-259.8971"/>
<polygon fill="#c0c0c0" stroke="#c0c0c0" stroke-width="2" points="265.9989,-262.0866 270.3206,-252.4133 260.9098,-257.2802 265.9989,-262.0866"/>
</g>
<!-- 4 -->
<g id="node5" class="node">
<title>4</title>
<path fill="none" stroke="#56c1d8" stroke-width="2" d="M247.711,-396C247.711,-396 191.711,-396 191.711,-396 185.711,-396 179.711,-390 179.711,-384 179.711,-384 179.711,-372 179.711,-372 179.711,-366 185.711,-360 191.711,-360 191.711,-360 247.711,-360 247.711,-360 253.711,-360 259.711,-366 259.711,-372 259.711,-372 259.711,-384 259.711,-384 259.711,-390 253.711,-396 247.711,-396"/>
<text text-anchor="middle" x="219.711" y="-375.5" font-family="sans" font-size="10.00" fill="#000000">sortParisam2</text>
</g>
<!-- 4&#45;&gt;3 -->
<g id="edge8" class="edge">
<title>4&#45;&gt;3</title>
<path fill="none" stroke="#c0c0c0" stroke-width="2" d="M219.711,-359.8314C219.711,-352.131 219.711,-342.9743 219.711,-334.4166"/>
<polygon fill="#c0c0c0" stroke="#c0c0c0" stroke-width="2" points="223.2111,-334.4132 219.711,-324.4133 216.2111,-334.4133 223.2111,-334.4132"/>
</g>
<!-- 5 -->
<g id="node6" class="node">
<title>5</title>
<path fill="none" stroke="#ced856" stroke-width="2" d="M267.211,-468C267.211,-468 172.211,-468 172.211,-468 166.211,-468 160.211,-462 160.211,-456 160.211,-456 160.211,-444 160.211,-444 160.211,-438 166.211,-432 172.211,-432 172.211,-432 267.211,-432 267.211,-432 273.211,-432 279.211,-438 279.211,-444 279.211,-444 279.211,-456 279.211,-456 279.211,-462 273.211,-468 267.211,-468"/>
<text text-anchor="middle" x="219.711" y="-447.5" font-family="sans" font-size="10.00" fill="#000000">RecordValidLigation2</text>
</g>
<!-- 5&#45;&gt;4 -->
<g id="edge9" class="edge">
<title>5&#45;&gt;4</title>
<path fill="none" stroke="#c0c0c0" stroke-width="2" d="M219.711,-431.8314C219.711,-424.131 219.711,-414.9743 219.711,-406.4166"/>
<polygon fill="#c0c0c0" stroke="#c0c0c0" stroke-width="2" points="223.2111,-406.4132 219.711,-396.4133 216.2111,-406.4133 223.2111,-406.4132"/>
</g>
<!-- 6 -->
<g id="node7" class="node">
<title>6</title>
<path fill="none" stroke="#97d856" stroke-width="2" d="M234.711,-540C234.711,-540 204.711,-540 204.711,-540 198.711,-540 192.711,-534 192.711,-528 192.711,-528 192.711,-516 192.711,-516 192.711,-510 198.711,-504 204.711,-504 204.711,-504 234.711,-504 234.711,-504 240.711,-504 246.711,-510 246.711,-516 246.711,-516 246.711,-528 246.711,-528 246.711,-534 240.711,-540 234.711,-540"/>
<text text-anchor="middle" x="219.711" y="-519.5" font-family="sans" font-size="10.00" fill="#000000">bwa2</text>
</g>
<!-- 6&#45;&gt;5 -->
<g id="edge10" class="edge">
<title>6&#45;&gt;5</title>
<path fill="none" stroke="#c0c0c0" stroke-width="2" d="M219.711,-503.8314C219.711,-496.131 219.711,-486.9743 219.711,-478.4166"/>
<polygon fill="#c0c0c0" stroke="#c0c0c0" stroke-width="2" points="223.2111,-478.4132 219.711,-468.4133 216.2111,-478.4133 223.2111,-478.4132"/>
</g>
<!-- 7 -->
<g id="node8" class="node">
<title>7</title>
<path fill="none" stroke="#56a9d8" stroke-width="2" d="M198.711,-612C198.711,-612 158.711,-612 158.711,-612 152.711,-612 146.711,-606 146.711,-600 146.711,-600 146.711,-588 146.711,-588 146.711,-582 152.711,-576 158.711,-576 158.711,-576 198.711,-576 198.711,-576 204.711,-576 210.711,-582 210.711,-588 210.711,-588 210.711,-600 210.711,-600 210.711,-606 204.711,-612 198.711,-612"/>
<text text-anchor="middle" x="178.711" y="-591.5" font-family="sans" font-size="10.00" fill="#000000">subseqR1</text>
</g>
<!-- 7&#45;&gt;6 -->
<g id="edge11" class="edge">
<title>7&#45;&gt;6</title>
<path fill="none" stroke="#c0c0c0" stroke-width="2" d="M189.057,-575.8314C193.6347,-567.7925 199.1161,-558.1666 204.1698,-549.2918"/>
<polygon fill="#c0c0c0" stroke="#c0c0c0" stroke-width="2" points="207.3186,-550.8351 209.2256,-540.4133 201.2357,-547.3712 207.3186,-550.8351"/>
</g>
<!-- 8 -->
<g id="node9" class="node">
<title>8</title>
<path fill="none" stroke="#5673d8" stroke-width="2" d="M258.711,-684C258.711,-684 180.711,-684 180.711,-684 174.711,-684 168.711,-678 168.711,-672 168.711,-672 168.711,-660 168.711,-660 168.711,-654 174.711,-648 180.711,-648 180.711,-648 258.711,-648 258.711,-648 264.711,-648 270.711,-654 270.711,-660 270.711,-660 270.711,-672 270.711,-672 270.711,-678 264.711,-684 258.711,-684"/>
<text text-anchor="middle" x="219.711" y="-663.5" font-family="sans" font-size="10.00" fill="#000000">unionReadNames</text>
</g>
<!-- 8&#45;&gt;7 -->
<g id="edge13" class="edge">
<title>8&#45;&gt;7</title>
<path fill="none" stroke="#c0c0c0" stroke-width="2" d="M209.3649,-647.8314C204.7872,-639.7925 199.3058,-630.1666 194.2521,-621.2918"/>
<polygon fill="#c0c0c0" stroke="#c0c0c0" stroke-width="2" points="197.1862,-619.3712 189.1963,-612.4133 191.1033,-622.8351 197.1862,-619.3712"/>
</g>
<!-- 14 -->
<g id="node15" class="node">
<title>14</title>
<path fill="none" stroke="#568ad8" stroke-width="2" d="M280.711,-612C280.711,-612 240.711,-612 240.711,-612 234.711,-612 228.711,-606 228.711,-600 228.711,-600 228.711,-588 228.711,-588 228.711,-582 234.711,-576 240.711,-576 240.711,-576 280.711,-576 280.711,-576 286.711,-576 292.711,-582 292.711,-588 292.711,-588 292.711,-600 292.711,-600 292.711,-606 286.711,-612 280.711,-612"/>
<text text-anchor="middle" x="260.711" y="-591.5" font-family="sans" font-size="10.00" fill="#000000">subseqR2</text>
</g>
<!-- 8&#45;&gt;14 -->
<g id="edge19" class="edge">
<title>8&#45;&gt;14</title>
<path fill="none" stroke="#c0c0c0" stroke-width="2" d="M230.057,-647.8314C234.6347,-639.7925 240.1161,-630.1666 245.1698,-621.2918"/>
<polygon fill="#c0c0c0" stroke="#c0c0c0" stroke-width="2" points="248.3186,-622.8351 250.2256,-612.4133 242.2357,-619.3712 248.3186,-622.8351"/>
</g>
<!-- 9 -->
<g id="node10" class="node">
<title>9</title>
<path fill="none" stroke="#61d856" stroke-width="2" d="M253.211,-756C253.211,-756 186.211,-756 186.211,-756 180.211,-756 174.211,-750 174.211,-744 174.211,-744 174.211,-732 174.211,-732 174.211,-726 180.211,-720 186.211,-720 186.211,-720 253.211,-720 253.211,-720 259.211,-720 265.211,-726 265.211,-732 265.211,-732 265.211,-744 265.211,-744 265.211,-750 259.211,-756 253.211,-756"/>
<text text-anchor="middle" x="219.711" y="-735.5" font-family="sans" font-size="10.00" fill="#000000">getReadNames</text>
</g>
<!-- 9&#45;&gt;8 -->
<g id="edge14" class="edge">
<title>9&#45;&gt;8</title>
<path fill="none" stroke="#c0c0c0" stroke-width="2" d="M219.711,-719.8314C219.711,-712.131 219.711,-702.9743 219.711,-694.4166"/>
<polygon fill="#c0c0c0" stroke="#c0c0c0" stroke-width="2" points="223.2111,-694.4132 219.711,-684.4133 216.2111,-694.4133 223.2111,-694.4132"/>
</g>
<!-- 10 -->
<g id="node11" class="node">
<title>10</title>
<path fill="none" stroke="#d87556" stroke-width="2" d="M100.711,-828C100.711,-828 44.711,-828 44.711,-828 38.711,-828 32.711,-822 32.711,-816 32.711,-816 32.711,-804 32.711,-804 32.711,-798 38.711,-792 44.711,-792 44.711,-792 100.711,-792 100.711,-792 106.711,-792 112.711,-798 112.711,-804 112.711,-804 112.711,-816 112.711,-816 112.711,-822 106.711,-828 100.711,-828"/>
<text text-anchor="middle" x="72.711" y="-807.5" font-family="sans" font-size="10.00" fill="#000000">KMCfilterR1T</text>
</g>
<!-- 10&#45;&gt;9 -->
<g id="edge18" class="edge">
<title>10&#45;&gt;9</title>
<path fill="none" stroke="#c0c0c0" stroke-width="2" d="M109.8053,-791.8314C129.2035,-782.3302 153.128,-770.6121 173.6971,-760.5374"/>
<polygon fill="#c0c0c0" stroke="#c0c0c0" stroke-width="2" points="175.4423,-763.5799 182.8834,-756.038 172.3632,-757.2935 175.4423,-763.5799"/>
</g>
<!-- 11 -->
<g id="node12" class="node">
<title>11</title>
<path fill="none" stroke="#d85656" stroke-width="2" d="M198.711,-828C198.711,-828 142.711,-828 142.711,-828 136.711,-828 130.711,-822 130.711,-816 130.711,-816 130.711,-804 130.711,-804 130.711,-798 136.711,-792 142.711,-792 142.711,-792 198.711,-792 198.711,-792 204.711,-792 210.711,-798 210.711,-804 210.711,-804 210.711,-816 210.711,-816 210.711,-822 204.711,-828 198.711,-828"/>
<text text-anchor="middle" x="170.711" y="-807.5" font-family="sans" font-size="10.00" fill="#000000">KMCfilterR1C</text>
</g>
<!-- 11&#45;&gt;9 -->
<g id="edge15" class="edge">
<title>11&#45;&gt;9</title>
<path fill="none" stroke="#c0c0c0" stroke-width="2" d="M183.0757,-791.8314C188.6618,-783.6232 195.3739,-773.7606 201.5181,-764.7323"/>
<polygon fill="#c0c0c0" stroke="#c0c0c0" stroke-width="2" points="204.4469,-766.6496 207.1797,-756.4133 198.6599,-762.7112 204.4469,-766.6496"/>
</g>
<!-- 12 -->
<g id="node13" class="node">
<title>12</title>
<path fill="none" stroke="#d8ac56" stroke-width="2" d="M296.711,-828C296.711,-828 240.711,-828 240.711,-828 234.711,-828 228.711,-822 228.711,-816 228.711,-816 228.711,-804 228.711,-804 228.711,-798 234.711,-792 240.711,-792 240.711,-792 296.711,-792 296.711,-792 302.711,-792 308.711,-798 308.711,-804 308.711,-804 308.711,-816 308.711,-816 308.711,-822 302.711,-828 296.711,-828"/>
<text text-anchor="middle" x="268.711" y="-807.5" font-family="sans" font-size="10.00" fill="#000000">KMCfilterR2T</text>
</g>
<!-- 12&#45;&gt;9 -->
<g id="edge17" class="edge">
<title>12&#45;&gt;9</title>
<path fill="none" stroke="#c0c0c0" stroke-width="2" d="M256.3462,-791.8314C250.7601,-783.6232 244.048,-773.7606 237.9038,-764.7323"/>
<polygon fill="#c0c0c0" stroke="#c0c0c0" stroke-width="2" points="240.762,-762.7112 232.2422,-756.4133 234.975,-766.6496 240.762,-762.7112"/>
</g>
<!-- 13 -->
<g id="node14" class="node">
<title>13</title>
<path fill="none" stroke="#d88d56" stroke-width="2" d="M394.711,-828C394.711,-828 338.711,-828 338.711,-828 332.711,-828 326.711,-822 326.711,-816 326.711,-816 326.711,-804 326.711,-804 326.711,-798 332.711,-792 338.711,-792 338.711,-792 394.711,-792 394.711,-792 400.711,-792 406.711,-798 406.711,-804 406.711,-804 406.711,-816 406.711,-816 406.711,-822 400.711,-828 394.711,-828"/>
<text text-anchor="middle" x="366.711" y="-807.5" font-family="sans" font-size="10.00" fill="#000000">KMCfilterR2C</text>
</g>
<!-- 13&#45;&gt;9 -->
<g id="edge16" class="edge">
<title>13&#45;&gt;9</title>
<path fill="none" stroke="#c0c0c0" stroke-width="2" d="M329.6166,-791.8314C310.2184,-782.3302 286.294,-770.6121 265.7248,-760.5374"/>
<polygon fill="#c0c0c0" stroke="#c0c0c0" stroke-width="2" points="267.0587,-757.2935 256.5385,-756.038 263.9796,-763.5799 267.0587,-757.2935"/>
</g>
<!-- 14&#45;&gt;6 -->
<g id="edge12" class="edge">
<title>14&#45;&gt;6</title>
<path fill="none" stroke="#c0c0c0" stroke-width="2" d="M250.3649,-575.8314C245.7872,-567.7925 240.3058,-558.1666 235.2521,-549.2918"/>
<polygon fill="#c0c0c0" stroke="#c0c0c0" stroke-width="2" points="238.1862,-547.3712 230.1963,-540.4133 232.1033,-550.8351 238.1862,-547.3712"/>
</g>
<!-- 15&#45;&gt;0 -->
<g id="edge3" class="edge">
<title>15&#45;&gt;0</title>
<path fill="none" stroke="#c0c0c0" stroke-width="2" d="M290.7701,-215.9492C293.2067,-197.4406 295.1158,-168.0417 287.711,-144 273.4361,-97.6528 229.3971,-60.8205 197.3988,-39.2291"/>
<polygon fill="#c0c0c0" stroke="#c0c0c0" stroke-width="2" points="199.0104,-36.1007 188.7276,-33.5481 195.1742,-41.956 199.0104,-36.1007"/>
</g>
<!-- 16&#45;&gt;0 -->
<g id="edge4" class="edge">
<title>16&#45;&gt;0</title>
<path fill="none" stroke="#c0c0c0" stroke-width="2" d="M80.9639,-71.8314C94.6499,-62.7074 111.4024,-51.539 126.0937,-41.7449"/>
<polygon fill="#c0c0c0" stroke="#c0c0c0" stroke-width="2" points="128.0877,-44.6221 134.4667,-36.1628 124.2047,-38.7977 128.0877,-44.6221"/>
</g>
<!-- 17&#45;&gt;0 -->
<g id="edge2" class="edge">
<title>17&#45;&gt;0</title>
<path fill="none" stroke="#c0c0c0" stroke-width="2" d="M161.711,-71.8314C161.711,-64.131 161.711,-54.9743 161.711,-46.4166"/>
<polygon fill="#c0c0c0" stroke="#c0c0c0" stroke-width="2" points="165.2111,-46.4132 161.711,-36.4133 158.2111,-46.4133 165.2111,-46.4132"/>
</g>
<!-- 18&#45;&gt;0 -->
<g id="edge1" class="edge">
<title>18&#45;&gt;0</title>
<path fill="none" stroke="#c0c0c0" stroke-width="2" d="M224.8372,-143.8781C228.2025,-125.0531 230.9123,-95.1658 220.711,-72 215.552,-60.2848 206.4577,-50.0045 196.9313,-41.6448"/>
<polygon fill="#c0c0c0" stroke="#c0c0c0" stroke-width="2" points="198.8624,-38.7029 188.9043,-35.0851 194.4328,-44.1231 198.8624,-38.7029"/>
</g>
</g>
</svg>
