<?xml version="1.0" encoding="UTF-8" standalone="no"?>
<!DOCTYPE svg PUBLIC "-//W3C//DTD SVG 1.1//EN"
 "http://www.w3.org/Graphics/SVG/1.1/DTD/svg11.dtd">
<!-- Generated by graphviz version 2.40.1 (0)
 -->
<!-- Title: snakemake_dag Pages: 1 -->
<svg width="660pt" height="980pt"
 viewBox="0.00 0.00 659.95 980.00" xmlns="http://www.w3.org/2000/svg" xmlns:xlink="http://www.w3.org/1999/xlink">
<g id="graph0" class="graph" transform="scale(1 1) rotate(0) translate(4 976)">
<title>snakemake_dag</title>
<polygon fill="#ffffff" stroke="transparent" points="-4,4 -4,-976 655.9479,-976 655.9479,4 -4,4"/>
<!-- 0 -->
<g id="node1" class="node">
<title>0</title>
<path fill="none" stroke="#d88d56" stroke-width="2" d="M282.4479,-36C282.4479,-36 252.4479,-36 252.4479,-36 246.4479,-36 240.4479,-30 240.4479,-24 240.4479,-24 240.4479,-12 240.4479,-12 240.4479,-6 246.4479,0 252.4479,0 252.4479,0 282.4479,0 282.4479,0 288.4479,0 294.4479,-6 294.4479,-12 294.4479,-12 294.4479,-24 294.4479,-24 294.4479,-30 288.4479,-36 282.4479,-36"/>
<text text-anchor="middle" x="267.4479" y="-15.5" font-family="sans" font-size="10.00" fill="#000000">all</text>
</g>
<!-- 1 -->
<g id="node2" class="node">
<title>1</title>
<path fill="none" stroke="#78d856" stroke-width="2" d="M87.4479,-396C87.4479,-396 57.4479,-396 57.4479,-396 51.4479,-396 45.4479,-390 45.4479,-384 45.4479,-384 45.4479,-372 45.4479,-372 45.4479,-366 51.4479,-360 57.4479,-360 57.4479,-360 87.4479,-360 87.4479,-360 93.4479,-360 99.4479,-366 99.4479,-372 99.4479,-372 99.4479,-384 99.4479,-384 99.4479,-390 93.4479,-396 87.4479,-396"/>
<text text-anchor="middle" x="72.4479" y="-375.5" font-family="sans" font-size="10.00" fill="#000000">LibQC2</text>
</g>
<!-- 1&#45;&gt;0 -->
<g id="edge7" class="edge">
<title>1&#45;&gt;0</title>
<path fill="none" stroke="#c0c0c0" stroke-width="2" d="M56.9126,-359.8219C36.29,-333.7696 2.4479,-283.4792 2.4479,-234 2.4479,-234 2.4479,-234 2.4479,-162 2.4479,-121.1184 -7.3436,-101.0235 21.4479,-72 50.3395,-42.8755 169.045,-27.4342 230.3771,-21.2646"/>
<polygon fill="#c0c0c0" stroke="#c0c0c0" stroke-width="2" points="230.8036,-24.7397 240.4169,-20.2861 230.1245,-17.7727 230.8036,-24.7397"/>
</g>
<!-- 2 -->
<g id="node3" class="node">
<title>2</title>
<path fill="none" stroke="#59d856" stroke-width="2" d="M252.9479,-468C252.9479,-468 201.9479,-468 201.9479,-468 195.9479,-468 189.9479,-462 189.9479,-456 189.9479,-456 189.9479,-444 189.9479,-444 189.9479,-438 195.9479,-432 201.9479,-432 201.9479,-432 252.9479,-432 252.9479,-432 258.9479,-432 264.9479,-438 264.9479,-444 264.9479,-444 264.9479,-456 264.9479,-456 264.9479,-462 258.9479,-468 252.9479,-468"/>
<text text-anchor="middle" x="227.4479" y="-447.5" font-family="sans" font-size="10.00" fill="#000000">rmPCRDup2</text>
</g>
<!-- 2&#45;&gt;1 -->
<g id="edge9" class="edge">
<title>2&#45;&gt;1</title>
<path fill="none" stroke="#c0c0c0" stroke-width="2" d="M189.9267,-432.5708C165.407,-421.181 133.5351,-406.376 109.1762,-395.0609"/>
<polygon fill="#c0c0c0" stroke="#c0c0c0" stroke-width="2" points="110.4515,-391.7942 99.9077,-390.7555 107.5025,-398.1427 110.4515,-391.7942"/>
</g>
<!-- 16 -->
<g id="node17" class="node">
<title>16</title>
<path fill="none" stroke="#56d8a2" stroke-width="2" d="M266.9479,-396C266.9479,-396 187.9479,-396 187.9479,-396 181.9479,-396 175.9479,-390 175.9479,-384 175.9479,-384 175.9479,-372 175.9479,-372 175.9479,-366 181.9479,-360 187.9479,-360 187.9479,-360 266.9479,-360 266.9479,-360 272.9479,-360 278.9479,-366 278.9479,-372 278.9479,-372 278.9479,-384 278.9479,-384 278.9479,-390 272.9479,-396 266.9479,-396"/>
<text text-anchor="middle" x="227.4479" y="-375.5" font-family="sans" font-size="10.00" fill="#000000">makePairsNSam2</text>
</g>
<!-- 2&#45;&gt;16 -->
<g id="edge24" class="edge">
<title>2&#45;&gt;16</title>
<path fill="none" stroke="#c0c0c0" stroke-width="2" d="M227.4479,-431.8314C227.4479,-424.131 227.4479,-414.9743 227.4479,-406.4166"/>
<polygon fill="#c0c0c0" stroke="#c0c0c0" stroke-width="2" points="230.948,-406.4132 227.4479,-396.4133 223.948,-406.4133 230.948,-406.4132"/>
</g>
<!-- 19 -->
<g id="node20" class="node">
<title>19</title>
<path fill="none" stroke="#56d86b" stroke-width="2" d="M477.4479,-396C477.4479,-396 363.4479,-396 363.4479,-396 357.4479,-396 351.4479,-390 351.4479,-384 351.4479,-384 351.4479,-372 351.4479,-372 351.4479,-366 357.4479,-360 363.4479,-360 363.4479,-360 477.4479,-360 477.4479,-360 483.4479,-360 489.4479,-366 489.4479,-372 489.4479,-372 489.4479,-384 489.4479,-384 489.4479,-390 483.4479,-396 477.4479,-396"/>
<text text-anchor="middle" x="420.4479" y="-375.5" font-family="sans" font-size="10.00" fill="#000000">makePairsNSam2Unmap</text>
</g>
<!-- 2&#45;&gt;19 -->
<g id="edge27" class="edge">
<title>2&#45;&gt;19</title>
<path fill="none" stroke="#c0c0c0" stroke-width="2" d="M265.1184,-435.9468C292.756,-425.6364 330.8042,-411.4422 362.3259,-399.6828"/>
<polygon fill="#c0c0c0" stroke="#c0c0c0" stroke-width="2" points="363.7342,-402.8931 371.8801,-396.1185 361.2875,-396.3346 363.7342,-402.8931"/>
</g>
<!-- 3 -->
<g id="node4" class="node">
<title>3</title>
<path fill="none" stroke="#9fd856" stroke-width="2" d="M255.4479,-540C255.4479,-540 199.4479,-540 199.4479,-540 193.4479,-540 187.4479,-534 187.4479,-528 187.4479,-528 187.4479,-516 187.4479,-516 187.4479,-510 193.4479,-504 199.4479,-504 199.4479,-504 255.4479,-504 255.4479,-504 261.4479,-504 267.4479,-510 267.4479,-516 267.4479,-516 267.4479,-528 267.4479,-528 267.4479,-534 261.4479,-540 255.4479,-540"/>
<text text-anchor="middle" x="227.4479" y="-519.5" font-family="sans" font-size="10.00" fill="#000000">sortParisam2</text>
</g>
<!-- 3&#45;&gt;2 -->
<g id="edge10" class="edge">
<title>3&#45;&gt;2</title>
<path fill="none" stroke="#c0c0c0" stroke-width="2" d="M227.4479,-503.8314C227.4479,-496.131 227.4479,-486.9743 227.4479,-478.4166"/>
<polygon fill="#c0c0c0" stroke="#c0c0c0" stroke-width="2" points="230.948,-478.4132 227.4479,-468.4133 223.948,-478.4133 230.948,-478.4132"/>
</g>
<!-- 4 -->
<g id="node5" class="node">
<title>4</title>
<path fill="none" stroke="#d8a456" stroke-width="2" d="M274.9479,-612C274.9479,-612 179.9479,-612 179.9479,-612 173.9479,-612 167.9479,-606 167.9479,-600 167.9479,-600 167.9479,-588 167.9479,-588 167.9479,-582 173.9479,-576 179.9479,-576 179.9479,-576 274.9479,-576 274.9479,-576 280.9479,-576 286.9479,-582 286.9479,-588 286.9479,-588 286.9479,-600 286.9479,-600 286.9479,-606 280.9479,-612 274.9479,-612"/>
<text text-anchor="middle" x="227.4479" y="-591.5" font-family="sans" font-size="10.00" fill="#000000">RecordValidLigation2</text>
</g>
<!-- 4&#45;&gt;3 -->
<g id="edge11" class="edge">
<title>4&#45;&gt;3</title>
<path fill="none" stroke="#c0c0c0" stroke-width="2" d="M227.4479,-575.8314C227.4479,-568.131 227.4479,-558.9743 227.4479,-550.4166"/>
<polygon fill="#c0c0c0" stroke="#c0c0c0" stroke-width="2" points="230.948,-550.4132 227.4479,-540.4133 223.948,-550.4133 230.948,-550.4132"/>
</g>
<!-- 5 -->
<g id="node6" class="node">
<title>5</title>
<path fill="none" stroke="#d8b456" stroke-width="2" d="M242.4479,-684C242.4479,-684 212.4479,-684 212.4479,-684 206.4479,-684 200.4479,-678 200.4479,-672 200.4479,-672 200.4479,-660 200.4479,-660 200.4479,-654 206.4479,-648 212.4479,-648 212.4479,-648 242.4479,-648 242.4479,-648 248.4479,-648 254.4479,-654 254.4479,-660 254.4479,-660 254.4479,-672 254.4479,-672 254.4479,-678 248.4479,-684 242.4479,-684"/>
<text text-anchor="middle" x="227.4479" y="-663.5" font-family="sans" font-size="10.00" fill="#000000">bwa2</text>
</g>
<!-- 5&#45;&gt;4 -->
<g id="edge12" class="edge">
<title>5&#45;&gt;4</title>
<path fill="none" stroke="#c0c0c0" stroke-width="2" d="M227.4479,-647.8314C227.4479,-640.131 227.4479,-630.9743 227.4479,-622.4166"/>
<polygon fill="#c0c0c0" stroke="#c0c0c0" stroke-width="2" points="230.948,-622.4132 227.4479,-612.4133 223.948,-622.4133 230.948,-622.4132"/>
</g>
<!-- 6 -->
<g id="node7" class="node">
<title>6</title>
<path fill="none" stroke="#566bd8" stroke-width="2" d="M206.4479,-756C206.4479,-756 166.4479,-756 166.4479,-756 160.4479,-756 154.4479,-750 154.4479,-744 154.4479,-744 154.4479,-732 154.4479,-732 154.4479,-726 160.4479,-720 166.4479,-720 166.4479,-720 206.4479,-720 206.4479,-720 212.4479,-720 218.4479,-726 218.4479,-732 218.4479,-732 218.4479,-744 218.4479,-744 218.4479,-750 212.4479,-756 206.4479,-756"/>
<text text-anchor="middle" x="186.4479" y="-735.5" font-family="sans" font-size="10.00" fill="#000000">subseqR1</text>
</g>
<!-- 6&#45;&gt;5 -->
<g id="edge14" class="edge">
<title>6&#45;&gt;5</title>
<path fill="none" stroke="#c0c0c0" stroke-width="2" d="M196.7939,-719.8314C201.3716,-711.7925 206.853,-702.1666 211.9067,-693.2918"/>
<polygon fill="#c0c0c0" stroke="#c0c0c0" stroke-width="2" points="215.0555,-694.8351 216.9625,-684.4133 208.9726,-691.3712 215.0555,-694.8351"/>
</g>
<!-- 7 -->
<g id="node8" class="node">
<title>7</title>
<path fill="none" stroke="#b6d856" stroke-width="2" d="M266.4479,-828C266.4479,-828 188.4479,-828 188.4479,-828 182.4479,-828 176.4479,-822 176.4479,-816 176.4479,-816 176.4479,-804 176.4479,-804 176.4479,-798 182.4479,-792 188.4479,-792 188.4479,-792 266.4479,-792 266.4479,-792 272.4479,-792 278.4479,-798 278.4479,-804 278.4479,-804 278.4479,-816 278.4479,-816 278.4479,-822 272.4479,-828 266.4479,-828"/>
<text text-anchor="middle" x="227.4479" y="-807.5" font-family="sans" font-size="10.00" fill="#000000">unionReadNames</text>
</g>
<!-- 7&#45;&gt;6 -->
<g id="edge15" class="edge">
<title>7&#45;&gt;6</title>
<path fill="none" stroke="#c0c0c0" stroke-width="2" d="M217.1018,-791.8314C212.5241,-783.7925 207.0427,-774.1666 201.989,-765.2918"/>
<polygon fill="#c0c0c0" stroke="#c0c0c0" stroke-width="2" points="204.9231,-763.3712 196.9332,-756.4133 198.8402,-766.8351 204.9231,-763.3712"/>
</g>
<!-- 13 -->
<g id="node14" class="node">
<title>13</title>
<path fill="none" stroke="#567bd8" stroke-width="2" d="M288.4479,-756C288.4479,-756 248.4479,-756 248.4479,-756 242.4479,-756 236.4479,-750 236.4479,-744 236.4479,-744 236.4479,-732 236.4479,-732 236.4479,-726 242.4479,-720 248.4479,-720 248.4479,-720 288.4479,-720 288.4479,-720 294.4479,-720 300.4479,-726 300.4479,-732 300.4479,-732 300.4479,-744 300.4479,-744 300.4479,-750 294.4479,-756 288.4479,-756"/>
<text text-anchor="middle" x="268.4479" y="-735.5" font-family="sans" font-size="10.00" fill="#000000">subseqR2</text>
</g>
<!-- 7&#45;&gt;13 -->
<g id="edge21" class="edge">
<title>7&#45;&gt;13</title>
<path fill="none" stroke="#c0c0c0" stroke-width="2" d="M237.7939,-791.8314C242.3716,-783.7925 247.853,-774.1666 252.9067,-765.2918"/>
<polygon fill="#c0c0c0" stroke="#c0c0c0" stroke-width="2" points="256.0555,-766.8351 257.9625,-756.4133 249.9726,-763.3712 256.0555,-766.8351"/>
</g>
<!-- 8 -->
<g id="node9" class="node">
<title>8</title>
<path fill="none" stroke="#56d88a" stroke-width="2" d="M260.9479,-900C260.9479,-900 193.9479,-900 193.9479,-900 187.9479,-900 181.9479,-894 181.9479,-888 181.9479,-888 181.9479,-876 181.9479,-876 181.9479,-870 187.9479,-864 193.9479,-864 193.9479,-864 260.9479,-864 260.9479,-864 266.9479,-864 272.9479,-870 272.9479,-876 272.9479,-876 272.9479,-888 272.9479,-888 272.9479,-894 266.9479,-900 260.9479,-900"/>
<text text-anchor="middle" x="227.4479" y="-879.5" font-family="sans" font-size="10.00" fill="#000000">getReadNames</text>
</g>
<!-- 8&#45;&gt;7 -->
<g id="edge16" class="edge">
<title>8&#45;&gt;7</title>
<path fill="none" stroke="#c0c0c0" stroke-width="2" d="M227.4479,-863.8314C227.4479,-856.131 227.4479,-846.9743 227.4479,-838.4166"/>
<polygon fill="#c0c0c0" stroke="#c0c0c0" stroke-width="2" points="230.948,-838.4132 227.4479,-828.4133 223.948,-838.4133 230.948,-838.4132"/>
</g>
<!-- 9 -->
<g id="node10" class="node">
<title>9</title>
<path fill="none" stroke="#d86656" stroke-width="2" d="M108.4479,-972C108.4479,-972 52.4479,-972 52.4479,-972 46.4479,-972 40.4479,-966 40.4479,-960 40.4479,-960 40.4479,-948 40.4479,-948 40.4479,-942 46.4479,-936 52.4479,-936 52.4479,-936 108.4479,-936 108.4479,-936 114.4479,-936 120.4479,-942 120.4479,-948 120.4479,-948 120.4479,-960 120.4479,-960 120.4479,-966 114.4479,-972 108.4479,-972"/>
<text text-anchor="middle" x="80.4479" y="-951.5" font-family="sans" font-size="10.00" fill="#000000">KMCfilterR1T</text>
</g>
<!-- 9&#45;&gt;8 -->
<g id="edge20" class="edge">
<title>9&#45;&gt;8</title>
<path fill="none" stroke="#c0c0c0" stroke-width="2" d="M117.5422,-935.8314C136.9404,-926.3302 160.8649,-914.6121 181.434,-904.5374"/>
<polygon fill="#c0c0c0" stroke="#c0c0c0" stroke-width="2" points="183.1792,-907.5799 190.6203,-900.038 180.1001,-901.2935 183.1792,-907.5799"/>
</g>
<!-- 10 -->
<g id="node11" class="node">
<title>10</title>
<path fill="none" stroke="#56d8b1" stroke-width="2" d="M206.4479,-972C206.4479,-972 150.4479,-972 150.4479,-972 144.4479,-972 138.4479,-966 138.4479,-960 138.4479,-960 138.4479,-948 138.4479,-948 138.4479,-942 144.4479,-936 150.4479,-936 150.4479,-936 206.4479,-936 206.4479,-936 212.4479,-936 218.4479,-942 218.4479,-948 218.4479,-948 218.4479,-960 218.4479,-960 218.4479,-966 212.4479,-972 206.4479,-972"/>
<text text-anchor="middle" x="178.4479" y="-951.5" font-family="sans" font-size="10.00" fill="#000000">KMCfilterR1C</text>
</g>
<!-- 10&#45;&gt;8 -->
<g id="edge17" class="edge">
<title>10&#45;&gt;8</title>
<path fill="none" stroke="#c0c0c0" stroke-width="2" d="M190.8126,-935.8314C196.3987,-927.6232 203.1108,-917.7606 209.255,-908.7323"/>
<polygon fill="#c0c0c0" stroke="#c0c0c0" stroke-width="2" points="212.1838,-910.6496 214.9166,-900.4133 206.3968,-906.7112 212.1838,-910.6496"/>
</g>
<!-- 11 -->
<g id="node12" class="node">
<title>11</title>
<path fill="none" stroke="#d87d56" stroke-width="2" d="M304.4479,-972C304.4479,-972 248.4479,-972 248.4479,-972 242.4479,-972 236.4479,-966 236.4479,-960 236.4479,-960 236.4479,-948 236.4479,-948 236.4479,-942 242.4479,-936 248.4479,-936 248.4479,-936 304.4479,-936 304.4479,-936 310.4479,-936 316.4479,-942 316.4479,-948 316.4479,-948 316.4479,-960 316.4479,-960 316.4479,-966 310.4479,-972 304.4479,-972"/>
<text text-anchor="middle" x="276.4479" y="-951.5" font-family="sans" font-size="10.00" fill="#000000">KMCfilterR2T</text>
</g>
<!-- 11&#45;&gt;8 -->
<g id="edge19" class="edge">
<title>11&#45;&gt;8</title>
<path fill="none" stroke="#c0c0c0" stroke-width="2" d="M264.0831,-935.8314C258.497,-927.6232 251.7849,-917.7606 245.6407,-908.7323"/>
<polygon fill="#c0c0c0" stroke="#c0c0c0" stroke-width="2" points="248.4989,-906.7112 239.9791,-900.4133 242.7119,-910.6496 248.4989,-906.7112"/>
</g>
<!-- 12 -->
<g id="node13" class="node">
<title>12</title>
<path fill="none" stroke="#68d856" stroke-width="2" d="M402.4479,-972C402.4479,-972 346.4479,-972 346.4479,-972 340.4479,-972 334.4479,-966 334.4479,-960 334.4479,-960 334.4479,-948 334.4479,-948 334.4479,-942 340.4479,-936 346.4479,-936 346.4479,-936 402.4479,-936 402.4479,-936 408.4479,-936 414.4479,-942 414.4479,-948 414.4479,-948 414.4479,-960 414.4479,-960 414.4479,-966 408.4479,-972 402.4479,-972"/>
<text text-anchor="middle" x="374.4479" y="-951.5" font-family="sans" font-size="10.00" fill="#000000">KMCfilterR2C</text>
</g>
<!-- 12&#45;&gt;8 -->
<g id="edge18" class="edge">
<title>12&#45;&gt;8</title>
<path fill="none" stroke="#c0c0c0" stroke-width="2" d="M337.3535,-935.8314C317.9553,-926.3302 294.0308,-914.6121 273.4617,-904.5374"/>
<polygon fill="#c0c0c0" stroke="#c0c0c0" stroke-width="2" points="274.7956,-901.2935 264.2754,-900.038 271.7165,-907.5799 274.7956,-901.2935"/>
</g>
<!-- 13&#45;&gt;5 -->
<g id="edge13" class="edge">
<title>13&#45;&gt;5</title>
<path fill="none" stroke="#c0c0c0" stroke-width="2" d="M258.1018,-719.8314C253.5241,-711.7925 248.0427,-702.1666 242.989,-693.2918"/>
<polygon fill="#c0c0c0" stroke="#c0c0c0" stroke-width="2" points="245.9231,-691.3712 237.9332,-684.4133 239.8402,-694.8351 245.9231,-691.3712"/>
</g>
<!-- 14 -->
<g id="node15" class="node">
<title>14</title>
<path fill="none" stroke="#c6d856" stroke-width="2" d="M103.9479,-108C103.9479,-108 42.9479,-108 42.9479,-108 36.9479,-108 30.9479,-102 30.9479,-96 30.9479,-96 30.9479,-84 30.9479,-84 30.9479,-78 36.9479,-72 42.9479,-72 42.9479,-72 103.9479,-72 103.9479,-72 109.9479,-72 115.9479,-78 115.9479,-84 115.9479,-84 115.9479,-96 115.9479,-96 115.9479,-102 109.9479,-108 103.9479,-108"/>
<text text-anchor="middle" x="73.4479" y="-87.5" font-family="sans" font-size="10.00" fill="#000000">bamCoverge2</text>
</g>
<!-- 14&#45;&gt;0 -->
<g id="edge5" class="edge">
<title>14&#45;&gt;0</title>
<path fill="none" stroke="#c0c0c0" stroke-width="2" d="M116.022,-74.1993C150.2883,-61.4819 197.9525,-43.7921 230.5988,-31.676"/>
<polygon fill="#c0c0c0" stroke="#c0c0c0" stroke-width="2" points="232.0594,-34.8672 240.2168,-28.1064 229.6238,-28.3046 232.0594,-34.8672"/>
</g>
<!-- 15 -->
<g id="node16" class="node">
<title>15</title>
<path fill="none" stroke="#d6d856" stroke-width="2" d="M149.4479,-180C149.4479,-180 107.4479,-180 107.4479,-180 101.4479,-180 95.4479,-174 95.4479,-168 95.4479,-168 95.4479,-156 95.4479,-156 95.4479,-150 101.4479,-144 107.4479,-144 107.4479,-144 149.4479,-144 149.4479,-144 155.4479,-144 161.4479,-150 161.4479,-156 161.4479,-156 161.4479,-168 161.4479,-168 161.4479,-174 155.4479,-180 149.4479,-180"/>
<text text-anchor="middle" x="128.4479" y="-159.5" font-family="sans" font-size="10.00" fill="#000000">finalBam2</text>
</g>
<!-- 15&#45;&gt;14 -->
<g id="edge22" class="edge">
<title>15&#45;&gt;14</title>
<path fill="none" stroke="#c0c0c0" stroke-width="2" d="M114.569,-143.8314C108.2343,-135.5386 100.6095,-125.557 93.6553,-116.4533"/>
<polygon fill="#c0c0c0" stroke="#c0c0c0" stroke-width="2" points="96.3653,-114.2353 87.5135,-108.4133 90.8026,-118.4847 96.3653,-114.2353"/>
</g>
<!-- 26 -->
<g id="node27" class="node">
<title>26</title>
<path fill="none" stroke="#56d87b" stroke-width="2" d="M208.4479,-108C208.4479,-108 146.4479,-108 146.4479,-108 140.4479,-108 134.4479,-102 134.4479,-96 134.4479,-96 134.4479,-84 134.4479,-84 134.4479,-78 140.4479,-72 146.4479,-72 146.4479,-72 208.4479,-72 208.4479,-72 214.4479,-72 220.4479,-78 220.4479,-84 220.4479,-84 220.4479,-96 220.4479,-96 220.4479,-102 214.4479,-108 208.4479,-108"/>
<text text-anchor="middle" x="177.4479" y="-87.5" font-family="sans" font-size="10.00" fill="#000000">finalBam2Stat</text>
</g>
<!-- 15&#45;&gt;26 -->
<g id="edge34" class="edge">
<title>15&#45;&gt;26</title>
<path fill="none" stroke="#c0c0c0" stroke-width="2" d="M140.8126,-143.8314C146.3987,-135.6232 153.1108,-125.7606 159.255,-116.7323"/>
<polygon fill="#c0c0c0" stroke="#c0c0c0" stroke-width="2" points="162.1838,-118.6496 164.9166,-108.4133 156.3968,-114.7112 162.1838,-118.6496"/>
</g>
<!-- 16&#45;&gt;15 -->
<g id="edge23" class="edge">
<title>16&#45;&gt;15</title>
<path fill="none" stroke="#c0c0c0" stroke-width="2" d="M213.0062,-359.9455C194.9495,-336.461 164.3612,-293.5141 147.4479,-252 139.3387,-232.0959 134.5046,-208.2451 131.7432,-190.0986"/>
<polygon fill="#c0c0c0" stroke="#c0c0c0" stroke-width="2" points="135.2025,-189.5635 130.3478,-180.1464 128.2703,-190.5355 135.2025,-189.5635"/>
</g>
<!-- 20 -->
<g id="node21" class="node">
<title>20</title>
<path fill="none" stroke="#56d8d8" stroke-width="2" d="M245.9479,-252C245.9479,-252 168.9479,-252 168.9479,-252 162.9479,-252 156.9479,-246 156.9479,-240 156.9479,-240 156.9479,-228 156.9479,-228 156.9479,-222 162.9479,-216 168.9479,-216 168.9479,-216 245.9479,-216 245.9479,-216 251.9479,-216 257.9479,-222 257.9479,-228 257.9479,-228 257.9479,-240 257.9479,-240 257.9479,-246 251.9479,-252 245.9479,-252"/>
<text text-anchor="middle" x="207.4479" y="-231.5" font-family="sans" font-size="10.00" fill="#000000">hicContacMatrix2</text>
</g>
<!-- 16&#45;&gt;20 -->
<g id="edge28" class="edge">
<title>16&#45;&gt;20</title>
<path fill="none" stroke="#c0c0c0" stroke-width="2" d="M216.9919,-359.6605C211.8021,-349.5026 206.0887,-336.4443 203.4479,-324 199.1255,-303.6323 200.3803,-280.1099 202.5806,-262.2218"/>
<polygon fill="#c0c0c0" stroke="#c0c0c0" stroke-width="2" points="206.0703,-262.538 203.9906,-252.1493 199.1379,-261.5674 206.0703,-262.538"/>
</g>
<!-- 21 -->
<g id="node22" class="node">
<title>21</title>
<path fill="none" stroke="#56b1d8" stroke-width="2" d="M317.9479,-324C317.9479,-324 224.9479,-324 224.9479,-324 218.9479,-324 212.9479,-318 212.9479,-312 212.9479,-312 212.9479,-300 212.9479,-300 212.9479,-294 218.9479,-288 224.9479,-288 224.9479,-288 317.9479,-288 317.9479,-288 323.9479,-288 329.9479,-294 329.9479,-300 329.9479,-300 329.9479,-312 329.9479,-312 329.9479,-318 323.9479,-324 317.9479,-324"/>
<text text-anchor="middle" x="271.4479" y="-303.5" font-family="sans" font-size="10.00" fill="#000000">mcoolContacMatrix2</text>
</g>
<!-- 16&#45;&gt;21 -->
<g id="edge29" class="edge">
<title>16&#45;&gt;21</title>
<path fill="none" stroke="#c0c0c0" stroke-width="2" d="M238.5509,-359.8314C243.5153,-351.7079 249.47,-341.9637 254.9406,-333.0118"/>
<polygon fill="#c0c0c0" stroke="#c0c0c0" stroke-width="2" points="257.9672,-334.7712 260.1953,-324.4133 251.9943,-331.121 257.9672,-334.7712"/>
</g>
<!-- 25 -->
<g id="node26" class="node">
<title>25</title>
<path fill="none" stroke="#8fd856" stroke-width="2" d="M412.4479,-324C412.4479,-324 360.4479,-324 360.4479,-324 354.4479,-324 348.4479,-318 348.4479,-312 348.4479,-312 348.4479,-300 348.4479,-300 348.4479,-294 354.4479,-288 360.4479,-288 360.4479,-288 412.4479,-288 412.4479,-288 418.4479,-288 424.4479,-294 424.4479,-300 424.4479,-300 424.4479,-312 424.4479,-312 424.4479,-318 418.4479,-324 412.4479,-324"/>
<text text-anchor="middle" x="386.4479" y="-303.5" font-family="sans" font-size="10.00" fill="#000000">parisDump2</text>
</g>
<!-- 16&#45;&gt;25 -->
<g id="edge33" class="edge">
<title>16&#45;&gt;25</title>
<path fill="none" stroke="#c0c0c0" stroke-width="2" d="M267.5703,-359.8314C289.3207,-349.9821 316.3321,-337.7505 339.108,-327.4369"/>
<polygon fill="#c0c0c0" stroke="#c0c0c0" stroke-width="2" points="340.5902,-330.6079 348.2559,-323.2945 337.7026,-324.2312 340.5902,-330.6079"/>
</g>
<!-- 17 -->
<g id="node18" class="node">
<title>17</title>
<path fill="none" stroke="#56a2d8" stroke-width="2" d="M500.4479,-108C500.4479,-108 410.4479,-108 410.4479,-108 404.4479,-108 398.4479,-102 398.4479,-96 398.4479,-96 398.4479,-84 398.4479,-84 398.4479,-78 404.4479,-72 410.4479,-72 410.4479,-72 500.4479,-72 500.4479,-72 506.4479,-72 512.4479,-78 512.4479,-84 512.4479,-84 512.4479,-96 512.4479,-96 512.4479,-102 506.4479,-108 500.4479,-108"/>
<text text-anchor="middle" x="455.4479" y="-87.5" font-family="sans" font-size="10.00" fill="#000000">bamCovergeUnmap</text>
</g>
<!-- 17&#45;&gt;0 -->
<g id="edge6" class="edge">
<title>17&#45;&gt;0</title>
<path fill="none" stroke="#c0c0c0" stroke-width="2" d="M408.0075,-71.8314C375.757,-59.4801 333.7243,-43.3825 304.0528,-32.0189"/>
<polygon fill="#c0c0c0" stroke="#c0c0c0" stroke-width="2" points="305.0866,-28.667 294.4962,-28.359 302.583,-35.204 305.0866,-28.667"/>
</g>
<!-- 18 -->
<g id="node19" class="node">
<title>18</title>
<path fill="none" stroke="#56d8c9" stroke-width="2" d="M502.9479,-180C502.9479,-180 425.9479,-180 425.9479,-180 419.9479,-180 413.9479,-174 413.9479,-168 413.9479,-168 413.9479,-156 413.9479,-156 413.9479,-150 419.9479,-144 425.9479,-144 425.9479,-144 502.9479,-144 502.9479,-144 508.9479,-144 514.9479,-150 514.9479,-156 514.9479,-156 514.9479,-168 514.9479,-168 514.9479,-174 508.9479,-180 502.9479,-180"/>
<text text-anchor="middle" x="464.4479" y="-159.5" font-family="sans" font-size="10.00" fill="#000000">finalBam2Unmap</text>
</g>
<!-- 18&#45;&gt;17 -->
<g id="edge25" class="edge">
<title>18&#45;&gt;17</title>
<path fill="none" stroke="#c0c0c0" stroke-width="2" d="M462.1768,-143.8314C461.2142,-136.131 460.0696,-126.9743 458.9999,-118.4166"/>
<polygon fill="#c0c0c0" stroke="#c0c0c0" stroke-width="2" points="462.4629,-117.9019 457.7495,-108.4133 455.517,-118.7702 462.4629,-117.9019"/>
</g>
<!-- 27 -->
<g id="node28" class="node">
<title>27</title>
<path fill="none" stroke="#d8c356" stroke-width="2" d="M639.9479,-108C639.9479,-108 542.9479,-108 542.9479,-108 536.9479,-108 530.9479,-102 530.9479,-96 530.9479,-96 530.9479,-84 530.9479,-84 530.9479,-78 536.9479,-72 542.9479,-72 542.9479,-72 639.9479,-72 639.9479,-72 645.9479,-72 651.9479,-78 651.9479,-84 651.9479,-84 651.9479,-96 651.9479,-96 651.9479,-102 645.9479,-108 639.9479,-108"/>
<text text-anchor="middle" x="591.4479" y="-87.5" font-family="sans" font-size="10.00" fill="#000000">finalBamUnmap2Stat</text>
</g>
<!-- 18&#45;&gt;27 -->
<g id="edge35" class="edge">
<title>18&#45;&gt;27</title>
<path fill="none" stroke="#c0c0c0" stroke-width="2" d="M496.4953,-143.8314C512.8898,-134.5368 533.0264,-123.1208 550.5307,-113.1971"/>
<polygon fill="#c0c0c0" stroke="#c0c0c0" stroke-width="2" points="552.4376,-116.1395 559.4106,-108.1628 548.9852,-110.05 552.4376,-116.1395"/>
</g>
<!-- 19&#45;&gt;18 -->
<g id="edge26" class="edge">
<title>19&#45;&gt;18</title>
<path fill="none" stroke="#c0c0c0" stroke-width="2" d="M425.1163,-359.555C427.6942,-349.1433 430.8835,-335.8763 433.4479,-324 443.5475,-277.2257 453.6711,-222.4874 459.4837,-190.1134"/>
<polygon fill="#c0c0c0" stroke="#c0c0c0" stroke-width="2" points="462.9709,-190.4952 461.2835,-180.0356 456.0799,-189.2645 462.9709,-190.4952"/>
</g>
<!-- 20&#45;&gt;0 -->
<g id="edge3" class="edge">
<title>20&#45;&gt;0</title>
<path fill="none" stroke="#c0c0c0" stroke-width="2" d="M212.4602,-215.9555C222.9381,-178.235 247.2204,-90.8188 259.7145,-45.8399"/>
<polygon fill="#c0c0c0" stroke="#c0c0c0" stroke-width="2" points="263.1034,-46.717 262.4076,-36.1451 256.3587,-44.8435 263.1034,-46.717"/>
</g>
<!-- 21&#45;&gt;0 -->
<g id="edge8" class="edge">
<title>21&#45;&gt;0</title>
<path fill="none" stroke="#c0c0c0" stroke-width="2" d="M271.1976,-287.9843C270.5214,-239.2939 268.6534,-104.7961 267.8375,-46.0573"/>
<polygon fill="#c0c0c0" stroke="#c0c0c0" stroke-width="2" points="271.3366,-45.9593 267.698,-36.0089 264.3373,-46.0566 271.3366,-45.9593"/>
</g>
<!-- 22 -->
<g id="node23" class="node">
<title>22</title>
<path fill="none" stroke="#d85656" stroke-width="2" d="M367.9479,-108C367.9479,-108 326.9479,-108 326.9479,-108 320.9479,-108 314.9479,-102 314.9479,-96 314.9479,-96 314.9479,-84 314.9479,-84 314.9479,-78 320.9479,-72 326.9479,-72 326.9479,-72 367.9479,-72 367.9479,-72 373.9479,-72 379.9479,-78 379.9479,-84 379.9479,-84 379.9479,-96 379.9479,-96 379.9479,-102 373.9479,-108 367.9479,-108"/>
<text text-anchor="middle" x="347.4479" y="-87.5" font-family="sans" font-size="10.00" fill="#000000">plotCircos</text>
</g>
<!-- 22&#45;&gt;0 -->
<g id="edge2" class="edge">
<title>22&#45;&gt;0</title>
<path fill="none" stroke="#c0c0c0" stroke-width="2" d="M327.2605,-71.8314C317.5965,-63.1337 305.8682,-52.5783 295.3662,-43.1265"/>
<polygon fill="#c0c0c0" stroke="#c0c0c0" stroke-width="2" points="297.4031,-40.251 287.6288,-36.1628 292.7203,-45.454 297.4031,-40.251"/>
</g>
<!-- 23 -->
<g id="node24" class="node">
<title>23</title>
<path fill="none" stroke="#56c9d8" stroke-width="2" d="M378.9479,-180C378.9479,-180 331.9479,-180 331.9479,-180 325.9479,-180 319.9479,-174 319.9479,-168 319.9479,-168 319.9479,-156 319.9479,-156 319.9479,-150 325.9479,-144 331.9479,-144 331.9479,-144 378.9479,-144 378.9479,-144 384.9479,-144 390.9479,-150 390.9479,-156 390.9479,-156 390.9479,-168 390.9479,-168 390.9479,-174 384.9479,-180 378.9479,-180"/>
<text text-anchor="middle" x="355.4479" y="-159.5" font-family="sans" font-size="10.00" fill="#000000">circoConfig</text>
</g>
<!-- 23&#45;&gt;22 -->
<g id="edge30" class="edge">
<title>23&#45;&gt;22</title>
<path fill="none" stroke="#c0c0c0" stroke-width="2" d="M353.4291,-143.8314C352.5735,-136.131 351.5561,-126.9743 350.6053,-118.4166"/>
<polygon fill="#c0c0c0" stroke="#c0c0c0" stroke-width="2" points="354.0768,-117.9656 349.4938,-108.4133 347.1196,-118.7386 354.0768,-117.9656"/>
</g>
<!-- 24 -->
<g id="node25" class="node">
<title>24</title>
<path fill="none" stroke="#568ad8" stroke-width="2" d="M424.4479,-252C424.4479,-252 326.4479,-252 326.4479,-252 320.4479,-252 314.4479,-246 314.4479,-240 314.4479,-240 314.4479,-228 314.4479,-228 314.4479,-222 320.4479,-216 326.4479,-216 326.4479,-216 424.4479,-216 424.4479,-216 430.4479,-216 436.4479,-222 436.4479,-228 436.4479,-228 436.4479,-240 436.4479,-240 436.4479,-246 430.4479,-252 424.4479,-252"/>
<text text-anchor="middle" x="375.4479" y="-231.5" font-family="sans" font-size="10.00" fill="#000000">keepMultipleAlignPair</text>
</g>
<!-- 24&#45;&gt;23 -->
<g id="edge31" class="edge">
<title>24&#45;&gt;23</title>
<path fill="none" stroke="#c0c0c0" stroke-width="2" d="M370.401,-215.8314C368.2385,-208.0463 365.6626,-198.7729 363.2631,-190.1347"/>
<polygon fill="#c0c0c0" stroke="#c0c0c0" stroke-width="2" points="366.6115,-189.1117 360.5626,-180.4133 359.8668,-190.9852 366.6115,-189.1117"/>
</g>
<!-- 25&#45;&gt;24 -->
<g id="edge32" class="edge">
<title>25&#45;&gt;24</title>
<path fill="none" stroke="#c0c0c0" stroke-width="2" d="M383.6721,-287.8314C382.4956,-280.131 381.0967,-270.9743 379.7893,-262.4166"/>
<polygon fill="#c0c0c0" stroke="#c0c0c0" stroke-width="2" points="383.2312,-261.7699 378.261,-252.4133 376.3115,-262.8272 383.2312,-261.7699"/>
</g>
<!-- 26&#45;&gt;0 -->
<g id="edge1" class="edge">
<title>26&#45;&gt;0</title>
<path fill="none" stroke="#c0c0c0" stroke-width="2" d="M200.1587,-71.8314C211.2439,-62.9632 224.7432,-52.1637 236.7331,-42.5718"/>
<polygon fill="#c0c0c0" stroke="#c0c0c0" stroke-width="2" points="239.1221,-45.1429 244.7443,-36.1628 234.7492,-39.6768 239.1221,-45.1429"/>
</g>
<!-- 27&#45;&gt;0 -->
<g id="edge4" class="edge">
<title>27&#45;&gt;0</title>
<path fill="none" stroke="#c0c0c0" stroke-width="2" d="M530.7801,-74.2328C527.6269,-73.4655 524.5019,-72.717 521.4479,-72 444.6197,-53.9638 354.0988,-35.345 304.5328,-25.3734"/>
<polygon fill="#c0c0c0" stroke="#c0c0c0" stroke-width="2" points="305.0903,-21.9156 294.5972,-23.3802 303.7134,-28.7789 305.0903,-21.9156"/>
</g>
</g>
</svg>
