<?xml version="1.0" encoding="UTF-8" standalone="no"?>
<!DOCTYPE svg PUBLIC "-//W3C//DTD SVG 1.1//EN"
 "http://www.w3.org/Graphics/SVG/1.1/DTD/svg11.dtd">
<!-- Generated by graphviz version 2.40.1 (0)
 -->
<!-- Title: snakemake_dag Pages: 1 -->
<svg width="919pt" height="908pt"
 viewBox="0.00 0.00 919.20 908.00" xmlns="http://www.w3.org/2000/svg" xmlns:xlink="http://www.w3.org/1999/xlink">
<g id="graph0" class="graph" transform="scale(1 1) rotate(0) translate(4 904)">
<title>snakemake_dag</title>
<polygon fill="#ffffff" stroke="transparent" points="-4,4 -4,-904 915.196,-904 915.196,4 -4,4"/>
<!-- 0 -->
<g id="node1" class="node">
<title>0</title>
<path fill="none" stroke="#d8cb56" stroke-width="2" d="M488.128,-36C488.128,-36 458.128,-36 458.128,-36 452.128,-36 446.128,-30 446.128,-24 446.128,-24 446.128,-12 446.128,-12 446.128,-6 452.128,0 458.128,0 458.128,0 488.128,0 488.128,0 494.128,0 500.128,-6 500.128,-12 500.128,-12 500.128,-24 500.128,-24 500.128,-30 494.128,-36 488.128,-36"/>
<text text-anchor="middle" x="473.128" y="-15.5" font-family="sans" font-size="10.00" fill="#000000">all</text>
</g>
<!-- 1 -->
<g id="node2" class="node">
<title>1</title>
<path fill="none" stroke="#a7d856" stroke-width="2" d="M70.128,-180C70.128,-180 34.128,-180 34.128,-180 28.128,-180 22.128,-174 22.128,-168 22.128,-168 22.128,-156 22.128,-156 22.128,-150 28.128,-144 34.128,-144 34.128,-144 70.128,-144 70.128,-144 76.128,-144 82.128,-150 82.128,-156 82.128,-156 82.128,-168 82.128,-168 82.128,-174 76.128,-180 70.128,-180"/>
<text text-anchor="middle" x="52.128" y="-159.5" font-family="sans" font-size="10.00" fill="#000000">finalBam</text>
</g>
<!-- 1&#45;&gt;0 -->
<g id="edge7" class="edge">
<title>1&#45;&gt;0</title>
<path fill="none" stroke="#c0c0c0" stroke-width="2" d="M31.4863,-143.7724C11.899,-124.3119 -11.9287,-93.3926 7.128,-72 35.5415,-40.1038 330.3497,-24.2199 435.8432,-19.5252"/>
<polygon fill="#c0c0c0" stroke="#c0c0c0" stroke-width="2" points="436.186,-23.0136 446.0239,-19.0809 435.8807,-16.0203 436.186,-23.0136"/>
</g>
<!-- 8 -->
<g id="node9" class="node">
<title>8</title>
<path fill="none" stroke="#59d856" stroke-width="2" d="M76.128,-108C76.128,-108 28.128,-108 28.128,-108 22.128,-108 16.128,-102 16.128,-96 16.128,-96 16.128,-84 16.128,-84 16.128,-78 22.128,-72 28.128,-72 28.128,-72 76.128,-72 76.128,-72 82.128,-72 88.128,-78 88.128,-84 88.128,-84 88.128,-96 88.128,-96 88.128,-102 82.128,-108 76.128,-108"/>
<text text-anchor="middle" x="52.128" y="-87.5" font-family="sans" font-size="10.00" fill="#000000">libComXQC</text>
</g>
<!-- 1&#45;&gt;8 -->
<g id="edge22" class="edge">
<title>1&#45;&gt;8</title>
<path fill="none" stroke="#c0c0c0" stroke-width="2" d="M52.128,-143.8314C52.128,-136.131 52.128,-126.9743 52.128,-118.4166"/>
<polygon fill="#c0c0c0" stroke="#c0c0c0" stroke-width="2" points="55.6281,-118.4132 52.128,-108.4133 48.6281,-118.4133 55.6281,-118.4132"/>
</g>
<!-- 2 -->
<g id="node3" class="node">
<title>2</title>
<path fill="none" stroke="#56d87b" stroke-width="2" d="M214.628,-252C214.628,-252 141.628,-252 141.628,-252 135.628,-252 129.628,-246 129.628,-240 129.628,-240 129.628,-228 129.628,-228 129.628,-222 135.628,-216 141.628,-216 141.628,-216 214.628,-216 214.628,-216 220.628,-216 226.628,-222 226.628,-228 226.628,-228 226.628,-240 226.628,-240 226.628,-246 220.628,-252 214.628,-252"/>
<text text-anchor="middle" x="178.128" y="-231.5" font-family="sans" font-size="10.00" fill="#000000">makePairsNSam</text>
</g>
<!-- 2&#45;&gt;1 -->
<g id="edge16" class="edge">
<title>2&#45;&gt;1</title>
<path fill="none" stroke="#c0c0c0" stroke-width="2" d="M146.3329,-215.8314C129.5708,-206.253 108.8659,-194.4217 91.1396,-184.2923"/>
<polygon fill="#c0c0c0" stroke="#c0c0c0" stroke-width="2" points="92.597,-181.094 82.178,-179.1715 89.124,-187.1718 92.597,-181.094"/>
</g>
<!-- 9 -->
<g id="node10" class="node">
<title>9</title>
<path fill="none" stroke="#80d856" stroke-width="2" d="M189.628,-108C189.628,-108 118.628,-108 118.628,-108 112.628,-108 106.628,-102 106.628,-96 106.628,-96 106.628,-84 106.628,-84 106.628,-78 112.628,-72 118.628,-72 118.628,-72 189.628,-72 189.628,-72 195.628,-72 201.628,-78 201.628,-84 201.628,-84 201.628,-96 201.628,-96 201.628,-102 195.628,-108 189.628,-108"/>
<text text-anchor="middle" x="154.128" y="-87.5" font-family="sans" font-size="10.00" fill="#000000">hicContacMatrix</text>
</g>
<!-- 2&#45;&gt;9 -->
<g id="edge23" class="edge">
<title>2&#45;&gt;9</title>
<path fill="none" stroke="#c0c0c0" stroke-width="2" d="M175.0884,-215.7623C170.9768,-191.0928 163.6046,-146.8598 158.7902,-117.9731"/>
<polygon fill="#c0c0c0" stroke="#c0c0c0" stroke-width="2" points="162.2394,-117.3781 157.1429,-108.0896 155.3346,-118.529 162.2394,-117.3781"/>
</g>
<!-- 10 -->
<g id="node11" class="node">
<title>10</title>
<path fill="none" stroke="#56d8a9" stroke-width="2" d="M318.628,-108C318.628,-108 231.628,-108 231.628,-108 225.628,-108 219.628,-102 219.628,-96 219.628,-96 219.628,-84 219.628,-84 219.628,-78 225.628,-72 231.628,-72 231.628,-72 318.628,-72 318.628,-72 324.628,-72 330.628,-78 330.628,-84 330.628,-84 330.628,-96 330.628,-96 330.628,-102 324.628,-108 318.628,-108"/>
<text text-anchor="middle" x="275.128" y="-87.5" font-family="sans" font-size="10.00" fill="#000000">mcoolContacMatrix</text>
</g>
<!-- 2&#45;&gt;10 -->
<g id="edge24" class="edge">
<title>2&#45;&gt;10</title>
<path fill="none" stroke="#c0c0c0" stroke-width="2" d="M190.4131,-215.7623C207.3223,-190.66 237.8761,-145.3017 257.2995,-116.4671"/>
<polygon fill="#c0c0c0" stroke="#c0c0c0" stroke-width="2" points="260.2586,-118.3389 262.9426,-108.0896 254.4529,-114.4281 260.2586,-118.3389"/>
</g>
<!-- 3 -->
<g id="node4" class="node">
<title>3</title>
<path fill="none" stroke="#56b9d8" stroke-width="2" d="M302.628,-324C302.628,-324 257.628,-324 257.628,-324 251.628,-324 245.628,-318 245.628,-312 245.628,-312 245.628,-300 245.628,-300 245.628,-294 251.628,-288 257.628,-288 257.628,-288 302.628,-288 302.628,-288 308.628,-288 314.628,-294 314.628,-300 314.628,-300 314.628,-312 314.628,-312 314.628,-318 308.628,-324 302.628,-324"/>
<text text-anchor="middle" x="280.128" y="-303.5" font-family="sans" font-size="10.00" fill="#000000">rmPCRDup</text>
</g>
<!-- 3&#45;&gt;2 -->
<g id="edge17" class="edge">
<title>3&#45;&gt;2</title>
<path fill="none" stroke="#c0c0c0" stroke-width="2" d="M254.3891,-287.8314C241.5843,-278.7927 225.9371,-267.7476 212.1561,-258.0198"/>
<polygon fill="#c0c0c0" stroke="#c0c0c0" stroke-width="2" points="214.0468,-255.0703 203.8587,-252.1628 210.01,-260.7891 214.0468,-255.0703"/>
</g>
<!-- 7 -->
<g id="node8" class="node">
<title>7</title>
<path fill="none" stroke="#d87d56" stroke-width="2" d="M334.128,-252C334.128,-252 304.128,-252 304.128,-252 298.128,-252 292.128,-246 292.128,-240 292.128,-240 292.128,-228 292.128,-228 292.128,-222 298.128,-216 304.128,-216 304.128,-216 334.128,-216 334.128,-216 340.128,-216 346.128,-222 346.128,-228 346.128,-228 346.128,-240 346.128,-240 346.128,-246 340.128,-252 334.128,-252"/>
<text text-anchor="middle" x="319.128" y="-231.5" font-family="sans" font-size="10.00" fill="#000000">LibQC</text>
</g>
<!-- 3&#45;&gt;7 -->
<g id="edge21" class="edge">
<title>3&#45;&gt;7</title>
<path fill="none" stroke="#c0c0c0" stroke-width="2" d="M289.9693,-287.8314C294.3237,-279.7925 299.5378,-270.1666 304.3449,-261.2918"/>
<polygon fill="#c0c0c0" stroke="#c0c0c0" stroke-width="2" points="307.4688,-262.8732 309.1541,-252.4133 301.3137,-259.5392 307.4688,-262.8732"/>
</g>
<!-- 4 -->
<g id="node5" class="node">
<title>4</title>
<path fill="none" stroke="#5692d8" stroke-width="2" d="M305.128,-396C305.128,-396 255.128,-396 255.128,-396 249.128,-396 243.128,-390 243.128,-384 243.128,-384 243.128,-372 243.128,-372 243.128,-366 249.128,-360 255.128,-360 255.128,-360 305.128,-360 305.128,-360 311.128,-360 317.128,-366 317.128,-372 317.128,-372 317.128,-384 317.128,-384 317.128,-390 311.128,-396 305.128,-396"/>
<text text-anchor="middle" x="280.128" y="-375.5" font-family="sans" font-size="10.00" fill="#000000">sortParisam</text>
</g>
<!-- 4&#45;&gt;3 -->
<g id="edge18" class="edge">
<title>4&#45;&gt;3</title>
<path fill="none" stroke="#c0c0c0" stroke-width="2" d="M280.128,-359.8314C280.128,-352.131 280.128,-342.9743 280.128,-334.4166"/>
<polygon fill="#c0c0c0" stroke="#c0c0c0" stroke-width="2" points="283.6281,-334.4132 280.128,-324.4133 276.6281,-334.4133 283.6281,-334.4132"/>
</g>
<!-- 5 -->
<g id="node6" class="node">
<title>5</title>
<path fill="none" stroke="#d8a456" stroke-width="2" d="M324.628,-468C324.628,-468 235.628,-468 235.628,-468 229.628,-468 223.628,-462 223.628,-456 223.628,-456 223.628,-444 223.628,-444 223.628,-438 229.628,-432 235.628,-432 235.628,-432 324.628,-432 324.628,-432 330.628,-432 336.628,-438 336.628,-444 336.628,-444 336.628,-456 336.628,-456 336.628,-462 330.628,-468 324.628,-468"/>
<text text-anchor="middle" x="280.128" y="-447.5" font-family="sans" font-size="10.00" fill="#000000">RecordValidLigation</text>
</g>
<!-- 5&#45;&gt;4 -->
<g id="edge19" class="edge">
<title>5&#45;&gt;4</title>
<path fill="none" stroke="#c0c0c0" stroke-width="2" d="M280.128,-431.8314C280.128,-424.131 280.128,-414.9743 280.128,-406.4166"/>
<polygon fill="#c0c0c0" stroke="#c0c0c0" stroke-width="2" points="283.6281,-406.4132 280.128,-396.4133 276.6281,-406.4133 283.6281,-406.4132"/>
</g>
<!-- 6 -->
<g id="node7" class="node">
<title>6</title>
<path fill="none" stroke="#ced856" stroke-width="2" d="M295.128,-540C295.128,-540 265.128,-540 265.128,-540 259.128,-540 253.128,-534 253.128,-528 253.128,-528 253.128,-516 253.128,-516 253.128,-510 259.128,-504 265.128,-504 265.128,-504 295.128,-504 295.128,-504 301.128,-504 307.128,-510 307.128,-516 307.128,-516 307.128,-528 307.128,-528 307.128,-534 301.128,-540 295.128,-540"/>
<text text-anchor="middle" x="280.128" y="-519.5" font-family="sans" font-size="10.00" fill="#000000">bwa</text>
</g>
<!-- 6&#45;&gt;5 -->
<g id="edge20" class="edge">
<title>6&#45;&gt;5</title>
<path fill="none" stroke="#c0c0c0" stroke-width="2" d="M280.128,-503.8314C280.128,-496.131 280.128,-486.9743 280.128,-478.4166"/>
<polygon fill="#c0c0c0" stroke="#c0c0c0" stroke-width="2" points="283.6281,-478.4132 280.128,-468.4133 276.6281,-478.4133 283.6281,-478.4132"/>
</g>
<!-- 7&#45;&gt;0 -->
<g id="edge13" class="edge">
<title>7&#45;&gt;0</title>
<path fill="none" stroke="#c0c0c0" stroke-width="2" d="M322.2866,-215.9873C328.7136,-183.8324 345.9683,-115.8224 383.128,-72 397.4788,-55.0761 418.5411,-42.0344 436.6827,-33.0108"/>
<polygon fill="#c0c0c0" stroke="#c0c0c0" stroke-width="2" points="438.3188,-36.1085 445.8524,-28.659 435.3175,-29.7845 438.3188,-36.1085"/>
</g>
<!-- 8&#45;&gt;0 -->
<g id="edge5" class="edge">
<title>8&#45;&gt;0</title>
<path fill="none" stroke="#c0c0c0" stroke-width="2" d="M88.2256,-74.7033C91.2088,-73.7023 94.2019,-72.7833 97.128,-72 218.3689,-39.5429 367.1527,-25.4998 435.5182,-20.4303"/>
<polygon fill="#c0c0c0" stroke="#c0c0c0" stroke-width="2" points="436.0602,-23.9005 445.7835,-19.6923 435.5582,-16.9185 436.0602,-23.9005"/>
</g>
<!-- 9&#45;&gt;0 -->
<g id="edge9" class="edge">
<title>9&#45;&gt;0</title>
<path fill="none" stroke="#c0c0c0" stroke-width="2" d="M201.6835,-74.3268C204.5317,-73.5087 207.3623,-72.7261 210.128,-72 289.8453,-51.0704 384.9089,-33.2914 436.0895,-24.2956"/>
<polygon fill="#c0c0c0" stroke="#c0c0c0" stroke-width="2" points="436.7733,-27.7293 446.0233,-22.5632 435.5706,-20.8333 436.7733,-27.7293"/>
</g>
<!-- 10&#45;&gt;0 -->
<g id="edge1" class="edge">
<title>10&#45;&gt;0</title>
<path fill="none" stroke="#c0c0c0" stroke-width="2" d="M324.8362,-71.9243C359.464,-59.3324 404.8938,-42.8124 436.3002,-31.3919"/>
<polygon fill="#c0c0c0" stroke="#c0c0c0" stroke-width="2" points="437.7711,-34.5814 445.9729,-27.8746 435.3788,-28.0028 437.7711,-34.5814"/>
</g>
<!-- 11 -->
<g id="node12" class="node">
<title>11</title>
<path fill="none" stroke="#d86e56" stroke-width="2" d="M443.128,-900C443.128,-900 413.128,-900 413.128,-900 407.128,-900 401.128,-894 401.128,-888 401.128,-888 401.128,-876 401.128,-876 401.128,-870 407.128,-864 413.128,-864 413.128,-864 443.128,-864 443.128,-864 449.128,-864 455.128,-870 455.128,-876 455.128,-876 455.128,-888 455.128,-888 455.128,-894 449.128,-900 443.128,-900"/>
<text text-anchor="middle" x="428.128" y="-879.5" font-family="sans" font-size="10.00" fill="#000000">KMCdb</text>
</g>
<!-- 11&#45;&gt;0 -->
<g id="edge10" class="edge">
<title>11&#45;&gt;0</title>
<path fill="none" stroke="#c0c0c0" stroke-width="2" d="M421.5537,-863.6321C412.4539,-836.5223 397.128,-784.0309 397.128,-738 397.128,-738 397.128,-738 397.128,-162 397.128,-116.656 426.9664,-71.5999 449.2506,-44.2735"/>
<polygon fill="#c0c0c0" stroke="#c0c0c0" stroke-width="2" points="452.1286,-46.2889 455.8824,-36.3814 446.7695,-41.7856 452.1286,-46.2889"/>
</g>
<!-- 12 -->
<g id="node13" class="node">
<title>12</title>
<path fill="none" stroke="#d85656" stroke-width="2" d="M481.128,-828C481.128,-828 437.128,-828 437.128,-828 431.128,-828 425.128,-822 425.128,-816 425.128,-816 425.128,-804 425.128,-804 425.128,-798 431.128,-792 437.128,-792 437.128,-792 481.128,-792 481.128,-792 487.128,-792 493.128,-798 493.128,-804 493.128,-804 493.128,-816 493.128,-816 493.128,-822 487.128,-828 481.128,-828"/>
<text text-anchor="middle" x="459.128" y="-807.5" font-family="sans" font-size="10.00" fill="#000000">KMCDump</text>
</g>
<!-- 11&#45;&gt;12 -->
<g id="edge25" class="edge">
<title>11&#45;&gt;12</title>
<path fill="none" stroke="#c0c0c0" stroke-width="2" d="M435.9506,-863.8314C439.3389,-855.9617 443.3821,-846.5712 447.1356,-837.8533"/>
<polygon fill="#c0c0c0" stroke="#c0c0c0" stroke-width="2" points="450.4601,-838.9822 451.2001,-828.4133 444.0307,-836.214 450.4601,-838.9822"/>
</g>
<!-- 12&#45;&gt;0 -->
<g id="edge6" class="edge">
<title>12&#45;&gt;0</title>
<path fill="none" stroke="#c0c0c0" stroke-width="2" d="M454.1552,-791.9753C447.1254,-764.864 435.128,-711.8742 435.128,-666 435.128,-666 435.128,-666 435.128,-162 435.128,-120.3681 450.1608,-74.14 461.3161,-45.567"/>
<polygon fill="#c0c0c0" stroke="#c0c0c0" stroke-width="2" points="464.5858,-46.817 465.0692,-36.2332 458.0912,-44.2055 464.5858,-46.817"/>
</g>
<!-- 13 -->
<g id="node14" class="node">
<title>13</title>
<path fill="none" stroke="#566bd8" stroke-width="2" d="M514.628,-756C514.628,-756 475.628,-756 475.628,-756 469.628,-756 463.628,-750 463.628,-744 463.628,-744 463.628,-732 463.628,-732 463.628,-726 469.628,-720 475.628,-720 475.628,-720 514.628,-720 514.628,-720 520.628,-720 526.628,-726 526.628,-732 526.628,-732 526.628,-744 526.628,-744 526.628,-750 520.628,-756 514.628,-756"/>
<text text-anchor="middle" x="495.128" y="-735.5" font-family="sans" font-size="10.00" fill="#000000">subDump</text>
</g>
<!-- 12&#45;&gt;13 -->
<g id="edge26" class="edge">
<title>12&#45;&gt;13</title>
<path fill="none" stroke="#c0c0c0" stroke-width="2" d="M468.2123,-791.8314C472.1894,-783.8771 476.9435,-774.369 481.3418,-765.5723"/>
<polygon fill="#c0c0c0" stroke="#c0c0c0" stroke-width="2" points="484.5797,-766.9228 485.9214,-756.4133 478.3187,-763.7923 484.5797,-766.9228"/>
</g>
<!-- 13&#45;&gt;0 -->
<g id="edge11" class="edge">
<title>13&#45;&gt;0</title>
<path fill="none" stroke="#c0c0c0" stroke-width="2" d="M490.5696,-719.9498C484.1256,-692.8059 473.128,-639.775 473.128,-594 473.128,-594 473.128,-594 473.128,-162 473.128,-121.876 473.128,-75.4631 473.128,-46.4177"/>
<polygon fill="#c0c0c0" stroke="#c0c0c0" stroke-width="2" points="476.6281,-46.1853 473.128,-36.1854 469.6281,-46.1854 476.6281,-46.1853"/>
</g>
<!-- 14 -->
<g id="node15" class="node">
<title>14</title>
<path fill="none" stroke="#56d8d0" stroke-width="2" d="M558.628,-684C558.628,-684 513.628,-684 513.628,-684 507.628,-684 501.628,-678 501.628,-672 501.628,-672 501.628,-660 501.628,-660 501.628,-654 507.628,-648 513.628,-648 513.628,-648 558.628,-648 558.628,-648 564.628,-648 570.628,-654 570.628,-660 570.628,-660 570.628,-672 570.628,-672 570.628,-678 564.628,-684 558.628,-684"/>
<text text-anchor="middle" x="536.128" y="-663.5" font-family="sans" font-size="10.00" fill="#000000">patternList</text>
</g>
<!-- 13&#45;&gt;14 -->
<g id="edge27" class="edge">
<title>13&#45;&gt;14</title>
<path fill="none" stroke="#c0c0c0" stroke-width="2" d="M505.474,-719.8314C510.0517,-711.7925 515.5332,-702.1666 520.5868,-693.2918"/>
<polygon fill="#c0c0c0" stroke="#c0c0c0" stroke-width="2" points="523.7357,-694.8351 525.6427,-684.4133 517.6528,-691.3712 523.7357,-694.8351"/>
</g>
<!-- 14&#45;&gt;0 -->
<g id="edge12" class="edge">
<title>14&#45;&gt;0</title>
<path fill="none" stroke="#c0c0c0" stroke-width="2" d="M530.948,-647.9889C523.6253,-620.8949 511.128,-567.9269 511.128,-522 511.128,-522 511.128,-522 511.128,-162 511.128,-120.3681 496.0952,-74.14 484.9399,-45.567"/>
<polygon fill="#c0c0c0" stroke="#c0c0c0" stroke-width="2" points="488.1648,-44.2055 481.1868,-36.2332 481.6702,-46.817 488.1648,-44.2055"/>
</g>
<!-- 15 -->
<g id="node16" class="node">
<title>15</title>
<path fill="none" stroke="#56d0d8" stroke-width="2" d="M585.128,-612C585.128,-612 551.128,-612 551.128,-612 545.128,-612 539.128,-606 539.128,-600 539.128,-600 539.128,-588 539.128,-588 539.128,-582 545.128,-576 551.128,-576 551.128,-576 585.128,-576 585.128,-576 591.128,-576 597.128,-582 597.128,-588 597.128,-588 597.128,-600 597.128,-600 597.128,-606 591.128,-612 585.128,-612"/>
<text text-anchor="middle" x="568.128" y="-591.5" font-family="sans" font-size="10.00" fill="#000000">preFastq</text>
</g>
<!-- 14&#45;&gt;15 -->
<g id="edge28" class="edge">
<title>14&#45;&gt;15</title>
<path fill="none" stroke="#c0c0c0" stroke-width="2" d="M544.2029,-647.8314C547.7382,-639.8771 551.964,-630.369 555.8736,-621.5723"/>
<polygon fill="#c0c0c0" stroke="#c0c0c0" stroke-width="2" points="559.0812,-622.9729 559.9443,-612.4133 552.6845,-620.1299 559.0812,-622.9729"/>
</g>
<!-- 15&#45;&gt;0 -->
<g id="edge4" class="edge">
<title>15&#45;&gt;0</title>
<path fill="none" stroke="#c0c0c0" stroke-width="2" d="M564.1912,-575.9156C558.626,-548.7281 549.128,-495.6422 549.128,-450 549.128,-450 549.128,-450 549.128,-162 549.128,-120.6022 545.4662,-108.0574 525.128,-72 519.1934,-61.4787 510.7271,-51.4885 502.3447,-43.0273"/>
<polygon fill="#c0c0c0" stroke="#c0c0c0" stroke-width="2" points="504.6944,-40.4309 495.0658,-36.0103 499.8361,-45.4705 504.6944,-40.4309"/>
</g>
<!-- 21 -->
<g id="node22" class="node">
<title>21</title>
<path fill="none" stroke="#b6d856" stroke-width="2" d="M635.128,-540C635.128,-540 605.128,-540 605.128,-540 599.128,-540 593.128,-534 593.128,-528 593.128,-528 593.128,-516 593.128,-516 593.128,-510 599.128,-504 605.128,-504 605.128,-504 635.128,-504 635.128,-504 641.128,-504 647.128,-510 647.128,-516 647.128,-516 647.128,-528 647.128,-528 647.128,-534 641.128,-540 635.128,-540"/>
<text text-anchor="middle" x="620.128" y="-519.5" font-family="sans" font-size="10.00" fill="#000000">bwa2</text>
</g>
<!-- 15&#45;&gt;21 -->
<g id="edge34" class="edge">
<title>15&#45;&gt;21</title>
<path fill="none" stroke="#c0c0c0" stroke-width="2" d="M581.2498,-575.8314C587.1779,-567.6232 594.3009,-557.7606 600.8213,-548.7323"/>
<polygon fill="#c0c0c0" stroke="#c0c0c0" stroke-width="2" points="603.812,-550.5693 606.8295,-540.4133 598.1372,-546.4708 603.812,-550.5693"/>
</g>
<!-- 16 -->
<g id="node17" class="node">
<title>16</title>
<path fill="none" stroke="#8fd856" stroke-width="2" d="M631.128,-180C631.128,-180 589.128,-180 589.128,-180 583.128,-180 577.128,-174 577.128,-168 577.128,-168 577.128,-156 577.128,-156 577.128,-150 583.128,-144 589.128,-144 589.128,-144 631.128,-144 631.128,-144 637.128,-144 643.128,-150 643.128,-156 643.128,-156 643.128,-168 643.128,-168 643.128,-174 637.128,-180 631.128,-180"/>
<text text-anchor="middle" x="610.128" y="-159.5" font-family="sans" font-size="10.00" fill="#000000">finalBam2</text>
</g>
<!-- 16&#45;&gt;0 -->
<g id="edge8" class="edge">
<title>16&#45;&gt;0</title>
<path fill="none" stroke="#c0c0c0" stroke-width="2" d="M604.0958,-143.9915C596.8353,-124.4351 583.077,-93.1654 563.128,-72 548.0151,-55.9656 527.099,-43.0307 509.2339,-33.8447"/>
<polygon fill="#c0c0c0" stroke="#c0c0c0" stroke-width="2" points="510.7321,-30.6811 500.2166,-29.3862 507.6295,-36.9559 510.7321,-30.6811"/>
</g>
<!-- 23 -->
<g id="node24" class="node">
<title>23</title>
<path fill="none" stroke="#56d86b" stroke-width="2" d="M681.128,-108C681.128,-108 627.128,-108 627.128,-108 621.128,-108 615.128,-102 615.128,-96 615.128,-96 615.128,-84 615.128,-84 615.128,-78 621.128,-72 627.128,-72 627.128,-72 681.128,-72 681.128,-72 687.128,-72 693.128,-78 693.128,-84 693.128,-84 693.128,-96 693.128,-96 693.128,-102 687.128,-108 681.128,-108"/>
<text text-anchor="middle" x="654.128" y="-87.5" font-family="sans" font-size="10.00" fill="#000000">libComXQC2</text>
</g>
<!-- 16&#45;&gt;23 -->
<g id="edge36" class="edge">
<title>16&#45;&gt;23</title>
<path fill="none" stroke="#c0c0c0" stroke-width="2" d="M621.2311,-143.8314C626.1954,-135.7079 632.1502,-125.9637 637.6208,-117.0118"/>
<polygon fill="#c0c0c0" stroke="#c0c0c0" stroke-width="2" points="640.6474,-118.7712 642.8754,-108.4133 634.6744,-115.121 640.6474,-118.7712"/>
</g>
<!-- 17 -->
<g id="node18" class="node">
<title>17</title>
<path fill="none" stroke="#56d892" stroke-width="2" d="M751.628,-252C751.628,-252 672.628,-252 672.628,-252 666.628,-252 660.628,-246 660.628,-240 660.628,-240 660.628,-228 660.628,-228 660.628,-222 666.628,-216 672.628,-216 672.628,-216 751.628,-216 751.628,-216 757.628,-216 763.628,-222 763.628,-228 763.628,-228 763.628,-240 763.628,-240 763.628,-246 757.628,-252 751.628,-252"/>
<text text-anchor="middle" x="712.128" y="-231.5" font-family="sans" font-size="10.00" fill="#000000">makePairsNSam2</text>
</g>
<!-- 17&#45;&gt;16 -->
<g id="edge29" class="edge">
<title>17&#45;&gt;16</title>
<path fill="none" stroke="#c0c0c0" stroke-width="2" d="M686.3891,-215.8314C673.5843,-206.7927 657.9371,-195.7476 644.1561,-186.0198"/>
<polygon fill="#c0c0c0" stroke="#c0c0c0" stroke-width="2" points="646.0468,-183.0703 635.8587,-180.1628 642.01,-188.7891 646.0468,-183.0703"/>
</g>
<!-- 24 -->
<g id="node25" class="node">
<title>24</title>
<path fill="none" stroke="#68d856" stroke-width="2" d="M750.628,-180C750.628,-180 673.628,-180 673.628,-180 667.628,-180 661.628,-174 661.628,-168 661.628,-168 661.628,-156 661.628,-156 661.628,-150 667.628,-144 673.628,-144 673.628,-144 750.628,-144 750.628,-144 756.628,-144 762.628,-150 762.628,-156 762.628,-156 762.628,-168 762.628,-168 762.628,-174 756.628,-180 750.628,-180"/>
<text text-anchor="middle" x="712.128" y="-159.5" font-family="sans" font-size="10.00" fill="#000000">hicContacMatrix2</text>
</g>
<!-- 17&#45;&gt;24 -->
<g id="edge37" class="edge">
<title>17&#45;&gt;24</title>
<path fill="none" stroke="#c0c0c0" stroke-width="2" d="M712.128,-215.8314C712.128,-208.131 712.128,-198.9743 712.128,-190.4166"/>
<polygon fill="#c0c0c0" stroke="#c0c0c0" stroke-width="2" points="715.6281,-190.4132 712.128,-180.4133 708.6281,-190.4133 715.6281,-190.4132"/>
</g>
<!-- 25 -->
<g id="node26" class="node">
<title>25</title>
<path fill="none" stroke="#56d8b9" stroke-width="2" d="M885.628,-180C885.628,-180 792.628,-180 792.628,-180 786.628,-180 780.628,-174 780.628,-168 780.628,-168 780.628,-156 780.628,-156 780.628,-150 786.628,-144 792.628,-144 792.628,-144 885.628,-144 885.628,-144 891.628,-144 897.628,-150 897.628,-156 897.628,-156 897.628,-168 897.628,-168 897.628,-174 891.628,-180 885.628,-180"/>
<text text-anchor="middle" x="839.128" y="-159.5" font-family="sans" font-size="10.00" fill="#000000">mcoolContacMatrix2</text>
</g>
<!-- 17&#45;&gt;25 -->
<g id="edge38" class="edge">
<title>17&#45;&gt;25</title>
<path fill="none" stroke="#c0c0c0" stroke-width="2" d="M744.1755,-215.8314C760.5699,-206.5368 780.7066,-195.1208 798.2109,-185.1971"/>
<polygon fill="#c0c0c0" stroke="#c0c0c0" stroke-width="2" points="800.1177,-188.1395 807.0908,-180.1628 796.6654,-182.05 800.1177,-188.1395"/>
</g>
<!-- 18 -->
<g id="node19" class="node">
<title>18</title>
<path fill="none" stroke="#56a9d8" stroke-width="2" d="M737.628,-324C737.628,-324 686.628,-324 686.628,-324 680.628,-324 674.628,-318 674.628,-312 674.628,-312 674.628,-300 674.628,-300 674.628,-294 680.628,-288 686.628,-288 686.628,-288 737.628,-288 737.628,-288 743.628,-288 749.628,-294 749.628,-300 749.628,-300 749.628,-312 749.628,-312 749.628,-318 743.628,-324 737.628,-324"/>
<text text-anchor="middle" x="712.128" y="-303.5" font-family="sans" font-size="10.00" fill="#000000">rmPCRDup2</text>
</g>
<!-- 18&#45;&gt;17 -->
<g id="edge30" class="edge">
<title>18&#45;&gt;17</title>
<path fill="none" stroke="#c0c0c0" stroke-width="2" d="M712.128,-287.8314C712.128,-280.131 712.128,-270.9743 712.128,-262.4166"/>
<polygon fill="#c0c0c0" stroke="#c0c0c0" stroke-width="2" points="715.6281,-262.4132 712.128,-252.4133 708.6281,-262.4133 715.6281,-262.4132"/>
</g>
<!-- 22 -->
<g id="node23" class="node">
<title>22</title>
<path fill="none" stroke="#d89556" stroke-width="2" d="M882.128,-252C882.128,-252 852.128,-252 852.128,-252 846.128,-252 840.128,-246 840.128,-240 840.128,-240 840.128,-228 840.128,-228 840.128,-222 846.128,-216 852.128,-216 852.128,-216 882.128,-216 882.128,-216 888.128,-216 894.128,-222 894.128,-228 894.128,-228 894.128,-240 894.128,-240 894.128,-246 888.128,-252 882.128,-252"/>
<text text-anchor="middle" x="867.128" y="-231.5" font-family="sans" font-size="10.00" fill="#000000">LibQC2</text>
</g>
<!-- 18&#45;&gt;22 -->
<g id="edge35" class="edge">
<title>18&#45;&gt;22</title>
<path fill="none" stroke="#c0c0c0" stroke-width="2" d="M749.6492,-288.5708C774.1688,-277.181 806.0407,-262.376 830.3996,-251.0609"/>
<polygon fill="#c0c0c0" stroke="#c0c0c0" stroke-width="2" points="832.0734,-254.1427 839.6682,-246.7555 829.1243,-247.7942 832.0734,-254.1427"/>
</g>
<!-- 19 -->
<g id="node20" class="node">
<title>19</title>
<path fill="none" stroke="#567bd8" stroke-width="2" d="M721.128,-396C721.128,-396 665.128,-396 665.128,-396 659.128,-396 653.128,-390 653.128,-384 653.128,-384 653.128,-372 653.128,-372 653.128,-366 659.128,-360 665.128,-360 665.128,-360 721.128,-360 721.128,-360 727.128,-360 733.128,-366 733.128,-372 733.128,-372 733.128,-384 733.128,-384 733.128,-390 727.128,-396 721.128,-396"/>
<text text-anchor="middle" x="693.128" y="-375.5" font-family="sans" font-size="10.00" fill="#000000">sortParisam2</text>
</g>
<!-- 19&#45;&gt;18 -->
<g id="edge31" class="edge">
<title>19&#45;&gt;18</title>
<path fill="none" stroke="#c0c0c0" stroke-width="2" d="M697.9225,-359.8314C699.9769,-352.0463 702.424,-342.7729 704.7036,-334.1347"/>
<polygon fill="#c0c0c0" stroke="#c0c0c0" stroke-width="2" points="708.1015,-334.9753 707.2689,-324.4133 701.3332,-333.1892 708.1015,-334.9753"/>
</g>
<!-- 20 -->
<g id="node21" class="node">
<title>20</title>
<path fill="none" stroke="#d8bc56" stroke-width="2" d="M721.628,-468C721.628,-468 626.628,-468 626.628,-468 620.628,-468 614.628,-462 614.628,-456 614.628,-456 614.628,-444 614.628,-444 614.628,-438 620.628,-432 626.628,-432 626.628,-432 721.628,-432 721.628,-432 727.628,-432 733.628,-438 733.628,-444 733.628,-444 733.628,-456 733.628,-456 733.628,-462 727.628,-468 721.628,-468"/>
<text text-anchor="middle" x="674.128" y="-447.5" font-family="sans" font-size="10.00" fill="#000000">RecordValidLigation2</text>
</g>
<!-- 20&#45;&gt;19 -->
<g id="edge32" class="edge">
<title>20&#45;&gt;19</title>
<path fill="none" stroke="#c0c0c0" stroke-width="2" d="M678.9225,-431.8314C680.9769,-424.0463 683.424,-414.7729 685.7036,-406.1347"/>
<polygon fill="#c0c0c0" stroke="#c0c0c0" stroke-width="2" points="689.1015,-406.9753 688.2689,-396.4133 682.3332,-405.1892 689.1015,-406.9753"/>
</g>
<!-- 21&#45;&gt;20 -->
<g id="edge33" class="edge">
<title>21&#45;&gt;20</title>
<path fill="none" stroke="#c0c0c0" stroke-width="2" d="M633.7545,-503.8314C639.974,-495.5386 647.4602,-485.557 654.288,-476.4533"/>
<polygon fill="#c0c0c0" stroke="#c0c0c0" stroke-width="2" points="657.118,-478.5133 660.318,-468.4133 651.518,-474.3133 657.118,-478.5133"/>
</g>
<!-- 22&#45;&gt;0 -->
<g id="edge14" class="edge">
<title>22&#45;&gt;0</title>
<path fill="none" stroke="#c0c0c0" stroke-width="2" d="M885.168,-215.677C901.3269,-196.9515 920.4428,-167.3828 906.128,-144 863.8771,-74.9845 607.5264,-35.2705 510.3927,-22.5376"/>
<polygon fill="#c0c0c0" stroke="#c0c0c0" stroke-width="2" points="510.7925,-19.0603 500.4271,-21.2531 509.8976,-26.0029 510.7925,-19.0603"/>
</g>
<!-- 23&#45;&gt;0 -->
<g id="edge2" class="edge">
<title>23&#45;&gt;0</title>
<path fill="none" stroke="#c0c0c0" stroke-width="2" d="M614.8537,-74.3771C583.6122,-61.9495 540.2268,-44.6912 509.7118,-32.5527"/>
<polygon fill="#c0c0c0" stroke="#c0c0c0" stroke-width="2" points="510.8738,-29.2482 500.2882,-28.8041 508.2864,-35.7525 510.8738,-29.2482"/>
</g>
<!-- 24&#45;&gt;0 -->
<g id="edge3" class="edge">
<title>24&#45;&gt;0</title>
<path fill="none" stroke="#c0c0c0" stroke-width="2" d="M715.7055,-143.6936C718.5001,-123.5778 719.4327,-91.5347 702.128,-72 677.0758,-43.7194 568.6557,-28.1137 510.4326,-21.6319"/>
<polygon fill="#c0c0c0" stroke="#c0c0c0" stroke-width="2" points="510.4941,-18.1184 500.1767,-20.5268 509.7441,-25.0781 510.4941,-18.1184"/>
</g>
<!-- 25&#45;&gt;0 -->
<g id="edge15" class="edge">
<title>25&#45;&gt;0</title>
<path fill="none" stroke="#c0c0c0" stroke-width="2" d="M821.3772,-143.8106C800.1727,-123.1786 762.7001,-90.0638 724.128,-72 653.0906,-38.7323 561.1068,-25.6848 510.5447,-20.7785"/>
<polygon fill="#c0c0c0" stroke="#c0c0c0" stroke-width="2" points="510.6838,-17.2767 500.4064,-19.8508 510.0458,-24.2476 510.6838,-17.2767"/>
</g>
</g>
</svg>
