<?xml version="1.0" encoding="UTF-8" standalone="no"?>
<!DOCTYPE svg PUBLIC "-//W3C//DTD SVG 1.1//EN"
 "http://www.w3.org/Graphics/SVG/1.1/DTD/svg11.dtd">
<!-- Generated by graphviz version 2.40.1 (0)
 -->
<!-- Title: snakemake_dag Pages: 1 -->
<svg width="489pt" height="692pt"
 viewBox="0.00 0.00 489.00 692.00" xmlns="http://www.w3.org/2000/svg" xmlns:xlink="http://www.w3.org/1999/xlink">
<g id="graph0" class="graph" transform="scale(1 1) rotate(0) translate(4 688)">
<title>snakemake_dag</title>
<polygon fill="#ffffff" stroke="transparent" points="-4,4 -4,-688 485,-688 485,4 -4,4"/>
<!-- 0 -->
<g id="node1" class="node">
<title>0</title>
<path fill="none" stroke="#d8bc56" stroke-width="2" d="M178,-36C178,-36 148,-36 148,-36 142,-36 136,-30 136,-24 136,-24 136,-12 136,-12 136,-6 142,0 148,0 148,0 178,0 178,0 184,0 190,-6 190,-12 190,-12 190,-24 190,-24 190,-30 184,-36 178,-36"/>
<text text-anchor="middle" x="163" y="-15.5" font-family="sans" font-size="10.00" fill="#000000">all</text>
</g>
<!-- 1 -->
<g id="node2" class="node">
<title>1</title>
<path fill="none" stroke="#d88556" stroke-width="2" d="M42,-180C42,-180 12,-180 12,-180 6,-180 0,-174 0,-168 0,-168 0,-156 0,-156 0,-150 6,-144 12,-144 12,-144 42,-144 42,-144 48,-144 54,-150 54,-156 54,-156 54,-168 54,-168 54,-174 48,-180 42,-180"/>
<text text-anchor="middle" x="27" y="-159.5" font-family="sans" font-size="10.00" fill="#000000">LibQC</text>
</g>
<!-- 1&#45;&gt;0 -->
<g id="edge4" class="edge">
<title>1&#45;&gt;0</title>
<path fill="none" stroke="#c0c0c0" stroke-width="2" d="M26.2677,-143.7774C26.4269,-124.0335 29.5709,-92.6005 46,-72 65.8259,-47.1403 99.7026,-33.2394 125.9165,-25.7916"/>
<polygon fill="#c0c0c0" stroke="#c0c0c0" stroke-width="2" points="127.1243,-29.0927 135.8998,-23.1563 125.3377,-22.3246 127.1243,-29.0927"/>
</g>
<!-- 2 -->
<g id="node3" class="node">
<title>2</title>
<path fill="none" stroke="#56a9d8" stroke-width="2" d="M111.5,-468C111.5,-468 66.5,-468 66.5,-468 60.5,-468 54.5,-462 54.5,-456 54.5,-456 54.5,-444 54.5,-444 54.5,-438 60.5,-432 66.5,-432 66.5,-432 111.5,-432 111.5,-432 117.5,-432 123.5,-438 123.5,-444 123.5,-444 123.5,-456 123.5,-456 123.5,-462 117.5,-468 111.5,-468"/>
<text text-anchor="middle" x="89" y="-447.5" font-family="sans" font-size="10.00" fill="#000000">rmPCRDup</text>
</g>
<!-- 2&#45;&gt;1 -->
<g id="edge6" class="edge">
<title>2&#45;&gt;1</title>
<path fill="none" stroke="#c0c0c0" stroke-width="2" d="M83.9578,-431.7267C77.3082,-407.2934 65.4616,-362.5795 57,-324 46.7598,-277.3112 37.1053,-222.5468 31.6353,-190.1443"/>
<polygon fill="#c0c0c0" stroke="#c0c0c0" stroke-width="2" points="35.0497,-189.3414 29.9459,-180.057 28.1458,-190.4977 35.0497,-189.3414"/>
</g>
<!-- 8 -->
<g id="node9" class="node">
<title>8</title>
<path fill="none" stroke="#56d892" stroke-width="2" d="M194.5,-396C194.5,-396 121.5,-396 121.5,-396 115.5,-396 109.5,-390 109.5,-384 109.5,-384 109.5,-372 109.5,-372 109.5,-366 115.5,-360 121.5,-360 121.5,-360 194.5,-360 194.5,-360 200.5,-360 206.5,-366 206.5,-372 206.5,-372 206.5,-384 206.5,-384 206.5,-390 200.5,-396 194.5,-396"/>
<text text-anchor="middle" x="158" y="-375.5" font-family="sans" font-size="10.00" fill="#000000">makePairsNSam</text>
</g>
<!-- 2&#45;&gt;8 -->
<g id="edge12" class="edge">
<title>2&#45;&gt;8</title>
<path fill="none" stroke="#c0c0c0" stroke-width="2" d="M106.4116,-431.8314C114.521,-423.3694 124.3156,-413.1489 133.182,-403.8971"/>
<polygon fill="#c0c0c0" stroke="#c0c0c0" stroke-width="2" points="135.9618,-406.0549 140.354,-396.4133 130.9079,-401.2115 135.9618,-406.0549"/>
</g>
<!-- 3 -->
<g id="node4" class="node">
<title>3</title>
<path fill="none" stroke="#5692d8" stroke-width="2" d="M114,-540C114,-540 64,-540 64,-540 58,-540 52,-534 52,-528 52,-528 52,-516 52,-516 52,-510 58,-504 64,-504 64,-504 114,-504 114,-504 120,-504 126,-510 126,-516 126,-516 126,-528 126,-528 126,-534 120,-540 114,-540"/>
<text text-anchor="middle" x="89" y="-519.5" font-family="sans" font-size="10.00" fill="#000000">sortParisam</text>
</g>
<!-- 3&#45;&gt;2 -->
<g id="edge7" class="edge">
<title>3&#45;&gt;2</title>
<path fill="none" stroke="#c0c0c0" stroke-width="2" d="M89,-503.8314C89,-496.131 89,-486.9743 89,-478.4166"/>
<polygon fill="#c0c0c0" stroke="#c0c0c0" stroke-width="2" points="92.5001,-478.4132 89,-468.4133 85.5001,-478.4133 92.5001,-478.4132"/>
</g>
<!-- 4 -->
<g id="node5" class="node">
<title>4</title>
<path fill="none" stroke="#d8a456" stroke-width="2" d="M133.5,-612C133.5,-612 44.5,-612 44.5,-612 38.5,-612 32.5,-606 32.5,-600 32.5,-600 32.5,-588 32.5,-588 32.5,-582 38.5,-576 44.5,-576 44.5,-576 133.5,-576 133.5,-576 139.5,-576 145.5,-582 145.5,-588 145.5,-588 145.5,-600 145.5,-600 145.5,-606 139.5,-612 133.5,-612"/>
<text text-anchor="middle" x="89" y="-591.5" font-family="sans" font-size="10.00" fill="#000000">RecordValidLigation</text>
</g>
<!-- 4&#45;&gt;3 -->
<g id="edge8" class="edge">
<title>4&#45;&gt;3</title>
<path fill="none" stroke="#c0c0c0" stroke-width="2" d="M89,-575.8314C89,-568.131 89,-558.9743 89,-550.4166"/>
<polygon fill="#c0c0c0" stroke="#c0c0c0" stroke-width="2" points="92.5001,-550.4132 89,-540.4133 85.5001,-550.4133 92.5001,-550.4132"/>
</g>
<!-- 5 -->
<g id="node6" class="node">
<title>5</title>
<path fill="none" stroke="#c6d856" stroke-width="2" d="M104,-684C104,-684 74,-684 74,-684 68,-684 62,-678 62,-672 62,-672 62,-660 62,-660 62,-654 68,-648 74,-648 74,-648 104,-648 104,-648 110,-648 116,-654 116,-660 116,-660 116,-672 116,-672 116,-678 110,-684 104,-684"/>
<text text-anchor="middle" x="89" y="-663.5" font-family="sans" font-size="10.00" fill="#000000">bwa</text>
</g>
<!-- 5&#45;&gt;4 -->
<g id="edge9" class="edge">
<title>5&#45;&gt;4</title>
<path fill="none" stroke="#c0c0c0" stroke-width="2" d="M89,-647.8314C89,-640.131 89,-630.9743 89,-622.4166"/>
<polygon fill="#c0c0c0" stroke="#c0c0c0" stroke-width="2" points="92.5001,-622.4132 89,-612.4133 85.5001,-622.4133 92.5001,-622.4132"/>
</g>
<!-- 6 -->
<g id="node7" class="node">
<title>6</title>
<path fill="none" stroke="#d8c356" stroke-width="2" d="M122.5,-108C122.5,-108 67.5,-108 67.5,-108 61.5,-108 55.5,-102 55.5,-96 55.5,-96 55.5,-84 55.5,-84 55.5,-78 61.5,-72 67.5,-72 67.5,-72 122.5,-72 122.5,-72 128.5,-72 134.5,-78 134.5,-84 134.5,-84 134.5,-96 134.5,-96 134.5,-102 128.5,-108 122.5,-108"/>
<text text-anchor="middle" x="95" y="-87.5" font-family="sans" font-size="10.00" fill="#000000">bamCoverge</text>
</g>
<!-- 6&#45;&gt;0 -->
<g id="edge1" class="edge">
<title>6&#45;&gt;0</title>
<path fill="none" stroke="#c0c0c0" stroke-width="2" d="M112.1593,-71.8314C120.1511,-63.3694 129.8038,-53.1489 138.5416,-43.8971"/>
<polygon fill="#c0c0c0" stroke="#c0c0c0" stroke-width="2" points="141.288,-46.0866 145.6097,-36.4133 136.1989,-41.2802 141.288,-46.0866"/>
</g>
<!-- 7 -->
<g id="node8" class="node">
<title>7</title>
<path fill="none" stroke="#97d856" stroke-width="2" d="M114,-324C114,-324 78,-324 78,-324 72,-324 66,-318 66,-312 66,-312 66,-300 66,-300 66,-294 72,-288 78,-288 78,-288 114,-288 114,-288 120,-288 126,-294 126,-300 126,-300 126,-312 126,-312 126,-318 120,-324 114,-324"/>
<text text-anchor="middle" x="96" y="-303.5" font-family="sans" font-size="10.00" fill="#000000">finalBam</text>
</g>
<!-- 7&#45;&gt;6 -->
<g id="edge10" class="edge">
<title>7&#45;&gt;6</title>
<path fill="none" stroke="#c0c0c0" stroke-width="2" d="M95.9165,-287.9555C95.7426,-250.3938 95.3405,-163.5541 95.1315,-118.4103"/>
<polygon fill="#c0c0c0" stroke="#c0c0c0" stroke-width="2" points="98.6304,-118.1287 95.084,-108.1451 91.6304,-118.1612 98.6304,-118.1287"/>
</g>
<!-- 8&#45;&gt;7 -->
<g id="edge11" class="edge">
<title>8&#45;&gt;7</title>
<path fill="none" stroke="#c0c0c0" stroke-width="2" d="M142.3548,-359.8314C135.1409,-351.454 126.443,-341.3531 118.5395,-332.1749"/>
<polygon fill="#c0c0c0" stroke="#c0c0c0" stroke-width="2" points="121.0333,-329.7071 111.8559,-324.4133 115.7289,-334.2748 121.0333,-329.7071"/>
</g>
<!-- 9 -->
<g id="node10" class="node">
<title>9</title>
<path fill="none" stroke="#56d863" stroke-width="2" d="M193.5,-252C193.5,-252 122.5,-252 122.5,-252 116.5,-252 110.5,-246 110.5,-240 110.5,-240 110.5,-228 110.5,-228 110.5,-222 116.5,-216 122.5,-216 122.5,-216 193.5,-216 193.5,-216 199.5,-216 205.5,-222 205.5,-228 205.5,-228 205.5,-240 205.5,-240 205.5,-246 199.5,-252 193.5,-252"/>
<text text-anchor="middle" x="158" y="-231.5" font-family="sans" font-size="10.00" fill="#000000">hicContacMatrix</text>
</g>
<!-- 8&#45;&gt;9 -->
<g id="edge13" class="edge">
<title>8&#45;&gt;9</title>
<path fill="none" stroke="#c0c0c0" stroke-width="2" d="M158,-359.7623C158,-335.201 158,-291.2474 158,-262.3541"/>
<polygon fill="#c0c0c0" stroke="#c0c0c0" stroke-width="2" points="161.5001,-262.0896 158,-252.0896 154.5001,-262.0897 161.5001,-262.0896"/>
</g>
<!-- 10 -->
<g id="node11" class="node">
<title>10</title>
<path fill="none" stroke="#56d8b9" stroke-width="2" d="M322.5,-252C322.5,-252 235.5,-252 235.5,-252 229.5,-252 223.5,-246 223.5,-240 223.5,-240 223.5,-228 223.5,-228 223.5,-222 229.5,-216 235.5,-216 235.5,-216 322.5,-216 322.5,-216 328.5,-216 334.5,-222 334.5,-228 334.5,-228 334.5,-240 334.5,-240 334.5,-246 328.5,-252 322.5,-252"/>
<text text-anchor="middle" x="279" y="-231.5" font-family="sans" font-size="10.00" fill="#000000">mcoolContacMatrix</text>
</g>
<!-- 8&#45;&gt;10 -->
<g id="edge14" class="edge">
<title>8&#45;&gt;10</title>
<path fill="none" stroke="#c0c0c0" stroke-width="2" d="M173.3247,-359.7623C194.5085,-334.5518 232.8601,-288.9103 257.0728,-260.0952"/>
<polygon fill="#c0c0c0" stroke="#c0c0c0" stroke-width="2" points="260.0461,-261.9973 263.7997,-252.0896 254.6869,-257.494 260.0461,-261.9973"/>
</g>
<!-- 14 -->
<g id="node15" class="node">
<title>14</title>
<path fill="none" stroke="#56d8d0" stroke-width="2" d="M381,-324C381,-324 335,-324 335,-324 329,-324 323,-318 323,-312 323,-312 323,-300 323,-300 323,-294 329,-288 335,-288 335,-288 381,-288 381,-288 387,-288 393,-294 393,-300 393,-300 393,-312 393,-312 393,-318 387,-324 381,-324"/>
<text text-anchor="middle" x="358" y="-303.5" font-family="sans" font-size="10.00" fill="#000000">parisDump</text>
</g>
<!-- 8&#45;&gt;14 -->
<g id="edge18" class="edge">
<title>8&#45;&gt;14</title>
<path fill="none" stroke="#c0c0c0" stroke-width="2" d="M206.6698,-360.4789C239.2582,-348.747 281.825,-333.423 313.5094,-322.0166"/>
<polygon fill="#c0c0c0" stroke="#c0c0c0" stroke-width="2" points="314.7467,-325.2912 322.97,-318.6108 312.3756,-318.7049 314.7467,-325.2912"/>
</g>
<!-- 9&#45;&gt;0 -->
<g id="edge3" class="edge">
<title>9&#45;&gt;0</title>
<path fill="none" stroke="#c0c0c0" stroke-width="2" d="M158.4177,-215.9555C159.2872,-178.3938 161.2974,-91.5541 162.3424,-46.4103"/>
<polygon fill="#c0c0c0" stroke="#c0c0c0" stroke-width="2" points="165.8475,-46.2234 162.58,-36.1451 158.8494,-46.0614 165.8475,-46.2234"/>
</g>
<!-- 10&#45;&gt;0 -->
<g id="edge5" class="edge">
<title>10&#45;&gt;0</title>
<path fill="none" stroke="#c0c0c0" stroke-width="2" d="M269.3094,-215.9555C248.9242,-177.9967 201.5124,-89.7127 177.4961,-44.9928"/>
<polygon fill="#c0c0c0" stroke="#c0c0c0" stroke-width="2" points="180.5594,-43.2991 172.7446,-36.1451 174.3924,-46.611 180.5594,-43.2991"/>
</g>
<!-- 11 -->
<g id="node12" class="node">
<title>11</title>
<path fill="none" stroke="#56b9d8" stroke-width="2" d="M356.5,-108C356.5,-108 309.5,-108 309.5,-108 303.5,-108 297.5,-102 297.5,-96 297.5,-96 297.5,-84 297.5,-84 297.5,-78 303.5,-72 309.5,-72 309.5,-72 356.5,-72 356.5,-72 362.5,-72 368.5,-78 368.5,-84 368.5,-84 368.5,-96 368.5,-96 368.5,-102 362.5,-108 356.5,-108"/>
<text text-anchor="middle" x="333" y="-87.5" font-family="sans" font-size="10.00" fill="#000000">plotCircos2</text>
</g>
<!-- 11&#45;&gt;0 -->
<g id="edge2" class="edge">
<title>11&#45;&gt;0</title>
<path fill="none" stroke="#c0c0c0" stroke-width="2" d="M297.3624,-74.9064C268.671,-62.7548 228.4966,-45.7397 199.5621,-33.4851"/>
<polygon fill="#c0c0c0" stroke="#c0c0c0" stroke-width="2" points="200.7864,-30.2027 190.2133,-29.5256 198.0564,-36.6485 200.7864,-30.2027"/>
</g>
<!-- 12 -->
<g id="node13" class="node">
<title>12</title>
<path fill="none" stroke="#9fd856" stroke-width="2" d="M388.5,-180C388.5,-180 335.5,-180 335.5,-180 329.5,-180 323.5,-174 323.5,-168 323.5,-168 323.5,-156 323.5,-156 323.5,-150 329.5,-144 335.5,-144 335.5,-144 388.5,-144 388.5,-144 394.5,-144 400.5,-150 400.5,-156 400.5,-156 400.5,-168 400.5,-168 400.5,-174 394.5,-180 388.5,-180"/>
<text text-anchor="middle" x="362" y="-159.5" font-family="sans" font-size="10.00" fill="#000000">circoConfig2</text>
</g>
<!-- 12&#45;&gt;11 -->
<g id="edge15" class="edge">
<title>12&#45;&gt;11</title>
<path fill="none" stroke="#c0c0c0" stroke-width="2" d="M354.6821,-143.8314C351.5124,-135.9617 347.73,-126.5712 344.2187,-117.8533"/>
<polygon fill="#c0c0c0" stroke="#c0c0c0" stroke-width="2" points="347.3992,-116.3815 340.4165,-108.4133 340.9061,-118.9968 347.3992,-116.3815"/>
</g>
<!-- 13 -->
<g id="node14" class="node">
<title>13</title>
<path fill="none" stroke="#56d88a" stroke-width="2" d="M469,-252C469,-252 365,-252 365,-252 359,-252 353,-246 353,-240 353,-240 353,-228 353,-228 353,-222 359,-216 365,-216 365,-216 469,-216 469,-216 475,-216 481,-222 481,-228 481,-228 481,-240 481,-240 481,-246 475,-252 469,-252"/>
<text text-anchor="middle" x="417" y="-231.5" font-family="sans" font-size="10.00" fill="#000000">keepMultipleAlignPair2</text>
</g>
<!-- 13&#45;&gt;12 -->
<g id="edge16" class="edge">
<title>13&#45;&gt;12</title>
<path fill="none" stroke="#c0c0c0" stroke-width="2" d="M403.1212,-215.8314C396.7864,-207.5386 389.1616,-197.557 382.2074,-188.4533"/>
<polygon fill="#c0c0c0" stroke="#c0c0c0" stroke-width="2" points="384.9175,-186.2353 376.0657,-180.4133 379.3548,-190.4847 384.9175,-186.2353"/>
</g>
<!-- 14&#45;&gt;13 -->
<g id="edge17" class="edge">
<title>14&#45;&gt;13</title>
<path fill="none" stroke="#c0c0c0" stroke-width="2" d="M372.8882,-287.8314C379.753,-279.454 388.0301,-269.3531 395.5511,-260.1749"/>
<polygon fill="#c0c0c0" stroke="#c0c0c0" stroke-width="2" points="398.2803,-262.3665 401.9114,-252.4133 392.8659,-257.9297 398.2803,-262.3665"/>
</g>
</g>
</svg>
