<?xml version="1.0" encoding="UTF-8" standalone="no"?>
<!DOCTYPE svg PUBLIC "-//W3C//DTD SVG 1.1//EN"
 "http://www.w3.org/Graphics/SVG/1.1/DTD/svg11.dtd">
<!-- Generated by graphviz version 2.40.1 (0)
 -->
<!-- Title: snakemake_dag Pages: 1 -->
<svg width="482pt" height="980pt"
 viewBox="0.00 0.00 481.50 980.00" xmlns="http://www.w3.org/2000/svg" xmlns:xlink="http://www.w3.org/1999/xlink">
<g id="graph0" class="graph" transform="scale(1 1) rotate(0) translate(4 976)">
<title>snakemake_dag</title>
<polygon fill="#ffffff" stroke="transparent" points="-4,4 -4,-976 477.5,-976 477.5,4 -4,4"/>
<!-- 0 -->
<g id="node1" class="node">
<title>0</title>
<path fill="none" stroke="#d8cb56" stroke-width="2" d="M195,-36C195,-36 165,-36 165,-36 159,-36 153,-30 153,-24 153,-24 153,-12 153,-12 153,-6 159,0 165,0 165,0 195,0 195,0 201,0 207,-6 207,-12 207,-12 207,-24 207,-24 207,-30 201,-36 195,-36"/>
<text text-anchor="middle" x="180" y="-15.5" font-family="sans" font-size="10.00" fill="#000000">all</text>
</g>
<!-- 1 -->
<g id="node2" class="node">
<title>1</title>
<path fill="none" stroke="#d8a456" stroke-width="2" d="M42,-180C42,-180 12,-180 12,-180 6,-180 0,-174 0,-168 0,-168 0,-156 0,-156 0,-150 6,-144 12,-144 12,-144 42,-144 42,-144 48,-144 54,-150 54,-156 54,-156 54,-168 54,-168 54,-174 48,-180 42,-180"/>
<text text-anchor="middle" x="27" y="-159.5" font-family="sans" font-size="10.00" fill="#000000">LibQC2</text>
</g>
<!-- 1&#45;&gt;0 -->
<g id="edge2" class="edge">
<title>1&#45;&gt;0</title>
<path fill="none" stroke="#c0c0c0" stroke-width="2" d="M24.11,-143.719C22.0433,-123.924 21.9831,-92.4465 38,-72 63.1702,-39.8688 109.7993,-26.8515 142.7458,-21.5808"/>
<polygon fill="#c0c0c0" stroke="#c0c0c0" stroke-width="2" points="143.5131,-25.0068 152.9174,-20.1274 142.5228,-18.0772 143.5131,-25.0068"/>
</g>
<!-- 2 -->
<g id="node3" class="node">
<title>2</title>
<path fill="none" stroke="#56b9d8" stroke-width="2" d="M245.5,-468C245.5,-468 194.5,-468 194.5,-468 188.5,-468 182.5,-462 182.5,-456 182.5,-456 182.5,-444 182.5,-444 182.5,-438 188.5,-432 194.5,-432 194.5,-432 245.5,-432 245.5,-432 251.5,-432 257.5,-438 257.5,-444 257.5,-444 257.5,-456 257.5,-456 257.5,-462 251.5,-468 245.5,-468"/>
<text text-anchor="middle" x="220" y="-447.5" font-family="sans" font-size="10.00" fill="#000000">rmPCRDup2</text>
</g>
<!-- 2&#45;&gt;1 -->
<g id="edge7" class="edge">
<title>2&#45;&gt;1</title>
<path fill="none" stroke="#c0c0c0" stroke-width="2" d="M194.4097,-431.9139C164.6796,-409.67 116.0095,-369.2537 87,-324 59.542,-281.1666 42.1276,-223.9642 33.5031,-190.2451"/>
<polygon fill="#c0c0c0" stroke="#c0c0c0" stroke-width="2" points="36.8098,-189.037 31.0102,-180.1705 30.0147,-190.7184 36.8098,-189.037"/>
</g>
<!-- 16 -->
<g id="node17" class="node">
<title>16</title>
<path fill="none" stroke="#56d892" stroke-width="2" d="M259.5,-396C259.5,-396 180.5,-396 180.5,-396 174.5,-396 168.5,-390 168.5,-384 168.5,-384 168.5,-372 168.5,-372 168.5,-366 174.5,-360 180.5,-360 180.5,-360 259.5,-360 259.5,-360 265.5,-360 271.5,-366 271.5,-372 271.5,-372 271.5,-384 271.5,-384 271.5,-390 265.5,-396 259.5,-396"/>
<text text-anchor="middle" x="220" y="-375.5" font-family="sans" font-size="10.00" fill="#000000">makePairsNSam2</text>
</g>
<!-- 2&#45;&gt;16 -->
<g id="edge22" class="edge">
<title>2&#45;&gt;16</title>
<path fill="none" stroke="#c0c0c0" stroke-width="2" d="M220,-431.8314C220,-424.131 220,-414.9743 220,-406.4166"/>
<polygon fill="#c0c0c0" stroke="#c0c0c0" stroke-width="2" points="223.5001,-406.4132 220,-396.4133 216.5001,-406.4133 223.5001,-406.4132"/>
</g>
<!-- 19 -->
<g id="node20" class="node">
<title>19</title>
<path fill="none" stroke="#56d8a9" stroke-width="2" d="M458,-396C458,-396 344,-396 344,-396 338,-396 332,-390 332,-384 332,-384 332,-372 332,-372 332,-366 338,-360 344,-360 344,-360 458,-360 458,-360 464,-360 470,-366 470,-372 470,-372 470,-384 470,-384 470,-390 464,-396 458,-396"/>
<text text-anchor="middle" x="401" y="-375.5" font-family="sans" font-size="10.00" fill="#000000">makePairsNSam2Unmap</text>
</g>
<!-- 2&#45;&gt;19 -->
<g id="edge25" class="edge">
<title>2&#45;&gt;19</title>
<path fill="none" stroke="#c0c0c0" stroke-width="2" d="M257.5033,-435.0816C283.0867,-424.9047 317.3942,-411.2576 346.0486,-399.8591"/>
<polygon fill="#c0c0c0" stroke="#c0c0c0" stroke-width="2" points="347.5305,-403.0364 355.5287,-396.088 344.9431,-396.5322 347.5305,-403.0364"/>
</g>
<!-- 3 -->
<g id="node4" class="node">
<title>3</title>
<path fill="none" stroke="#56a9d8" stroke-width="2" d="M248,-540C248,-540 192,-540 192,-540 186,-540 180,-534 180,-528 180,-528 180,-516 180,-516 180,-510 186,-504 192,-504 192,-504 248,-504 248,-504 254,-504 260,-510 260,-516 260,-516 260,-528 260,-528 260,-534 254,-540 248,-540"/>
<text text-anchor="middle" x="220" y="-519.5" font-family="sans" font-size="10.00" fill="#000000">sortParisam2</text>
</g>
<!-- 3&#45;&gt;2 -->
<g id="edge8" class="edge">
<title>3&#45;&gt;2</title>
<path fill="none" stroke="#c0c0c0" stroke-width="2" d="M220,-503.8314C220,-496.131 220,-486.9743 220,-478.4166"/>
<polygon fill="#c0c0c0" stroke="#c0c0c0" stroke-width="2" points="223.5001,-478.4132 220,-468.4133 216.5001,-478.4133 223.5001,-478.4132"/>
</g>
<!-- 4 -->
<g id="node5" class="node">
<title>4</title>
<path fill="none" stroke="#d8bc56" stroke-width="2" d="M267.5,-612C267.5,-612 172.5,-612 172.5,-612 166.5,-612 160.5,-606 160.5,-600 160.5,-600 160.5,-588 160.5,-588 160.5,-582 166.5,-576 172.5,-576 172.5,-576 267.5,-576 267.5,-576 273.5,-576 279.5,-582 279.5,-588 279.5,-588 279.5,-600 279.5,-600 279.5,-606 273.5,-612 267.5,-612"/>
<text text-anchor="middle" x="220" y="-591.5" font-family="sans" font-size="10.00" fill="#000000">RecordValidLigation2</text>
</g>
<!-- 4&#45;&gt;3 -->
<g id="edge9" class="edge">
<title>4&#45;&gt;3</title>
<path fill="none" stroke="#c0c0c0" stroke-width="2" d="M220,-575.8314C220,-568.131 220,-558.9743 220,-550.4166"/>
<polygon fill="#c0c0c0" stroke="#c0c0c0" stroke-width="2" points="223.5001,-550.4132 220,-540.4133 216.5001,-550.4133 223.5001,-550.4132"/>
</g>
<!-- 5 -->
<g id="node6" class="node">
<title>5</title>
<path fill="none" stroke="#a7d856" stroke-width="2" d="M235,-684C235,-684 205,-684 205,-684 199,-684 193,-678 193,-672 193,-672 193,-660 193,-660 193,-654 199,-648 205,-648 205,-648 235,-648 235,-648 241,-648 247,-654 247,-660 247,-660 247,-672 247,-672 247,-678 241,-684 235,-684"/>
<text text-anchor="middle" x="220" y="-663.5" font-family="sans" font-size="10.00" fill="#000000">bwa2</text>
</g>
<!-- 5&#45;&gt;4 -->
<g id="edge10" class="edge">
<title>5&#45;&gt;4</title>
<path fill="none" stroke="#c0c0c0" stroke-width="2" d="M220,-647.8314C220,-640.131 220,-630.9743 220,-622.4166"/>
<polygon fill="#c0c0c0" stroke="#c0c0c0" stroke-width="2" points="223.5001,-622.4132 220,-612.4133 216.5001,-622.4133 223.5001,-622.4132"/>
</g>
<!-- 6 -->
<g id="node7" class="node">
<title>6</title>
<path fill="none" stroke="#5692d8" stroke-width="2" d="M199,-756C199,-756 159,-756 159,-756 153,-756 147,-750 147,-744 147,-744 147,-732 147,-732 147,-726 153,-720 159,-720 159,-720 199,-720 199,-720 205,-720 211,-726 211,-732 211,-732 211,-744 211,-744 211,-750 205,-756 199,-756"/>
<text text-anchor="middle" x="179" y="-735.5" font-family="sans" font-size="10.00" fill="#000000">subseqR1</text>
</g>
<!-- 6&#45;&gt;5 -->
<g id="edge11" class="edge">
<title>6&#45;&gt;5</title>
<path fill="none" stroke="#c0c0c0" stroke-width="2" d="M189.346,-719.8314C193.9237,-711.7925 199.4052,-702.1666 204.4588,-693.2918"/>
<polygon fill="#c0c0c0" stroke="#c0c0c0" stroke-width="2" points="207.6077,-694.8351 209.5147,-684.4133 201.5248,-691.3712 207.6077,-694.8351"/>
</g>
<!-- 7 -->
<g id="node8" class="node">
<title>7</title>
<path fill="none" stroke="#566bd8" stroke-width="2" d="M259,-828C259,-828 181,-828 181,-828 175,-828 169,-822 169,-816 169,-816 169,-804 169,-804 169,-798 175,-792 181,-792 181,-792 259,-792 259,-792 265,-792 271,-798 271,-804 271,-804 271,-816 271,-816 271,-822 265,-828 259,-828"/>
<text text-anchor="middle" x="220" y="-807.5" font-family="sans" font-size="10.00" fill="#000000">unionReadNames</text>
</g>
<!-- 7&#45;&gt;6 -->
<g id="edge13" class="edge">
<title>7&#45;&gt;6</title>
<path fill="none" stroke="#c0c0c0" stroke-width="2" d="M209.654,-791.8314C205.0763,-783.7925 199.5948,-774.1666 194.5412,-765.2918"/>
<polygon fill="#c0c0c0" stroke="#c0c0c0" stroke-width="2" points="197.4752,-763.3712 189.4853,-756.4133 191.3923,-766.8351 197.4752,-763.3712"/>
</g>
<!-- 13 -->
<g id="node14" class="node">
<title>13</title>
<path fill="none" stroke="#567bd8" stroke-width="2" d="M281,-756C281,-756 241,-756 241,-756 235,-756 229,-750 229,-744 229,-744 229,-732 229,-732 229,-726 235,-720 241,-720 241,-720 281,-720 281,-720 287,-720 293,-726 293,-732 293,-732 293,-744 293,-744 293,-750 287,-756 281,-756"/>
<text text-anchor="middle" x="261" y="-735.5" font-family="sans" font-size="10.00" fill="#000000">subseqR2</text>
</g>
<!-- 7&#45;&gt;13 -->
<g id="edge19" class="edge">
<title>7&#45;&gt;13</title>
<path fill="none" stroke="#c0c0c0" stroke-width="2" d="M230.346,-791.8314C234.9237,-783.7925 240.4052,-774.1666 245.4588,-765.2918"/>
<polygon fill="#c0c0c0" stroke="#c0c0c0" stroke-width="2" points="248.6077,-766.8351 250.5147,-756.4133 242.5248,-763.3712 248.6077,-766.8351"/>
</g>
<!-- 8 -->
<g id="node9" class="node">
<title>8</title>
<path fill="none" stroke="#59d856" stroke-width="2" d="M253.5,-900C253.5,-900 186.5,-900 186.5,-900 180.5,-900 174.5,-894 174.5,-888 174.5,-888 174.5,-876 174.5,-876 174.5,-870 180.5,-864 186.5,-864 186.5,-864 253.5,-864 253.5,-864 259.5,-864 265.5,-870 265.5,-876 265.5,-876 265.5,-888 265.5,-888 265.5,-894 259.5,-900 253.5,-900"/>
<text text-anchor="middle" x="220" y="-879.5" font-family="sans" font-size="10.00" fill="#000000">getReadNames</text>
</g>
<!-- 8&#45;&gt;7 -->
<g id="edge14" class="edge">
<title>8&#45;&gt;7</title>
<path fill="none" stroke="#c0c0c0" stroke-width="2" d="M220,-863.8314C220,-856.131 220,-846.9743 220,-838.4166"/>
<polygon fill="#c0c0c0" stroke="#c0c0c0" stroke-width="2" points="223.5001,-838.4132 220,-828.4133 216.5001,-838.4133 223.5001,-838.4132"/>
</g>
<!-- 9 -->
<g id="node10" class="node">
<title>9</title>
<path fill="none" stroke="#d86e56" stroke-width="2" d="M101,-972C101,-972 45,-972 45,-972 39,-972 33,-966 33,-960 33,-960 33,-948 33,-948 33,-942 39,-936 45,-936 45,-936 101,-936 101,-936 107,-936 113,-942 113,-948 113,-948 113,-960 113,-960 113,-966 107,-972 101,-972"/>
<text text-anchor="middle" x="73" y="-951.5" font-family="sans" font-size="10.00" fill="#000000">KMCfilterR1T</text>
</g>
<!-- 9&#45;&gt;8 -->
<g id="edge17" class="edge">
<title>9&#45;&gt;8</title>
<path fill="none" stroke="#c0c0c0" stroke-width="2" d="M110.0943,-935.8314C129.4926,-926.3302 153.417,-914.6121 173.9862,-904.5374"/>
<polygon fill="#c0c0c0" stroke="#c0c0c0" stroke-width="2" points="175.7314,-907.5799 183.1724,-900.038 172.6522,-901.2935 175.7314,-907.5799"/>
</g>
<!-- 10 -->
<g id="node11" class="node">
<title>10</title>
<path fill="none" stroke="#d85656" stroke-width="2" d="M199,-972C199,-972 143,-972 143,-972 137,-972 131,-966 131,-960 131,-960 131,-948 131,-948 131,-942 137,-936 143,-936 143,-936 199,-936 199,-936 205,-936 211,-942 211,-948 211,-948 211,-960 211,-960 211,-966 205,-972 199,-972"/>
<text text-anchor="middle" x="171" y="-951.5" font-family="sans" font-size="10.00" fill="#000000">KMCfilterR1C</text>
</g>
<!-- 10&#45;&gt;8 -->
<g id="edge16" class="edge">
<title>10&#45;&gt;8</title>
<path fill="none" stroke="#c0c0c0" stroke-width="2" d="M183.3648,-935.8314C188.9509,-927.6232 195.663,-917.7606 201.8072,-908.7323"/>
<polygon fill="#c0c0c0" stroke="#c0c0c0" stroke-width="2" points="204.736,-910.6496 207.4687,-900.4133 198.949,-906.7112 204.736,-910.6496"/>
</g>
<!-- 11 -->
<g id="node12" class="node">
<title>11</title>
<path fill="none" stroke="#d89556" stroke-width="2" d="M297,-972C297,-972 241,-972 241,-972 235,-972 229,-966 229,-960 229,-960 229,-948 229,-948 229,-942 235,-936 241,-936 241,-936 297,-936 297,-936 303,-936 309,-942 309,-948 309,-948 309,-960 309,-960 309,-966 303,-972 297,-972"/>
<text text-anchor="middle" x="269" y="-951.5" font-family="sans" font-size="10.00" fill="#000000">KMCfilterR2T</text>
</g>
<!-- 11&#45;&gt;8 -->
<g id="edge15" class="edge">
<title>11&#45;&gt;8</title>
<path fill="none" stroke="#c0c0c0" stroke-width="2" d="M256.6352,-935.8314C251.0491,-927.6232 244.337,-917.7606 238.1928,-908.7323"/>
<polygon fill="#c0c0c0" stroke="#c0c0c0" stroke-width="2" points="241.051,-906.7112 232.5313,-900.4133 235.264,-910.6496 241.051,-906.7112"/>
</g>
<!-- 12 -->
<g id="node13" class="node">
<title>12</title>
<path fill="none" stroke="#d87d56" stroke-width="2" d="M395,-972C395,-972 339,-972 339,-972 333,-972 327,-966 327,-960 327,-960 327,-948 327,-948 327,-942 333,-936 339,-936 339,-936 395,-936 395,-936 401,-936 407,-942 407,-948 407,-948 407,-960 407,-960 407,-966 401,-972 395,-972"/>
<text text-anchor="middle" x="367" y="-951.5" font-family="sans" font-size="10.00" fill="#000000">KMCfilterR2C</text>
</g>
<!-- 12&#45;&gt;8 -->
<g id="edge18" class="edge">
<title>12&#45;&gt;8</title>
<path fill="none" stroke="#c0c0c0" stroke-width="2" d="M329.9057,-935.8314C310.5074,-926.3302 286.583,-914.6121 266.0138,-904.5374"/>
<polygon fill="#c0c0c0" stroke="#c0c0c0" stroke-width="2" points="267.3478,-901.2935 256.8276,-900.038 264.2686,-907.5799 267.3478,-901.2935"/>
</g>
<!-- 13&#45;&gt;5 -->
<g id="edge12" class="edge">
<title>13&#45;&gt;5</title>
<path fill="none" stroke="#c0c0c0" stroke-width="2" d="M250.654,-719.8314C246.0763,-711.7925 240.5948,-702.1666 235.5412,-693.2918"/>
<polygon fill="#c0c0c0" stroke="#c0c0c0" stroke-width="2" points="238.4752,-691.3712 230.4853,-684.4133 232.3923,-694.8351 238.4752,-691.3712"/>
</g>
<!-- 14 -->
<g id="node15" class="node">
<title>14</title>
<path fill="none" stroke="#ced856" stroke-width="2" d="M120.5,-108C120.5,-108 59.5,-108 59.5,-108 53.5,-108 47.5,-102 47.5,-96 47.5,-96 47.5,-84 47.5,-84 47.5,-78 53.5,-72 59.5,-72 59.5,-72 120.5,-72 120.5,-72 126.5,-72 132.5,-78 132.5,-84 132.5,-84 132.5,-96 132.5,-96 132.5,-102 126.5,-108 120.5,-108"/>
<text text-anchor="middle" x="90" y="-87.5" font-family="sans" font-size="10.00" fill="#000000">bamCoverge2</text>
</g>
<!-- 14&#45;&gt;0 -->
<g id="edge6" class="edge">
<title>14&#45;&gt;0</title>
<path fill="none" stroke="#c0c0c0" stroke-width="2" d="M112.7108,-71.8314C123.796,-62.9632 137.2954,-52.1637 149.2852,-42.5718"/>
<polygon fill="#c0c0c0" stroke="#c0c0c0" stroke-width="2" points="151.6742,-45.1429 157.2965,-36.1628 147.3013,-39.6768 151.6742,-45.1429"/>
</g>
<!-- 15 -->
<g id="node16" class="node">
<title>15</title>
<path fill="none" stroke="#80d856" stroke-width="2" d="M150,-324C150,-324 108,-324 108,-324 102,-324 96,-318 96,-312 96,-312 96,-300 96,-300 96,-294 102,-288 108,-288 108,-288 150,-288 150,-288 156,-288 162,-294 162,-300 162,-300 162,-312 162,-312 162,-318 156,-324 150,-324"/>
<text text-anchor="middle" x="129" y="-303.5" font-family="sans" font-size="10.00" fill="#000000">finalBam2</text>
</g>
<!-- 15&#45;&gt;14 -->
<g id="edge20" class="edge">
<title>15&#45;&gt;14</title>
<path fill="none" stroke="#c0c0c0" stroke-width="2" d="M120.592,-287.8895C116.1567,-277.5824 111.0222,-264.3087 108,-252 96.7238,-206.0754 92.4992,-151.0775 90.9249,-118.4208"/>
<polygon fill="#c0c0c0" stroke="#c0c0c0" stroke-width="2" points="94.4139,-118.0877 90.4863,-108.2477 87.4204,-118.3893 94.4139,-118.0877"/>
</g>
<!-- 16&#45;&gt;15 -->
<g id="edge21" class="edge">
<title>16&#45;&gt;15</title>
<path fill="none" stroke="#c0c0c0" stroke-width="2" d="M197.0369,-359.8314C185.8285,-350.9632 172.1791,-340.1637 160.0561,-330.5718"/>
<polygon fill="#c0c0c0" stroke="#c0c0c0" stroke-width="2" points="161.9697,-327.6229 151.9558,-324.1628 157.6263,-333.1125 161.9697,-327.6229"/>
</g>
<!-- 20 -->
<g id="node21" class="node">
<title>20</title>
<path fill="none" stroke="#56d86b" stroke-width="2" d="M206.5,-252C206.5,-252 129.5,-252 129.5,-252 123.5,-252 117.5,-246 117.5,-240 117.5,-240 117.5,-228 117.5,-228 117.5,-222 123.5,-216 129.5,-216 129.5,-216 206.5,-216 206.5,-216 212.5,-216 218.5,-222 218.5,-228 218.5,-228 218.5,-240 218.5,-240 218.5,-246 212.5,-252 206.5,-252"/>
<text text-anchor="middle" x="168" y="-231.5" font-family="sans" font-size="10.00" fill="#000000">hicContacMatrix2</text>
</g>
<!-- 16&#45;&gt;20 -->
<g id="edge26" class="edge">
<title>16&#45;&gt;20</title>
<path fill="none" stroke="#c0c0c0" stroke-width="2" d="M213.4142,-359.7623C204.4667,-334.9846 188.3924,-290.4714 177.9645,-261.5939"/>
<polygon fill="#c0c0c0" stroke="#c0c0c0" stroke-width="2" points="181.2208,-260.3064 174.5324,-252.0896 174.6369,-262.6839 181.2208,-260.3064"/>
</g>
<!-- 21 -->
<g id="node22" class="node">
<title>21</title>
<path fill="none" stroke="#56d8b9" stroke-width="2" d="M294.5,-180C294.5,-180 201.5,-180 201.5,-180 195.5,-180 189.5,-174 189.5,-168 189.5,-168 189.5,-156 189.5,-156 189.5,-150 195.5,-144 201.5,-144 201.5,-144 294.5,-144 294.5,-144 300.5,-144 306.5,-150 306.5,-156 306.5,-156 306.5,-168 306.5,-168 306.5,-174 300.5,-180 294.5,-180"/>
<text text-anchor="middle" x="248" y="-159.5" font-family="sans" font-size="10.00" fill="#000000">mcoolContacMatrix2</text>
</g>
<!-- 16&#45;&gt;21 -->
<g id="edge27" class="edge">
<title>16&#45;&gt;21</title>
<path fill="none" stroke="#c0c0c0" stroke-width="2" d="M222.3391,-359.9555C227.2185,-322.3144 238.5128,-235.1867 244.3542,-190.1246"/>
<polygon fill="#c0c0c0" stroke="#c0c0c0" stroke-width="2" points="247.8332,-190.5121 245.6479,-180.1451 240.8913,-189.6121 247.8332,-190.5121"/>
</g>
<!-- 25 -->
<g id="node26" class="node">
<title>25</title>
<path fill="none" stroke="#56d8d0" stroke-width="2" d="M341,-324C341,-324 289,-324 289,-324 283,-324 277,-318 277,-312 277,-312 277,-300 277,-300 277,-294 283,-288 289,-288 289,-288 341,-288 341,-288 347,-288 353,-294 353,-300 353,-300 353,-312 353,-312 353,-318 347,-324 341,-324"/>
<text text-anchor="middle" x="315" y="-303.5" font-family="sans" font-size="10.00" fill="#000000">parisDump2</text>
</g>
<!-- 16&#45;&gt;25 -->
<g id="edge31" class="edge">
<title>16&#45;&gt;25</title>
<path fill="none" stroke="#c0c0c0" stroke-width="2" d="M243.9725,-359.8314C255.7861,-350.8779 270.1972,-339.9558 282.9435,-330.2955"/>
<polygon fill="#c0c0c0" stroke="#c0c0c0" stroke-width="2" points="285.1795,-332.9925 291.0352,-324.1628 280.9514,-327.4137 285.1795,-332.9925"/>
</g>
<!-- 17 -->
<g id="node18" class="node">
<title>17</title>
<path fill="none" stroke="#b6d856" stroke-width="2" d="M461,-108C461,-108 371,-108 371,-108 365,-108 359,-102 359,-96 359,-96 359,-84 359,-84 359,-78 365,-72 371,-72 371,-72 461,-72 461,-72 467,-72 473,-78 473,-84 473,-84 473,-96 473,-96 473,-102 467,-108 461,-108"/>
<text text-anchor="middle" x="416" y="-87.5" font-family="sans" font-size="10.00" fill="#000000">bamCovergeUnmap</text>
</g>
<!-- 17&#45;&gt;0 -->
<g id="edge1" class="edge">
<title>17&#45;&gt;0</title>
<path fill="none" stroke="#c0c0c0" stroke-width="2" d="M358.871,-72.5708C314.6664,-59.0847 254.7675,-40.8104 216.7465,-29.2108"/>
<polygon fill="#c0c0c0" stroke="#c0c0c0" stroke-width="2" points="217.6907,-25.8397 207.1046,-26.2692 215.648,-32.535 217.6907,-25.8397"/>
</g>
<!-- 18 -->
<g id="node19" class="node">
<title>18</title>
<path fill="none" stroke="#68d856" stroke-width="2" d="M461.5,-324C461.5,-324 384.5,-324 384.5,-324 378.5,-324 372.5,-318 372.5,-312 372.5,-312 372.5,-300 372.5,-300 372.5,-294 378.5,-288 384.5,-288 384.5,-288 461.5,-288 461.5,-288 467.5,-288 473.5,-294 473.5,-300 473.5,-300 473.5,-312 473.5,-312 473.5,-318 467.5,-324 461.5,-324"/>
<text text-anchor="middle" x="423" y="-303.5" font-family="sans" font-size="10.00" fill="#000000">finalBam2Unmap</text>
</g>
<!-- 18&#45;&gt;17 -->
<g id="edge23" class="edge">
<title>18&#45;&gt;17</title>
<path fill="none" stroke="#c0c0c0" stroke-width="2" d="M422.4152,-287.9555C421.1979,-250.3938 418.3837,-163.5541 416.9207,-118.4103"/>
<polygon fill="#c0c0c0" stroke="#c0c0c0" stroke-width="2" points="420.4102,-118.0264 416.588,-108.1451 413.4139,-118.2532 420.4102,-118.0264"/>
</g>
<!-- 19&#45;&gt;18 -->
<g id="edge24" class="edge">
<title>19&#45;&gt;18</title>
<path fill="none" stroke="#c0c0c0" stroke-width="2" d="M406.5515,-359.8314C408.9303,-352.0463 411.7638,-342.7729 414.4033,-334.1347"/>
<polygon fill="#c0c0c0" stroke="#c0c0c0" stroke-width="2" points="417.7987,-334.9996 417.3737,-324.4133 411.1042,-332.954 417.7987,-334.9996"/>
</g>
<!-- 20&#45;&gt;0 -->
<g id="edge5" class="edge">
<title>20&#45;&gt;0</title>
<path fill="none" stroke="#c0c0c0" stroke-width="2" d="M169.0025,-215.9555C171.0892,-178.3938 175.9137,-91.5541 178.4216,-46.4103"/>
<polygon fill="#c0c0c0" stroke="#c0c0c0" stroke-width="2" points="181.9318,-46.3238 178.9919,-36.1451 174.9425,-45.9355 181.9318,-46.3238"/>
</g>
<!-- 21&#45;&gt;0 -->
<g id="edge3" class="edge">
<title>21&#45;&gt;0</title>
<path fill="none" stroke="#c0c0c0" stroke-width="2" d="M239.3878,-143.7623C227.6361,-118.8764 206.4833,-74.0822 192.8522,-45.2165"/>
<polygon fill="#c0c0c0" stroke="#c0c0c0" stroke-width="2" points="195.9773,-43.6376 188.5423,-36.0896 189.6476,-46.6267 195.9773,-43.6376"/>
</g>
<!-- 22 -->
<g id="node23" class="node">
<title>22</title>
<path fill="none" stroke="#56d0d8" stroke-width="2" d="M320.5,-108C320.5,-108 279.5,-108 279.5,-108 273.5,-108 267.5,-102 267.5,-96 267.5,-96 267.5,-84 267.5,-84 267.5,-78 273.5,-72 279.5,-72 279.5,-72 320.5,-72 320.5,-72 326.5,-72 332.5,-78 332.5,-84 332.5,-84 332.5,-96 332.5,-96 332.5,-102 326.5,-108 320.5,-108"/>
<text text-anchor="middle" x="300" y="-87.5" font-family="sans" font-size="10.00" fill="#000000">plotCircos</text>
</g>
<!-- 22&#45;&gt;0 -->
<g id="edge4" class="edge">
<title>22&#45;&gt;0</title>
<path fill="none" stroke="#c0c0c0" stroke-width="2" d="M269.7189,-71.8314C253.4003,-62.0402 233.1579,-49.8947 216.0327,-39.6196"/>
<polygon fill="#c0c0c0" stroke="#c0c0c0" stroke-width="2" points="217.7745,-36.5831 207.3988,-34.4393 214.173,-42.5855 217.7745,-36.5831"/>
</g>
<!-- 23 -->
<g id="node24" class="node">
<title>23</title>
<path fill="none" stroke="#8fd856" stroke-width="2" d="M383.5,-180C383.5,-180 336.5,-180 336.5,-180 330.5,-180 324.5,-174 324.5,-168 324.5,-168 324.5,-156 324.5,-156 324.5,-150 330.5,-144 336.5,-144 336.5,-144 383.5,-144 383.5,-144 389.5,-144 395.5,-150 395.5,-156 395.5,-156 395.5,-168 395.5,-168 395.5,-174 389.5,-180 383.5,-180"/>
<text text-anchor="middle" x="360" y="-159.5" font-family="sans" font-size="10.00" fill="#000000">circoConfig</text>
</g>
<!-- 23&#45;&gt;22 -->
<g id="edge28" class="edge">
<title>23&#45;&gt;22</title>
<path fill="none" stroke="#c0c0c0" stroke-width="2" d="M344.8595,-143.8314C337.8783,-135.454 329.4609,-125.3531 321.8124,-116.1749"/>
<polygon fill="#c0c0c0" stroke="#c0c0c0" stroke-width="2" points="324.4351,-113.8548 315.3444,-108.4133 319.0575,-118.3362 324.4351,-113.8548"/>
</g>
<!-- 24 -->
<g id="node25" class="node">
<title>24</title>
<path fill="none" stroke="#56d87b" stroke-width="2" d="M385,-252C385,-252 287,-252 287,-252 281,-252 275,-246 275,-240 275,-240 275,-228 275,-228 275,-222 281,-216 287,-216 287,-216 385,-216 385,-216 391,-216 397,-222 397,-228 397,-228 397,-240 397,-240 397,-246 391,-252 385,-252"/>
<text text-anchor="middle" x="336" y="-231.5" font-family="sans" font-size="10.00" fill="#000000">keepMultipleAlignPair</text>
</g>
<!-- 24&#45;&gt;23 -->
<g id="edge29" class="edge">
<title>24&#45;&gt;23</title>
<path fill="none" stroke="#c0c0c0" stroke-width="2" d="M342.0562,-215.8314C344.6512,-208.0463 347.7424,-198.7729 350.6218,-190.1347"/>
<polygon fill="#c0c0c0" stroke="#c0c0c0" stroke-width="2" points="354.0203,-191.0069 353.8622,-180.4133 347.3795,-188.7933 354.0203,-191.0069"/>
</g>
<!-- 25&#45;&gt;24 -->
<g id="edge30" class="edge">
<title>25&#45;&gt;24</title>
<path fill="none" stroke="#c0c0c0" stroke-width="2" d="M320.2992,-287.8314C322.5698,-280.0463 325.2746,-270.7729 327.794,-262.1347"/>
<polygon fill="#c0c0c0" stroke="#c0c0c0" stroke-width="2" points="331.1894,-262.9933 330.6295,-252.4133 324.4694,-261.0332 331.1894,-262.9933"/>
</g>
</g>
</svg>
