<?xml version="1.0" encoding="UTF-8" standalone="no"?>
<!DOCTYPE svg PUBLIC "-//W3C//DTD SVG 1.1//EN"
 "http://www.w3.org/Graphics/SVG/1.1/DTD/svg11.dtd">
<!-- Generated by graphviz version 2.40.1 (0)
 -->
<!-- Title: snakemake_dag Pages: 1 -->
<svg width="311pt" height="548pt"
 viewBox="0.00 0.00 310.64 548.00" xmlns="http://www.w3.org/2000/svg" xmlns:xlink="http://www.w3.org/1999/xlink">
<g id="graph0" class="graph" transform="scale(1 1) rotate(0) translate(4 544)">
<title>snakemake_dag</title>
<polygon fill="#ffffff" stroke="transparent" points="-4,4 -4,-544 306.6388,-544 306.6388,4 -4,4"/>
<!-- 0 -->
<g id="node1" class="node">
<title>0</title>
<path fill="none" stroke="#d8b456" stroke-width="2" d="M167.6388,-36C167.6388,-36 137.6388,-36 137.6388,-36 131.6388,-36 125.6388,-30 125.6388,-24 125.6388,-24 125.6388,-12 125.6388,-12 125.6388,-6 131.6388,0 137.6388,0 137.6388,0 167.6388,0 167.6388,0 173.6388,0 179.6388,-6 179.6388,-12 179.6388,-12 179.6388,-24 179.6388,-24 179.6388,-30 173.6388,-36 167.6388,-36"/>
<text text-anchor="middle" x="152.6388" y="-15.5" font-family="sans" font-size="10.00" fill="#000000">all</text>
</g>
<!-- 1 -->
<g id="node2" class="node">
<title>1</title>
<path fill="none" stroke="#9fd856" stroke-width="2" d="M68.6388,-180C68.6388,-180 32.6388,-180 32.6388,-180 26.6388,-180 20.6388,-174 20.6388,-168 20.6388,-168 20.6388,-156 20.6388,-156 20.6388,-150 26.6388,-144 32.6388,-144 32.6388,-144 68.6388,-144 68.6388,-144 74.6388,-144 80.6388,-150 80.6388,-156 80.6388,-156 80.6388,-168 80.6388,-168 80.6388,-174 74.6388,-180 68.6388,-180"/>
<text text-anchor="middle" x="50.6388" y="-159.5" font-family="sans" font-size="10.00" fill="#000000">finalBam</text>
</g>
<!-- 1&#45;&gt;0 -->
<g id="edge2" class="edge">
<title>1&#45;&gt;0</title>
<path fill="none" stroke="#c0c0c0" stroke-width="2" d="M30.3411,-143.8945C11.7638,-125.0828 -10.5591,-95.2063 5.6388,-72 18.5583,-53.4904 76.5616,-36.2741 115.7292,-26.4604"/>
<polygon fill="#c0c0c0" stroke="#c0c0c0" stroke-width="2" points="116.6074,-29.8489 125.4874,-24.0699 114.9418,-23.0499 116.6074,-29.8489"/>
</g>
<!-- 8 -->
<g id="node9" class="node">
<title>8</title>
<path fill="none" stroke="#56d86b" stroke-width="2" d="M74.6388,-108C74.6388,-108 26.6388,-108 26.6388,-108 20.6388,-108 14.6388,-102 14.6388,-96 14.6388,-96 14.6388,-84 14.6388,-84 14.6388,-78 20.6388,-72 26.6388,-72 26.6388,-72 74.6388,-72 74.6388,-72 80.6388,-72 86.6388,-78 86.6388,-84 86.6388,-84 86.6388,-96 86.6388,-96 86.6388,-102 80.6388,-108 74.6388,-108"/>
<text text-anchor="middle" x="50.6388" y="-87.5" font-family="sans" font-size="10.00" fill="#000000">libComXQC</text>
</g>
<!-- 1&#45;&gt;8 -->
<g id="edge12" class="edge">
<title>1&#45;&gt;8</title>
<path fill="none" stroke="#c0c0c0" stroke-width="2" d="M50.6388,-143.8314C50.6388,-136.131 50.6388,-126.9743 50.6388,-118.4166"/>
<polygon fill="#c0c0c0" stroke="#c0c0c0" stroke-width="2" points="54.1389,-118.4132 50.6388,-108.4133 47.1389,-118.4133 54.1389,-118.4132"/>
</g>
<!-- 2 -->
<g id="node3" class="node">
<title>2</title>
<path fill="none" stroke="#56d89a" stroke-width="2" d="M200.1388,-252C200.1388,-252 127.1388,-252 127.1388,-252 121.1388,-252 115.1388,-246 115.1388,-240 115.1388,-240 115.1388,-228 115.1388,-228 115.1388,-222 121.1388,-216 127.1388,-216 127.1388,-216 200.1388,-216 200.1388,-216 206.1388,-216 212.1388,-222 212.1388,-228 212.1388,-228 212.1388,-240 212.1388,-240 212.1388,-246 206.1388,-252 200.1388,-252"/>
<text text-anchor="middle" x="163.6388" y="-231.5" font-family="sans" font-size="10.00" fill="#000000">makePairsNSam</text>
</g>
<!-- 2&#45;&gt;1 -->
<g id="edge6" class="edge">
<title>2&#45;&gt;1</title>
<path fill="none" stroke="#c0c0c0" stroke-width="2" d="M135.1241,-215.8314C120.8045,-206.7074 103.2764,-195.539 87.905,-185.7449"/>
<polygon fill="#c0c0c0" stroke="#c0c0c0" stroke-width="2" points="89.4586,-182.5847 79.1443,-180.1628 85.6971,-188.4882 89.4586,-182.5847"/>
</g>
<!-- 9 -->
<g id="node10" class="node">
<title>9</title>
<path fill="none" stroke="#70d856" stroke-width="2" d="M188.1388,-108C188.1388,-108 117.1388,-108 117.1388,-108 111.1388,-108 105.1388,-102 105.1388,-96 105.1388,-96 105.1388,-84 105.1388,-84 105.1388,-78 111.1388,-72 117.1388,-72 117.1388,-72 188.1388,-72 188.1388,-72 194.1388,-72 200.1388,-78 200.1388,-84 200.1388,-84 200.1388,-96 200.1388,-96 200.1388,-102 194.1388,-108 188.1388,-108"/>
<text text-anchor="middle" x="152.6388" y="-87.5" font-family="sans" font-size="10.00" fill="#000000">hicContacMatrix</text>
</g>
<!-- 2&#45;&gt;9 -->
<g id="edge13" class="edge">
<title>2&#45;&gt;9</title>
<path fill="none" stroke="#c0c0c0" stroke-width="2" d="M155.9708,-215.8756C152.0249,-205.5642 147.6333,-192.2907 145.6388,-180 142.2968,-159.4058 144.3235,-135.8925 147.0391,-118.0653"/>
<polygon fill="#c0c0c0" stroke="#c0c0c0" stroke-width="2" points="150.5189,-118.477 148.7294,-108.0344 143.6163,-117.3138 150.5189,-118.477"/>
</g>
<!-- 10 -->
<g id="node11" class="node">
<title>10</title>
<path fill="none" stroke="#56d8c9" stroke-width="2" d="M254.1388,-180C254.1388,-180 167.1388,-180 167.1388,-180 161.1388,-180 155.1388,-174 155.1388,-168 155.1388,-168 155.1388,-156 155.1388,-156 155.1388,-150 161.1388,-144 167.1388,-144 167.1388,-144 254.1388,-144 254.1388,-144 260.1388,-144 266.1388,-150 266.1388,-156 266.1388,-156 266.1388,-168 266.1388,-168 266.1388,-174 260.1388,-180 254.1388,-180"/>
<text text-anchor="middle" x="210.6388" y="-159.5" font-family="sans" font-size="10.00" fill="#000000">mcoolContacMatrix</text>
</g>
<!-- 2&#45;&gt;10 -->
<g id="edge14" class="edge">
<title>2&#45;&gt;10</title>
<path fill="none" stroke="#c0c0c0" stroke-width="2" d="M175.4988,-215.8314C180.8017,-207.7079 187.1624,-197.9637 193.0061,-189.0118"/>
<polygon fill="#c0c0c0" stroke="#c0c0c0" stroke-width="2" points="196.0835,-190.7003 198.619,-180.4133 190.2219,-186.8739 196.0835,-190.7003"/>
</g>
<!-- 3 -->
<g id="node4" class="node">
<title>3</title>
<path fill="none" stroke="#56b1d8" stroke-width="2" d="M233.1388,-324C233.1388,-324 188.1388,-324 188.1388,-324 182.1388,-324 176.1388,-318 176.1388,-312 176.1388,-312 176.1388,-300 176.1388,-300 176.1388,-294 182.1388,-288 188.1388,-288 188.1388,-288 233.1388,-288 233.1388,-288 239.1388,-288 245.1388,-294 245.1388,-300 245.1388,-300 245.1388,-312 245.1388,-312 245.1388,-318 239.1388,-324 233.1388,-324"/>
<text text-anchor="middle" x="210.6388" y="-303.5" font-family="sans" font-size="10.00" fill="#000000">rmPCRDup</text>
</g>
<!-- 3&#45;&gt;2 -->
<g id="edge7" class="edge">
<title>3&#45;&gt;2</title>
<path fill="none" stroke="#c0c0c0" stroke-width="2" d="M198.7787,-287.8314C193.4758,-279.7079 187.1151,-269.9637 181.2714,-261.0118"/>
<polygon fill="#c0c0c0" stroke="#c0c0c0" stroke-width="2" points="184.0556,-258.8739 175.6585,-252.4133 178.194,-262.7003 184.0556,-258.8739"/>
</g>
<!-- 7 -->
<g id="node8" class="node">
<title>7</title>
<path fill="none" stroke="#d85656" stroke-width="2" d="M290.6388,-252C290.6388,-252 260.6388,-252 260.6388,-252 254.6388,-252 248.6388,-246 248.6388,-240 248.6388,-240 248.6388,-228 248.6388,-228 248.6388,-222 254.6388,-216 260.6388,-216 260.6388,-216 290.6388,-216 290.6388,-216 296.6388,-216 302.6388,-222 302.6388,-228 302.6388,-228 302.6388,-240 302.6388,-240 302.6388,-246 296.6388,-252 290.6388,-252"/>
<text text-anchor="middle" x="275.6388" y="-231.5" font-family="sans" font-size="10.00" fill="#000000">LibQC</text>
</g>
<!-- 3&#45;&gt;7 -->
<g id="edge11" class="edge">
<title>3&#45;&gt;7</title>
<path fill="none" stroke="#c0c0c0" stroke-width="2" d="M227.041,-287.8314C234.6803,-279.3694 243.9071,-269.1489 252.2594,-259.8971"/>
<polygon fill="#c0c0c0" stroke="#c0c0c0" stroke-width="2" points="254.9125,-262.1813 259.0157,-252.4133 249.7167,-257.4906 254.9125,-262.1813"/>
</g>
<!-- 4 -->
<g id="node5" class="node">
<title>4</title>
<path fill="none" stroke="#5682d8" stroke-width="2" d="M235.6388,-396C235.6388,-396 185.6388,-396 185.6388,-396 179.6388,-396 173.6388,-390 173.6388,-384 173.6388,-384 173.6388,-372 173.6388,-372 173.6388,-366 179.6388,-360 185.6388,-360 185.6388,-360 235.6388,-360 235.6388,-360 241.6388,-360 247.6388,-366 247.6388,-372 247.6388,-372 247.6388,-384 247.6388,-384 247.6388,-390 241.6388,-396 235.6388,-396"/>
<text text-anchor="middle" x="210.6388" y="-375.5" font-family="sans" font-size="10.00" fill="#000000">sortParisam</text>
</g>
<!-- 4&#45;&gt;3 -->
<g id="edge8" class="edge">
<title>4&#45;&gt;3</title>
<path fill="none" stroke="#c0c0c0" stroke-width="2" d="M210.6388,-359.8314C210.6388,-352.131 210.6388,-342.9743 210.6388,-334.4166"/>
<polygon fill="#c0c0c0" stroke="#c0c0c0" stroke-width="2" points="214.1389,-334.4132 210.6388,-324.4133 207.1389,-334.4133 214.1389,-334.4132"/>
</g>
<!-- 5 -->
<g id="node6" class="node">
<title>5</title>
<path fill="none" stroke="#d88556" stroke-width="2" d="M255.1388,-468C255.1388,-468 166.1388,-468 166.1388,-468 160.1388,-468 154.1388,-462 154.1388,-456 154.1388,-456 154.1388,-444 154.1388,-444 154.1388,-438 160.1388,-432 166.1388,-432 166.1388,-432 255.1388,-432 255.1388,-432 261.1388,-432 267.1388,-438 267.1388,-444 267.1388,-444 267.1388,-456 267.1388,-456 267.1388,-462 261.1388,-468 255.1388,-468"/>
<text text-anchor="middle" x="210.6388" y="-447.5" font-family="sans" font-size="10.00" fill="#000000">RecordValidLigation</text>
</g>
<!-- 5&#45;&gt;4 -->
<g id="edge9" class="edge">
<title>5&#45;&gt;4</title>
<path fill="none" stroke="#c0c0c0" stroke-width="2" d="M210.6388,-431.8314C210.6388,-424.131 210.6388,-414.9743 210.6388,-406.4166"/>
<polygon fill="#c0c0c0" stroke="#c0c0c0" stroke-width="2" points="214.1389,-406.4132 210.6388,-396.4133 207.1389,-406.4133 214.1389,-406.4132"/>
</g>
<!-- 6 -->
<g id="node7" class="node">
<title>6</title>
<path fill="none" stroke="#ced856" stroke-width="2" d="M225.6388,-540C225.6388,-540 195.6388,-540 195.6388,-540 189.6388,-540 183.6388,-534 183.6388,-528 183.6388,-528 183.6388,-516 183.6388,-516 183.6388,-510 189.6388,-504 195.6388,-504 195.6388,-504 225.6388,-504 225.6388,-504 231.6388,-504 237.6388,-510 237.6388,-516 237.6388,-516 237.6388,-528 237.6388,-528 237.6388,-534 231.6388,-540 225.6388,-540"/>
<text text-anchor="middle" x="210.6388" y="-519.5" font-family="sans" font-size="10.00" fill="#000000">bwa</text>
</g>
<!-- 6&#45;&gt;5 -->
<g id="edge10" class="edge">
<title>6&#45;&gt;5</title>
<path fill="none" stroke="#c0c0c0" stroke-width="2" d="M210.6388,-503.8314C210.6388,-496.131 210.6388,-486.9743 210.6388,-478.4166"/>
<polygon fill="#c0c0c0" stroke="#c0c0c0" stroke-width="2" points="214.1389,-478.4132 210.6388,-468.4133 207.1389,-478.4133 214.1389,-478.4132"/>
</g>
<!-- 7&#45;&gt;0 -->
<g id="edge1" class="edge">
<title>7&#45;&gt;0</title>
<path fill="none" stroke="#c0c0c0" stroke-width="2" d="M278.3949,-215.9474C280.5443,-197.4374 282.0627,-168.0375 274.6388,-144 263.2896,-107.2535 253.2509,-99.7651 226.6388,-72 215.3724,-60.2455 201.2827,-49.2565 188.4295,-40.3006"/>
<polygon fill="#c0c0c0" stroke="#c0c0c0" stroke-width="2" points="190.0209,-37.1512 179.7786,-34.4407 186.0951,-42.9468 190.0209,-37.1512"/>
</g>
<!-- 8&#45;&gt;0 -->
<g id="edge3" class="edge">
<title>8&#45;&gt;0</title>
<path fill="none" stroke="#c0c0c0" stroke-width="2" d="M76.3777,-71.8314C89.1825,-62.7927 104.8296,-51.7476 118.6107,-42.0198"/>
<polygon fill="#c0c0c0" stroke="#c0c0c0" stroke-width="2" points="120.7568,-44.7891 126.9081,-36.1628 116.72,-39.0703 120.7568,-44.7891"/>
</g>
<!-- 9&#45;&gt;0 -->
<g id="edge4" class="edge">
<title>9&#45;&gt;0</title>
<path fill="none" stroke="#c0c0c0" stroke-width="2" d="M152.6388,-71.8314C152.6388,-64.131 152.6388,-54.9743 152.6388,-46.4166"/>
<polygon fill="#c0c0c0" stroke="#c0c0c0" stroke-width="2" points="156.1389,-46.4132 152.6388,-36.4133 149.1389,-46.4133 156.1389,-46.4132"/>
</g>
<!-- 10&#45;&gt;0 -->
<g id="edge5" class="edge">
<title>10&#45;&gt;0</title>
<path fill="none" stroke="#c0c0c0" stroke-width="2" d="M214.1371,-143.8883C216.9006,-125.0715 218.7983,-95.191 208.6388,-72 203.8184,-60.9966 195.5875,-51.1206 186.8979,-42.9169"/>
<polygon fill="#c0c0c0" stroke="#c0c0c0" stroke-width="2" points="189.0352,-40.1353 179.2177,-36.1518 184.4082,-45.3881 189.0352,-40.1353"/>
</g>
</g>
</svg>
